G04 start of page 3 for group 1 idx 1 *
G04 Title: (unknown), bottom *
G04 Creator: pcb 4.0.2 *
G04 CreationDate: Thu Apr 18 02:51:52 2019 UTC *
G04 For: ndholmes *
G04 Format: Gerber/RS-274X *
G04 PCB-Dimensions (mil): 2500.00 1500.00 *
G04 PCB-Coordinate-Origin: lower left *
%MOIN*%
%FSLAX25Y25*%
%LNBOTTOM*%
%ADD32C,0.0630*%
%ADD31C,0.0550*%
%ADD30C,0.1285*%
%ADD29C,0.0120*%
%ADD28C,0.0260*%
%ADD27C,0.0900*%
%ADD26C,0.0830*%
%ADD25C,0.2937*%
%ADD24C,0.0100*%
%ADD23C,0.0001*%
G54D23*G36*
X218250Y11626D02*X218982Y9858D01*
X220272Y7753D01*
X221876Y5876D01*
X223753Y4272D01*
X225858Y2982D01*
X227022Y2500D01*
X218250D01*
Y11626D01*
G37*
G36*
Y127626D02*X218982Y125858D01*
X220272Y123753D01*
X221876Y121876D01*
X223753Y120272D01*
X225858Y118982D01*
X228138Y118038D01*
X230539Y117461D01*
X233000Y117268D01*
X235461Y117461D01*
X237862Y118038D01*
X240142Y118982D01*
X242247Y120272D01*
X243000Y120915D01*
Y29085D01*
X242247Y29728D01*
X240142Y31018D01*
X237862Y31962D01*
X235461Y32539D01*
X233000Y32732D01*
X230539Y32539D01*
X228138Y31962D01*
X225858Y31018D01*
X223753Y29728D01*
X221876Y28124D01*
X220272Y26247D01*
X218982Y24142D01*
X218250Y22374D01*
Y109217D01*
X218533Y109390D01*
X218838Y109662D01*
X221338Y112162D01*
X221610Y112467D01*
X221824Y112816D01*
X221980Y113194D01*
X222076Y113592D01*
X222108Y114000D01*
X222076Y114408D01*
X221980Y114806D01*
X221824Y115184D01*
X221800Y115223D01*
Y120500D01*
X221779Y120861D01*
X221694Y121213D01*
X221556Y121547D01*
X221366Y121856D01*
X221131Y122131D01*
X220856Y122366D01*
X220547Y122556D01*
X220213Y122694D01*
X219861Y122779D01*
X219500Y122807D01*
X219139Y122779D01*
X218787Y122694D01*
X218453Y122556D01*
X218250Y122431D01*
Y127626D01*
G37*
G36*
Y147500D02*X227022D01*
X225858Y147018D01*
X223753Y145728D01*
X221876Y144124D01*
X220272Y142247D01*
X218982Y140142D01*
X218250Y138374D01*
Y147500D01*
G37*
G36*
X214926Y109925D02*X215156Y109656D01*
X215467Y109390D01*
X215816Y109176D01*
X216194Y109020D01*
X216592Y108924D01*
X217000Y108892D01*
X217408Y108924D01*
X217806Y109020D01*
X218184Y109176D01*
X218250Y109217D01*
Y22374D01*
X218038Y21862D01*
X217461Y19461D01*
X217268Y17000D01*
X217461Y14539D01*
X218038Y12138D01*
X218250Y11626D01*
Y2500D01*
X214926D01*
Y42560D01*
X214965Y42569D01*
X215183Y42659D01*
X215384Y42783D01*
X215564Y42936D01*
X215717Y43116D01*
X215841Y43317D01*
X215931Y43535D01*
X215986Y43765D01*
X216000Y44000D01*
X215986Y53235D01*
X215931Y53465D01*
X215841Y53683D01*
X215717Y53884D01*
X215564Y54064D01*
X215384Y54217D01*
X215183Y54341D01*
X214965Y54431D01*
X214926Y54440D01*
Y65303D01*
X214930Y65305D01*
X215033Y65364D01*
X215125Y65438D01*
X215204Y65525D01*
X215266Y65625D01*
X215511Y66112D01*
X215705Y66622D01*
X215852Y67148D01*
X215951Y67684D01*
X216000Y68227D01*
Y68773D01*
X215951Y69316D01*
X215852Y69852D01*
X215705Y70378D01*
X215511Y70888D01*
X215272Y71378D01*
X215208Y71478D01*
X215128Y71566D01*
X215035Y71640D01*
X214932Y71699D01*
X214926Y71702D01*
Y109925D01*
G37*
G36*
Y147500D02*X218250D01*
Y138374D01*
X218038Y137862D01*
X217461Y135461D01*
X217268Y133000D01*
X217461Y130539D01*
X218038Y128138D01*
X218250Y127626D01*
Y122431D01*
X218144Y122366D01*
X217869Y122131D01*
X217634Y121856D01*
X217444Y121547D01*
X217306Y121213D01*
X217221Y120861D01*
X217193Y120500D01*
X217200Y120410D01*
Y115377D01*
X215162Y113338D01*
X214926Y113073D01*
Y147500D01*
G37*
G36*
Y2500D02*X210000D01*
Y42507D01*
X214735Y42514D01*
X214926Y42560D01*
Y2500D01*
G37*
G36*
X210000Y147500D02*X214926D01*
Y113073D01*
X214890Y113033D01*
X214676Y112684D01*
X214520Y112306D01*
X214424Y111908D01*
X214392Y111500D01*
X214424Y111092D01*
X214520Y110694D01*
X214676Y110316D01*
X214890Y109967D01*
X214926Y109925D01*
Y71702D01*
X214821Y71742D01*
X214705Y71766D01*
X214587Y71772D01*
X214468Y71760D01*
X214354Y71729D01*
X214245Y71680D01*
X214146Y71615D01*
X214058Y71535D01*
X213983Y71443D01*
X213924Y71340D01*
X213882Y71229D01*
X213857Y71113D01*
X213851Y70994D01*
X213864Y70876D01*
X213895Y70761D01*
X213946Y70654D01*
X214129Y70289D01*
X214274Y69907D01*
X214384Y69513D01*
X214458Y69111D01*
X214495Y68704D01*
Y68296D01*
X214458Y67889D01*
X214384Y67487D01*
X214274Y67093D01*
X214129Y66711D01*
X213950Y66344D01*
X213900Y66237D01*
X213869Y66123D01*
X213856Y66006D01*
X213862Y65888D01*
X213886Y65772D01*
X213928Y65662D01*
X213987Y65560D01*
X214061Y65468D01*
X214149Y65389D01*
X214248Y65324D01*
X214355Y65276D01*
X214469Y65245D01*
X214587Y65232D01*
X214705Y65238D01*
X214820Y65263D01*
X214926Y65303D01*
Y54440D01*
X214735Y54486D01*
X214500Y54500D01*
X210000Y54493D01*
Y62500D01*
X210273D01*
X210816Y62549D01*
X211352Y62648D01*
X211878Y62795D01*
X212388Y62989D01*
X212878Y63228D01*
X212978Y63292D01*
X213066Y63372D01*
X213140Y63465D01*
X213199Y63568D01*
X213242Y63679D01*
X213266Y63795D01*
X213272Y63913D01*
X213260Y64032D01*
X213229Y64146D01*
X213180Y64255D01*
X213115Y64354D01*
X213035Y64442D01*
X212943Y64517D01*
X212840Y64576D01*
X212729Y64618D01*
X212613Y64643D01*
X212494Y64649D01*
X212376Y64636D01*
X212261Y64605D01*
X212154Y64554D01*
X211789Y64371D01*
X211407Y64226D01*
X211013Y64116D01*
X210611Y64042D01*
X210204Y64005D01*
X210000D01*
Y72995D01*
X210204D01*
X210611Y72958D01*
X211013Y72884D01*
X211407Y72774D01*
X211789Y72629D01*
X212156Y72450D01*
X212263Y72400D01*
X212377Y72369D01*
X212494Y72356D01*
X212612Y72362D01*
X212728Y72386D01*
X212838Y72428D01*
X212940Y72487D01*
X213032Y72561D01*
X213111Y72649D01*
X213176Y72748D01*
X213224Y72855D01*
X213255Y72969D01*
X213268Y73087D01*
X213262Y73205D01*
X213237Y73320D01*
X213195Y73430D01*
X213136Y73533D01*
X213062Y73625D01*
X212975Y73704D01*
X212875Y73766D01*
X212388Y74011D01*
X211878Y74205D01*
X211352Y74352D01*
X210816Y74451D01*
X210273Y74500D01*
X210000D01*
Y147500D01*
G37*
G36*
X205074Y42560D02*X205265Y42514D01*
X205500Y42500D01*
X210000Y42507D01*
Y2500D01*
X205074D01*
Y42560D01*
G37*
G36*
Y147500D02*X210000D01*
Y74500D01*
X209727D01*
X209184Y74451D01*
X208648Y74352D01*
X208122Y74205D01*
X207612Y74011D01*
X207122Y73772D01*
X207022Y73708D01*
X206934Y73628D01*
X206860Y73535D01*
X206801Y73432D01*
X206758Y73321D01*
X206734Y73205D01*
X206728Y73087D01*
X206740Y72968D01*
X206771Y72854D01*
X206820Y72745D01*
X206885Y72646D01*
X206965Y72558D01*
X207057Y72483D01*
X207160Y72424D01*
X207271Y72382D01*
X207387Y72357D01*
X207506Y72351D01*
X207624Y72364D01*
X207739Y72395D01*
X207846Y72446D01*
X208211Y72629D01*
X208593Y72774D01*
X208987Y72884D01*
X209389Y72958D01*
X209796Y72995D01*
X210000D01*
Y64005D01*
X209796D01*
X209389Y64042D01*
X208987Y64116D01*
X208593Y64226D01*
X208211Y64371D01*
X207844Y64550D01*
X207737Y64600D01*
X207623Y64631D01*
X207506Y64644D01*
X207388Y64638D01*
X207272Y64614D01*
X207162Y64572D01*
X207060Y64513D01*
X206968Y64439D01*
X206889Y64351D01*
X206824Y64252D01*
X206776Y64145D01*
X206745Y64031D01*
X206732Y63913D01*
X206738Y63795D01*
X206763Y63680D01*
X206805Y63570D01*
X206864Y63467D01*
X206938Y63375D01*
X207025Y63296D01*
X207125Y63234D01*
X207612Y62989D01*
X208122Y62795D01*
X208648Y62648D01*
X209184Y62549D01*
X209727Y62500D01*
X210000D01*
Y54493D01*
X205265Y54486D01*
X205074Y54440D01*
Y65298D01*
X205179Y65258D01*
X205295Y65234D01*
X205413Y65228D01*
X205532Y65240D01*
X205646Y65271D01*
X205755Y65320D01*
X205854Y65385D01*
X205942Y65465D01*
X206017Y65557D01*
X206076Y65660D01*
X206118Y65771D01*
X206143Y65887D01*
X206149Y66006D01*
X206136Y66124D01*
X206105Y66239D01*
X206054Y66346D01*
X205871Y66711D01*
X205726Y67093D01*
X205616Y67487D01*
X205542Y67889D01*
X205505Y68296D01*
Y68704D01*
X205542Y69111D01*
X205616Y69513D01*
X205726Y69907D01*
X205871Y70289D01*
X206050Y70656D01*
X206100Y70763D01*
X206131Y70877D01*
X206144Y70994D01*
X206138Y71112D01*
X206114Y71228D01*
X206072Y71338D01*
X206013Y71440D01*
X205939Y71532D01*
X205851Y71611D01*
X205752Y71676D01*
X205645Y71724D01*
X205531Y71755D01*
X205413Y71768D01*
X205295Y71762D01*
X205180Y71737D01*
X205074Y71697D01*
Y147500D01*
G37*
G36*
X170991D02*X205074D01*
Y71697D01*
X205070Y71695D01*
X204967Y71636D01*
X204875Y71562D01*
X204796Y71475D01*
X204734Y71375D01*
X204489Y70888D01*
X204295Y70378D01*
X204148Y69852D01*
X204049Y69316D01*
X204000Y68773D01*
Y68227D01*
X204049Y67684D01*
X204148Y67148D01*
X204295Y66622D01*
X204489Y66112D01*
X204728Y65622D01*
X204792Y65522D01*
X204872Y65434D01*
X204965Y65360D01*
X205068Y65301D01*
X205074Y65298D01*
Y54440D01*
X205035Y54431D01*
X204817Y54341D01*
X204616Y54217D01*
X204436Y54064D01*
X204283Y53884D01*
X204159Y53683D01*
X204069Y53465D01*
X204014Y53235D01*
X204000Y53000D01*
X204014Y43765D01*
X204069Y43535D01*
X204159Y43317D01*
X204283Y43116D01*
X204436Y42936D01*
X204616Y42783D01*
X204817Y42659D01*
X205035Y42569D01*
X205074Y42560D01*
Y2500D01*
X170991D01*
Y33982D01*
X171000Y33981D01*
X171942Y34056D01*
X172860Y34276D01*
X173732Y34637D01*
X174538Y35131D01*
X175256Y35744D01*
X175869Y36462D01*
X176363Y37268D01*
X176724Y38140D01*
X176944Y39058D01*
X177000Y40000D01*
X176944Y40942D01*
X176724Y41860D01*
X176363Y42732D01*
X175869Y43538D01*
X175256Y44256D01*
X174538Y44869D01*
X173732Y45363D01*
X172860Y45724D01*
X171942Y45944D01*
X171000Y46019D01*
X170991Y46018D01*
Y120257D01*
X171139Y120221D01*
X171500Y120193D01*
X171861Y120221D01*
X172213Y120306D01*
X172547Y120444D01*
X172856Y120634D01*
X173131Y120869D01*
X173366Y121144D01*
X173556Y121453D01*
X173694Y121787D01*
X173779Y122139D01*
X173800Y122500D01*
X173779Y122861D01*
X173694Y123213D01*
X173556Y123547D01*
X173366Y123856D01*
X173131Y124131D01*
X172856Y124366D01*
X172547Y124556D01*
X172213Y124694D01*
X171861Y124779D01*
X171500Y124807D01*
X171139Y124779D01*
X170991Y124743D01*
Y147500D01*
G37*
G36*
Y2500D02*X162496D01*
Y121000D01*
X169756D01*
X169869Y120869D01*
X170144Y120634D01*
X170453Y120444D01*
X170787Y120306D01*
X170991Y120257D01*
Y46018D01*
X170058Y45944D01*
X169140Y45724D01*
X168268Y45363D01*
X167462Y44869D01*
X166744Y44256D01*
X166131Y43538D01*
X165637Y42732D01*
X165276Y41860D01*
X165056Y40942D01*
X164981Y40000D01*
X165056Y39058D01*
X165276Y38140D01*
X165637Y37268D01*
X166131Y36462D01*
X166744Y35744D01*
X167462Y35131D01*
X168268Y34637D01*
X169140Y34276D01*
X170058Y34056D01*
X170991Y33982D01*
Y2500D01*
G37*
G36*
X162496Y147500D02*X170991D01*
Y124743D01*
X170787Y124694D01*
X170453Y124556D01*
X170144Y124366D01*
X169869Y124131D01*
X169756Y124000D01*
X162496D01*
Y147500D01*
G37*
G36*
X150991D02*X162496D01*
Y124000D01*
X157559D01*
X157500Y124005D01*
X157265Y123986D01*
X157035Y123931D01*
X156817Y123841D01*
X156616Y123717D01*
X156615Y123717D01*
X156436Y123564D01*
X156398Y123519D01*
X153672Y120794D01*
X153500Y120807D01*
X153139Y120779D01*
X152787Y120694D01*
X152453Y120556D01*
X152144Y120366D01*
X151869Y120131D01*
X151634Y119856D01*
X151444Y119547D01*
X151306Y119213D01*
X151221Y118861D01*
X151193Y118500D01*
X151221Y118139D01*
X151306Y117787D01*
X151444Y117453D01*
X151634Y117144D01*
X151869Y116869D01*
X152144Y116634D01*
X152453Y116444D01*
X152787Y116306D01*
X153139Y116221D01*
X153500Y116193D01*
X153861Y116221D01*
X154213Y116306D01*
X154547Y116444D01*
X154856Y116634D01*
X155131Y116869D01*
X155366Y117144D01*
X155556Y117453D01*
X155694Y117787D01*
X155779Y118139D01*
X155800Y118500D01*
X155790Y118669D01*
X158121Y121000D01*
X162496D01*
Y2500D01*
X150991D01*
Y33982D01*
X151000Y33981D01*
X151942Y34056D01*
X152860Y34276D01*
X153732Y34637D01*
X154538Y35131D01*
X155256Y35744D01*
X155869Y36462D01*
X156363Y37268D01*
X156724Y38140D01*
X156944Y39058D01*
X157000Y40000D01*
X156944Y40942D01*
X156724Y41860D01*
X156363Y42732D01*
X155869Y43538D01*
X155256Y44256D01*
X154538Y44869D01*
X153732Y45363D01*
X152860Y45724D01*
X151942Y45944D01*
X151000Y46019D01*
X150991Y46018D01*
Y147500D01*
G37*
G36*
X130991D02*X150991D01*
Y46018D01*
X150058Y45944D01*
X149140Y45724D01*
X148268Y45363D01*
X147462Y44869D01*
X146744Y44256D01*
X146131Y43538D01*
X145637Y42732D01*
X145276Y41860D01*
X145056Y40942D01*
X144981Y40000D01*
X145056Y39058D01*
X145276Y38140D01*
X145637Y37268D01*
X146131Y36462D01*
X146744Y35744D01*
X147462Y35131D01*
X148268Y34637D01*
X149140Y34276D01*
X150058Y34056D01*
X150991Y33982D01*
Y2500D01*
X130991D01*
Y33982D01*
X131000Y33981D01*
X131942Y34056D01*
X132860Y34276D01*
X133732Y34637D01*
X134538Y35131D01*
X135256Y35744D01*
X135869Y36462D01*
X136363Y37268D01*
X136724Y38140D01*
X136944Y39058D01*
X137000Y40000D01*
X136944Y40942D01*
X136724Y41860D01*
X136363Y42732D01*
X135869Y43538D01*
X135256Y44256D01*
X134538Y44869D01*
X133732Y45363D01*
X132860Y45724D01*
X131942Y45944D01*
X131000Y46019D01*
X130991Y46018D01*
Y147500D01*
G37*
G36*
X111000D02*X130991D01*
Y46018D01*
X130058Y45944D01*
X129140Y45724D01*
X128268Y45363D01*
X127462Y44869D01*
X126744Y44256D01*
X126131Y43538D01*
X125637Y42732D01*
X125276Y41860D01*
X125056Y40942D01*
X124981Y40000D01*
X125056Y39058D01*
X125276Y38140D01*
X125637Y37268D01*
X126131Y36462D01*
X126744Y35744D01*
X127462Y35131D01*
X128268Y34637D01*
X129140Y34276D01*
X130058Y34056D01*
X130991Y33982D01*
Y2500D01*
X111000D01*
Y34007D01*
X115735Y34014D01*
X115965Y34069D01*
X116183Y34159D01*
X116384Y34283D01*
X116564Y34436D01*
X116717Y34616D01*
X116841Y34817D01*
X116931Y35035D01*
X116986Y35265D01*
X117000Y35500D01*
X116986Y44735D01*
X116931Y44965D01*
X116841Y45183D01*
X116717Y45384D01*
X116564Y45564D01*
X116384Y45717D01*
X116183Y45841D01*
X115965Y45931D01*
X115735Y45986D01*
X115500Y46000D01*
X111000Y45993D01*
Y147500D01*
G37*
G36*
X103750D02*X111000D01*
Y45993D01*
X106265Y45986D01*
X106035Y45931D01*
X105817Y45841D01*
X105616Y45717D01*
X105436Y45564D01*
X105283Y45384D01*
X105159Y45183D01*
X105069Y44965D01*
X105014Y44735D01*
X105000Y44500D01*
X105014Y35265D01*
X105069Y35035D01*
X105159Y34817D01*
X105283Y34616D01*
X105436Y34436D01*
X105616Y34283D01*
X105817Y34159D01*
X106035Y34069D01*
X106265Y34014D01*
X106500Y34000D01*
X111000Y34007D01*
Y2500D01*
X103750D01*
Y106248D01*
X103868Y106257D01*
X103982Y106285D01*
X104092Y106330D01*
X104192Y106391D01*
X104282Y106468D01*
X104359Y106558D01*
X104420Y106658D01*
X104465Y106768D01*
X104493Y106882D01*
X104500Y107000D01*
Y113000D01*
X104493Y113118D01*
X104465Y113232D01*
X104420Y113342D01*
X104359Y113442D01*
X104282Y113532D01*
X104192Y113609D01*
X104092Y113670D01*
X103982Y113715D01*
X103868Y113743D01*
X103750Y113752D01*
Y147500D01*
G37*
G36*
X98500D02*X103750D01*
Y113752D01*
X103632Y113743D01*
X103518Y113715D01*
X103408Y113670D01*
X103308Y113609D01*
X103218Y113532D01*
X103141Y113442D01*
X103080Y113342D01*
X103035Y113232D01*
X103007Y113118D01*
X103000Y113000D01*
Y107000D01*
X103007Y106882D01*
X103035Y106768D01*
X103080Y106658D01*
X103141Y106558D01*
X103218Y106468D01*
X103308Y106391D01*
X103408Y106330D01*
X103518Y106285D01*
X103632Y106257D01*
X103750Y106248D01*
Y2500D01*
X98500D01*
Y104000D01*
X101500D01*
X101618Y104007D01*
X101732Y104035D01*
X101842Y104080D01*
X101942Y104141D01*
X102032Y104218D01*
X102109Y104308D01*
X102170Y104408D01*
X102215Y104518D01*
X102243Y104632D01*
X102252Y104750D01*
X102243Y104868D01*
X102215Y104982D01*
X102170Y105092D01*
X102109Y105192D01*
X102032Y105282D01*
X101942Y105359D01*
X101842Y105420D01*
X101732Y105465D01*
X101618Y105493D01*
X101500Y105500D01*
X98500D01*
Y114500D01*
X101500D01*
X101618Y114507D01*
X101732Y114535D01*
X101842Y114580D01*
X101942Y114641D01*
X102032Y114718D01*
X102109Y114808D01*
X102170Y114908D01*
X102215Y115018D01*
X102243Y115132D01*
X102252Y115250D01*
X102243Y115368D01*
X102215Y115482D01*
X102170Y115592D01*
X102109Y115692D01*
X102032Y115782D01*
X101942Y115859D01*
X101842Y115920D01*
X101732Y115965D01*
X101618Y115993D01*
X101500Y116000D01*
X98500D01*
Y147500D01*
G37*
G36*
X93250D02*X98500D01*
Y116000D01*
X95500D01*
X95382Y115993D01*
X95268Y115965D01*
X95158Y115920D01*
X95058Y115859D01*
X94968Y115782D01*
X94891Y115692D01*
X94830Y115592D01*
X94785Y115482D01*
X94757Y115368D01*
X94748Y115250D01*
X94757Y115132D01*
X94785Y115018D01*
X94830Y114908D01*
X94891Y114808D01*
X94968Y114718D01*
X95058Y114641D01*
X95158Y114580D01*
X95268Y114535D01*
X95382Y114507D01*
X95500Y114500D01*
X98500D01*
Y105500D01*
X95500D01*
X95382Y105493D01*
X95268Y105465D01*
X95158Y105420D01*
X95058Y105359D01*
X94968Y105282D01*
X94891Y105192D01*
X94830Y105092D01*
X94785Y104982D01*
X94757Y104868D01*
X94748Y104750D01*
X94757Y104632D01*
X94785Y104518D01*
X94830Y104408D01*
X94891Y104308D01*
X94968Y104218D01*
X95058Y104141D01*
X95158Y104080D01*
X95268Y104035D01*
X95382Y104007D01*
X95500Y104000D01*
X98500D01*
Y2500D01*
X93250D01*
Y106248D01*
X93368Y106257D01*
X93482Y106285D01*
X93592Y106330D01*
X93692Y106391D01*
X93782Y106468D01*
X93859Y106558D01*
X93920Y106658D01*
X93965Y106768D01*
X93993Y106882D01*
X94000Y107000D01*
Y113000D01*
X93993Y113118D01*
X93965Y113232D01*
X93920Y113342D01*
X93859Y113442D01*
X93782Y113532D01*
X93692Y113609D01*
X93592Y113670D01*
X93482Y113715D01*
X93368Y113743D01*
X93250Y113752D01*
Y147500D01*
G37*
G36*
X78500D02*X93250D01*
Y113752D01*
X93132Y113743D01*
X93018Y113715D01*
X92908Y113670D01*
X92808Y113609D01*
X92718Y113532D01*
X92641Y113442D01*
X92580Y113342D01*
X92535Y113232D01*
X92507Y113118D01*
X92500Y113000D01*
Y107000D01*
X92507Y106882D01*
X92535Y106768D01*
X92580Y106658D01*
X92641Y106558D01*
X92718Y106468D01*
X92808Y106391D01*
X92908Y106330D01*
X93018Y106285D01*
X93132Y106257D01*
X93250Y106248D01*
Y2500D01*
X78500D01*
Y103981D01*
X79442Y104056D01*
X80360Y104276D01*
X81232Y104637D01*
X82038Y105131D01*
X82756Y105744D01*
X83369Y106462D01*
X83863Y107268D01*
X84224Y108140D01*
X84444Y109058D01*
X84500Y110000D01*
X84444Y110942D01*
X84224Y111860D01*
X83863Y112732D01*
X83369Y113538D01*
X82756Y114256D01*
X82038Y114869D01*
X81232Y115363D01*
X80360Y115724D01*
X79442Y115944D01*
X78500Y116019D01*
Y147500D01*
G37*
G36*
X91000D02*Y2500D01*
X78491D01*
Y103982D01*
X78500Y103981D01*
X79442Y104056D01*
X80360Y104276D01*
X81232Y104637D01*
X82038Y105131D01*
X82756Y105744D01*
X83369Y106462D01*
X83863Y107268D01*
X84224Y108140D01*
X84444Y109058D01*
X84500Y110000D01*
X84444Y110942D01*
X84224Y111860D01*
X83863Y112732D01*
X83369Y113538D01*
X82756Y114256D01*
X82038Y114869D01*
X81232Y115363D01*
X80360Y115724D01*
X79442Y115944D01*
X78500Y116019D01*
X78491Y116018D01*
Y147500D01*
X91000D01*
G37*
G36*
X78491Y2500D02*X57192D01*
Y8835D01*
X57200Y8834D01*
X58008Y8898D01*
X58796Y9087D01*
X59545Y9397D01*
X60236Y9821D01*
X60853Y10347D01*
X61379Y10964D01*
X61803Y11655D01*
X62113Y12404D01*
X62302Y13192D01*
X62350Y14000D01*
X62302Y14808D01*
X62113Y15596D01*
X61803Y16345D01*
X61379Y17036D01*
X60853Y17653D01*
X60236Y18179D01*
X59545Y18603D01*
X58796Y18913D01*
X58008Y19102D01*
X57200Y19166D01*
X57192Y19165D01*
Y47835D01*
X57200Y47834D01*
X58008Y47898D01*
X58796Y48087D01*
X59545Y48397D01*
X60236Y48821D01*
X60853Y49347D01*
X61379Y49964D01*
X61803Y50655D01*
X62113Y51404D01*
X62302Y52192D01*
X62350Y53000D01*
X62302Y53808D01*
X62113Y54596D01*
X61803Y55345D01*
X61379Y56036D01*
X60853Y56653D01*
X60236Y57179D01*
X59545Y57603D01*
X58796Y57913D01*
X58008Y58102D01*
X57200Y58166D01*
X57192Y58165D01*
Y147500D01*
X78491D01*
Y116018D01*
X77558Y115944D01*
X76640Y115724D01*
X75768Y115363D01*
X74962Y114869D01*
X74244Y114256D01*
X73631Y113538D01*
X73137Y112732D01*
X72776Y111860D01*
X72556Y110942D01*
X72481Y110000D01*
X72556Y109058D01*
X72776Y108140D01*
X73137Y107268D01*
X73631Y106462D01*
X74244Y105744D01*
X74962Y105131D01*
X75768Y104637D01*
X76640Y104276D01*
X77558Y104056D01*
X78491Y103982D01*
Y2500D01*
G37*
G36*
X57192D02*X45250D01*
Y9052D01*
X45396Y9087D01*
X46145Y9397D01*
X46836Y9821D01*
X47453Y10347D01*
X47979Y10964D01*
X48403Y11655D01*
X48713Y12404D01*
X48902Y13192D01*
X48950Y14000D01*
X48902Y14808D01*
X48713Y15596D01*
X48403Y16345D01*
X47979Y17036D01*
X47453Y17653D01*
X46836Y18179D01*
X46145Y18603D01*
X45396Y18913D01*
X45250Y18948D01*
Y48052D01*
X45396Y48087D01*
X46145Y48397D01*
X46836Y48821D01*
X47453Y49347D01*
X47979Y49964D01*
X48403Y50655D01*
X48713Y51404D01*
X48902Y52192D01*
X48950Y53000D01*
X48902Y53808D01*
X48713Y54596D01*
X48403Y55345D01*
X47979Y56036D01*
X47453Y56653D01*
X46836Y57179D01*
X46145Y57603D01*
X45396Y57913D01*
X45250Y57948D01*
Y79084D01*
X45363Y79268D01*
X45724Y80140D01*
X45944Y81058D01*
X46000Y82000D01*
X45944Y82942D01*
X45724Y83860D01*
X45363Y84732D01*
X45250Y84916D01*
Y98248D01*
X45368Y98257D01*
X45482Y98285D01*
X45592Y98330D01*
X45692Y98391D01*
X45782Y98468D01*
X45859Y98558D01*
X45920Y98658D01*
X45965Y98768D01*
X45993Y98882D01*
X46000Y99000D01*
Y105000D01*
X45993Y105118D01*
X45965Y105232D01*
X45920Y105342D01*
X45859Y105442D01*
X45782Y105532D01*
X45692Y105609D01*
X45592Y105670D01*
X45482Y105715D01*
X45368Y105743D01*
X45250Y105752D01*
Y147500D01*
X57192D01*
Y58165D01*
X56392Y58102D01*
X55604Y57913D01*
X54855Y57603D01*
X54164Y57179D01*
X53547Y56653D01*
X53021Y56036D01*
X52597Y55345D01*
X52287Y54596D01*
X52098Y53808D01*
X52034Y53000D01*
X52098Y52192D01*
X52287Y51404D01*
X52597Y50655D01*
X53021Y49964D01*
X53547Y49347D01*
X54164Y48821D01*
X54855Y48397D01*
X55604Y48087D01*
X56392Y47898D01*
X57192Y47835D01*
Y19165D01*
X56392Y19102D01*
X55604Y18913D01*
X54855Y18603D01*
X54164Y18179D01*
X53547Y17653D01*
X53021Y17036D01*
X52597Y16345D01*
X52287Y15596D01*
X52098Y14808D01*
X52034Y14000D01*
X52098Y13192D01*
X52287Y12404D01*
X52597Y11655D01*
X53021Y10964D01*
X53547Y10347D01*
X54164Y9821D01*
X54855Y9397D01*
X55604Y9087D01*
X56392Y8898D01*
X57192Y8835D01*
Y2500D01*
G37*
G36*
X45250Y84916D02*X44869Y85538D01*
X44256Y86256D01*
X43792Y86652D01*
Y147500D01*
X45250D01*
Y105752D01*
X45132Y105743D01*
X45018Y105715D01*
X44908Y105670D01*
X44808Y105609D01*
X44718Y105532D01*
X44641Y105442D01*
X44580Y105342D01*
X44535Y105232D01*
X44507Y105118D01*
X44500Y105000D01*
Y99000D01*
X44507Y98882D01*
X44535Y98768D01*
X44580Y98658D01*
X44641Y98558D01*
X44718Y98468D01*
X44808Y98391D01*
X44908Y98330D01*
X45018Y98285D01*
X45132Y98257D01*
X45250Y98248D01*
Y84916D01*
G37*
G36*
Y57948D02*X44608Y58102D01*
X43800Y58166D01*
X43792Y58165D01*
Y77348D01*
X44256Y77744D01*
X44869Y78462D01*
X45250Y79084D01*
Y57948D01*
G37*
G36*
Y18948D02*X44608Y19102D01*
X43800Y19166D01*
X43792Y19165D01*
Y47835D01*
X43800Y47834D01*
X44608Y47898D01*
X45250Y48052D01*
Y18948D01*
G37*
G36*
Y2500D02*X43792D01*
Y8835D01*
X43800Y8834D01*
X44608Y8898D01*
X45250Y9052D01*
Y2500D01*
G37*
G36*
X40000Y49519D02*X40147Y49347D01*
X40764Y48821D01*
X41455Y48397D01*
X42204Y48087D01*
X42992Y47898D01*
X43792Y47835D01*
Y19165D01*
X42992Y19102D01*
X42204Y18913D01*
X41455Y18603D01*
X40764Y18179D01*
X40147Y17653D01*
X40000Y17481D01*
Y49519D01*
G37*
G36*
Y75981D02*X40942Y76056D01*
X41860Y76276D01*
X42732Y76637D01*
X43538Y77131D01*
X43792Y77348D01*
Y58165D01*
X42992Y58102D01*
X42204Y57913D01*
X41455Y57603D01*
X40764Y57179D01*
X40147Y56653D01*
X40000Y56481D01*
Y75981D01*
G37*
G36*
Y147500D02*X43792D01*
Y86652D01*
X43538Y86869D01*
X42732Y87363D01*
X41860Y87724D01*
X40942Y87944D01*
X40000Y88019D01*
Y96000D01*
X43000D01*
X43118Y96007D01*
X43232Y96035D01*
X43342Y96080D01*
X43442Y96141D01*
X43532Y96218D01*
X43609Y96308D01*
X43670Y96408D01*
X43715Y96518D01*
X43743Y96632D01*
X43752Y96750D01*
X43743Y96868D01*
X43715Y96982D01*
X43670Y97092D01*
X43609Y97192D01*
X43532Y97282D01*
X43442Y97359D01*
X43342Y97420D01*
X43232Y97465D01*
X43118Y97493D01*
X43000Y97500D01*
X40000D01*
Y106500D01*
X43000D01*
X43118Y106507D01*
X43232Y106535D01*
X43342Y106580D01*
X43442Y106641D01*
X43532Y106718D01*
X43609Y106808D01*
X43670Y106908D01*
X43715Y107018D01*
X43743Y107132D01*
X43752Y107250D01*
X43743Y107368D01*
X43715Y107482D01*
X43670Y107592D01*
X43609Y107692D01*
X43532Y107782D01*
X43442Y107859D01*
X43342Y107920D01*
X43232Y107965D01*
X43118Y107993D01*
X43000Y108000D01*
X40000D01*
Y147500D01*
G37*
G36*
X43792Y2500D02*X40000D01*
Y10519D01*
X40147Y10347D01*
X40764Y9821D01*
X41455Y9397D01*
X42204Y9087D01*
X42992Y8898D01*
X43792Y8835D01*
Y2500D01*
G37*
G36*
X34750Y147500D02*X40000D01*
Y108000D01*
X37000D01*
X36882Y107993D01*
X36768Y107965D01*
X36658Y107920D01*
X36558Y107859D01*
X36468Y107782D01*
X36391Y107692D01*
X36330Y107592D01*
X36285Y107482D01*
X36257Y107368D01*
X36248Y107250D01*
X36257Y107132D01*
X36285Y107018D01*
X36330Y106908D01*
X36391Y106808D01*
X36468Y106718D01*
X36558Y106641D01*
X36658Y106580D01*
X36768Y106535D01*
X36882Y106507D01*
X37000Y106500D01*
X40000D01*
Y97500D01*
X37000D01*
X36882Y97493D01*
X36768Y97465D01*
X36658Y97420D01*
X36558Y97359D01*
X36468Y97282D01*
X36391Y97192D01*
X36330Y97092D01*
X36285Y96982D01*
X36257Y96868D01*
X36248Y96750D01*
X36257Y96632D01*
X36285Y96518D01*
X36330Y96408D01*
X36391Y96308D01*
X36468Y96218D01*
X36558Y96141D01*
X36658Y96080D01*
X36768Y96035D01*
X36882Y96007D01*
X37000Y96000D01*
X40000D01*
Y88019D01*
X39058Y87944D01*
X38140Y87724D01*
X37268Y87363D01*
X36462Y86869D01*
X35744Y86256D01*
X35131Y85538D01*
X34750Y84916D01*
Y98248D01*
X34868Y98257D01*
X34982Y98285D01*
X35092Y98330D01*
X35192Y98391D01*
X35282Y98468D01*
X35359Y98558D01*
X35420Y98658D01*
X35465Y98768D01*
X35493Y98882D01*
X35500Y99000D01*
Y105000D01*
X35493Y105118D01*
X35465Y105232D01*
X35420Y105342D01*
X35359Y105442D01*
X35282Y105532D01*
X35192Y105609D01*
X35092Y105670D01*
X34982Y105715D01*
X34868Y105743D01*
X34750Y105752D01*
Y147500D01*
G37*
G36*
X40000Y2500D02*X34750D01*
Y79084D01*
X35131Y78462D01*
X35744Y77744D01*
X36462Y77131D01*
X37268Y76637D01*
X38140Y76276D01*
X39058Y76056D01*
X40000Y75981D01*
Y56481D01*
X39621Y56036D01*
X39197Y55345D01*
X38887Y54596D01*
X38698Y53808D01*
X38634Y53000D01*
X38698Y52192D01*
X38887Y51404D01*
X39197Y50655D01*
X39621Y49964D01*
X40000Y49519D01*
Y17481D01*
X39621Y17036D01*
X39197Y16345D01*
X38887Y15596D01*
X38698Y14808D01*
X38634Y14000D01*
X38698Y13192D01*
X38887Y12404D01*
X39197Y11655D01*
X39621Y10964D01*
X40000Y10519D01*
Y2500D01*
G37*
G36*
X34750D02*X22978D01*
X24142Y2982D01*
X26247Y4272D01*
X28124Y5876D01*
X29728Y7753D01*
X31018Y9858D01*
X31962Y12138D01*
X32539Y14539D01*
X32684Y17000D01*
X32539Y19461D01*
X31962Y21862D01*
X31018Y24142D01*
X29728Y26247D01*
X28124Y28124D01*
X26247Y29728D01*
X24142Y31018D01*
X21862Y31962D01*
X19461Y32539D01*
X17000Y32732D01*
X14539Y32539D01*
X12138Y31962D01*
X10000Y31077D01*
Y118923D01*
X12138Y118038D01*
X14539Y117461D01*
X17000Y117268D01*
X19461Y117461D01*
X21862Y118038D01*
X24142Y118982D01*
X26247Y120272D01*
X28124Y121876D01*
X29728Y123753D01*
X31018Y125858D01*
X31962Y128138D01*
X32539Y130539D01*
X32684Y133000D01*
X32539Y135461D01*
X31962Y137862D01*
X31018Y140142D01*
X29728Y142247D01*
X28124Y144124D01*
X26247Y145728D01*
X24142Y147018D01*
X22978Y147500D01*
X34750D01*
Y105752D01*
X34632Y105743D01*
X34518Y105715D01*
X34408Y105670D01*
X34308Y105609D01*
X34218Y105532D01*
X34141Y105442D01*
X34080Y105342D01*
X34035Y105232D01*
X34007Y105118D01*
X34000Y105000D01*
Y99000D01*
X34007Y98882D01*
X34035Y98768D01*
X34080Y98658D01*
X34141Y98558D01*
X34218Y98468D01*
X34308Y98391D01*
X34408Y98330D01*
X34518Y98285D01*
X34632Y98257D01*
X34750Y98248D01*
Y84916D01*
X34637Y84732D01*
X34276Y83860D01*
X34056Y82942D01*
X33981Y82000D01*
X34056Y81058D01*
X34276Y80140D01*
X34637Y79268D01*
X34750Y79084D01*
Y2500D01*
G37*
G54D24*X217000Y111500D02*X219500Y114000D01*
Y120500D01*
X162000Y122500D02*X157500D01*
X171500D02*X157500D01*
X153500Y118500D01*
G54D25*X17000Y17000D03*
G54D23*G36*
X106500Y44500D02*Y35500D01*
X115500D01*
Y44500D01*
X106500D01*
G37*
G54D26*X57200Y53000D03*
X43800D03*
X57200Y14000D03*
X43800D03*
G54D25*X233000Y133000D03*
Y17000D03*
G54D23*G36*
X205500Y53000D02*Y44000D01*
X214500D01*
Y53000D01*
X205500D01*
G37*
G54D27*X210000Y68500D03*
X131000Y40000D03*
G54D23*G36*
X94000Y114500D02*Y105500D01*
X103000D01*
Y114500D01*
X94000D01*
G37*
G54D27*X78500Y110000D03*
X151000Y40000D03*
X171000D03*
G54D25*X17000Y133000D03*
G54D23*G36*
X35500Y106500D02*Y97500D01*
X44500D01*
Y106500D01*
X35500D01*
G37*
G54D27*X40000Y82000D03*
G54D28*X172000Y99500D03*
X165000D03*
X168500D03*
X165000Y96000D03*
Y92500D03*
X175500Y99500D03*
X190000D03*
X189000Y83500D03*
X82500Y5500D03*
X91500Y11500D03*
X192500Y83500D03*
X208500Y25000D03*
Y20500D03*
X184000Y123500D03*
X177000D03*
X180500D03*
X171500Y122500D03*
X153500Y118500D03*
X187500Y123500D03*
X191000D03*
X219500Y120500D03*
X217000Y111500D03*
G54D29*G54D30*G54D31*G54D32*G54D30*G54D31*G54D30*G54D31*M02*
