G04 start of page 12 for group -3984 idx -3984 *
G04 Title: (unknown), fab *
G04 Creator: pcb 4.0.2 *
G04 CreationDate: Thu Apr 18 02:51:52 2019 UTC *
G04 For: ndholmes *
G04 Format: Gerber/RS-274X *
G04 PCB-Dimensions (mil): 2500.00 1500.00 *
G04 PCB-Coordinate-Origin: lower left *
%MOIN*%
%FSLAX25Y25*%
%LNFAB*%
%ADD54C,0.0100*%
%ADD53C,0.0075*%
%ADD52C,0.0060*%
%ADD51R,0.0080X0.0080*%
G54D51*X232200Y133000D02*G75*G03X233800Y133000I800J0D01*G01*
G75*G03X232200Y133000I-800J0D01*G01*
X16200Y17000D02*G75*G03X17800Y17000I800J0D01*G01*
G75*G03X16200Y17000I-800J0D01*G01*
Y133000D02*G75*G03X17800Y133000I800J0D01*G01*
G75*G03X16200Y133000I-800J0D01*G01*
X232200Y17000D02*G75*G03X233800Y17000I800J0D01*G01*
G75*G03X232200Y17000I-800J0D01*G01*
X14200Y161250D02*G75*G03X15800Y161250I800J0D01*G01*
G75*G03X14200Y161250I-800J0D01*G01*
G54D52*X135000Y163500D02*X136500Y160500D01*
X138000Y163500D01*
X136500Y160500D02*Y157500D01*
X139800Y160800D02*X142050D01*
X139800Y157500D02*X142800D01*
X139800Y163500D02*Y157500D01*
Y163500D02*X142800D01*
X147600D02*X148350Y162750D01*
X145350Y163500D02*X147600D01*
X144600Y162750D02*X145350Y163500D01*
X144600Y162750D02*Y161250D01*
X145350Y160500D01*
X147600D01*
X148350Y159750D01*
Y158250D01*
X147600Y157500D02*X148350Y158250D01*
X145350Y157500D02*X147600D01*
X144600Y158250D02*X145350Y157500D01*
X98000Y159750D02*X101000Y163500D01*
X98000Y159750D02*X101750D01*
X101000Y163500D02*Y157500D01*
X45000Y158250D02*X45750Y157500D01*
X45000Y162750D02*Y158250D01*
Y162750D02*X45750Y163500D01*
X47250D01*
X48000Y162750D01*
Y158250D01*
X47250Y157500D02*X48000Y158250D01*
X45750Y157500D02*X47250D01*
X45000Y159000D02*X48000Y162000D01*
X49800Y157500D02*X50550D01*
X52350Y162300D02*X53550Y163500D01*
Y157500D01*
X52350D02*X54600D01*
X56400Y162750D02*X57150Y163500D01*
X59400D01*
X60150Y162750D01*
Y161250D01*
X56400Y157500D02*X60150Y161250D01*
X56400Y157500D02*X60150D01*
X62700D02*X64950Y160500D01*
Y162750D02*Y160500D01*
X64200Y163500D02*X64950Y162750D01*
X62700Y163500D02*X64200D01*
X61950Y162750D02*X62700Y163500D01*
X61950Y162750D02*Y161250D01*
X62700Y160500D01*
X64950D01*
X56000Y54200D02*X58400Y51800D01*
X56000D02*X58400Y54200D01*
X42600D02*X45000Y51800D01*
X42600D02*X45000Y54200D01*
X56000Y15200D02*X58400Y12800D01*
X56000D02*X58400Y15200D01*
X42600D02*X45000Y12800D01*
X42600D02*X45000Y15200D01*
X13800Y177450D02*X16200Y175050D01*
X13800D02*X16200Y177450D01*
X135000Y178500D02*X136500Y175500D01*
X138000Y178500D01*
X136500Y175500D02*Y172500D01*
X139800Y175800D02*X142050D01*
X139800Y172500D02*X142800D01*
X139800Y178500D02*Y172500D01*
Y178500D02*X142800D01*
X147600D02*X148350Y177750D01*
X145350Y178500D02*X147600D01*
X144600Y177750D02*X145350Y178500D01*
X144600Y177750D02*Y176250D01*
X145350Y175500D01*
X147600D01*
X148350Y174750D01*
Y173250D01*
X147600Y172500D02*X148350Y173250D01*
X145350Y172500D02*X147600D01*
X144600Y173250D02*X145350Y172500D01*
X98000Y174750D02*X101000Y178500D01*
X98000Y174750D02*X101750D01*
X101000Y178500D02*Y172500D01*
X45000Y173250D02*X45750Y172500D01*
X45000Y177750D02*Y173250D01*
Y177750D02*X45750Y178500D01*
X47250D01*
X48000Y177750D01*
Y173250D01*
X47250Y172500D02*X48000Y173250D01*
X45750Y172500D02*X47250D01*
X45000Y174000D02*X48000Y177000D01*
X49800Y172500D02*X50550D01*
X52350Y173250D02*X53100Y172500D01*
X52350Y177750D02*Y173250D01*
Y177750D02*X53100Y178500D01*
X54600D01*
X55350Y177750D01*
Y173250D01*
X54600Y172500D02*X55350Y173250D01*
X53100Y172500D02*X54600D01*
X52350Y174000D02*X55350Y177000D01*
X59400Y178500D02*X60150Y177750D01*
X57900Y178500D02*X59400D01*
X57150Y177750D02*X57900Y178500D01*
X57150Y177750D02*Y173250D01*
X57900Y172500D01*
X59400Y175800D02*X60150Y175050D01*
X57150Y175800D02*X59400D01*
X57900Y172500D02*X59400D01*
X60150Y173250D01*
Y175050D02*Y173250D01*
X61950Y177750D02*X62700Y178500D01*
X64200D01*
X64950Y177750D01*
X64200Y172500D02*X64950Y173250D01*
X62700Y172500D02*X64200D01*
X61950Y173250D02*X62700Y172500D01*
Y175800D02*X64200D01*
X64950Y177750D02*Y176550D01*
Y175050D02*Y173250D01*
Y175050D02*X64200Y175800D01*
X64950Y176550D02*X64200Y175800D01*
X210000Y50100D02*Y46900D01*
X208400Y48500D02*X211600D01*
X210000Y70100D02*Y66900D01*
X208400Y68500D02*X211600D01*
X111000Y41600D02*Y38400D01*
X109400Y40000D02*X112600D01*
X131000Y41600D02*Y38400D01*
X129400Y40000D02*X132600D01*
X151000Y41600D02*Y38400D01*
X149400Y40000D02*X152600D01*
X171000Y41600D02*Y38400D01*
X169400Y40000D02*X172600D01*
X40000Y103600D02*Y100400D01*
X38400Y102000D02*X41600D01*
X40000Y83600D02*Y80400D01*
X38400Y82000D02*X41600D01*
X98500Y111600D02*Y108400D01*
X96900Y110000D02*X100100D01*
X78500Y111600D02*Y108400D01*
X76900Y110000D02*X80100D01*
X15000Y192850D02*Y189650D01*
X13400Y191250D02*X16600D01*
X135000Y193500D02*X136500Y190500D01*
X138000Y193500D01*
X136500Y190500D02*Y187500D01*
X139800Y190800D02*X142050D01*
X139800Y187500D02*X142800D01*
X139800Y193500D02*Y187500D01*
Y193500D02*X142800D01*
X147600D02*X148350Y192750D01*
X145350Y193500D02*X147600D01*
X144600Y192750D02*X145350Y193500D01*
X144600Y192750D02*Y191250D01*
X145350Y190500D01*
X147600D01*
X148350Y189750D01*
Y188250D01*
X147600Y187500D02*X148350Y188250D01*
X145350Y187500D02*X147600D01*
X144600Y188250D02*X145350Y187500D01*
X98000Y192300D02*X99200Y193500D01*
Y187500D01*
X98000D02*X100250D01*
X102050Y188250D02*X102800Y187500D01*
X102050Y192750D02*Y188250D01*
Y192750D02*X102800Y193500D01*
X104300D01*
X105050Y192750D01*
Y188250D01*
X104300Y187500D02*X105050Y188250D01*
X102800Y187500D02*X104300D01*
X102050Y189000D02*X105050Y192000D01*
X45000Y188250D02*X45750Y187500D01*
X45000Y192750D02*Y188250D01*
Y192750D02*X45750Y193500D01*
X47250D01*
X48000Y192750D01*
Y188250D01*
X47250Y187500D02*X48000Y188250D01*
X45750Y187500D02*X47250D01*
X45000Y189000D02*X48000Y192000D01*
X49800Y187500D02*X50550D01*
X52350Y188250D02*X53100Y187500D01*
X52350Y192750D02*Y188250D01*
Y192750D02*X53100Y193500D01*
X54600D01*
X55350Y192750D01*
Y188250D01*
X54600Y187500D02*X55350Y188250D01*
X53100Y187500D02*X54600D01*
X52350Y189000D02*X55350Y192000D01*
X57150Y193500D02*X60150D01*
X57150D02*Y190500D01*
X57900Y191250D01*
X59400D01*
X60150Y190500D01*
Y188250D01*
X59400Y187500D02*X60150Y188250D01*
X57900Y187500D02*X59400D01*
X57150Y188250D02*X57900Y187500D01*
X61950Y193500D02*X64950D01*
X61950D02*Y190500D01*
X62700Y191250D01*
X64200D01*
X64950Y190500D01*
Y188250D01*
X64200Y187500D02*X64950Y188250D01*
X62700Y187500D02*X64200D01*
X61950Y188250D02*X62700Y187500D01*
X172000Y99500D02*Y97900D01*
Y99500D02*X173387Y100300D01*
X172000Y99500D02*X170613Y100300D01*
X175500Y99500D02*Y97900D01*
Y99500D02*X176887Y100300D01*
X175500Y99500D02*X174113Y100300D01*
X165000Y99500D02*Y97900D01*
Y99500D02*X166387Y100300D01*
X165000Y99500D02*X163613Y100300D01*
X168500Y99500D02*Y97900D01*
Y99500D02*X169887Y100300D01*
X168500Y99500D02*X167113Y100300D01*
X190000Y99500D02*Y97900D01*
Y99500D02*X191387Y100300D01*
X190000Y99500D02*X188613Y100300D01*
X165000Y96000D02*Y94400D01*
Y96000D02*X166387Y96800D01*
X165000Y96000D02*X163613Y96800D01*
X165000Y92500D02*Y90900D01*
Y92500D02*X166387Y93300D01*
X165000Y92500D02*X163613Y93300D01*
X189000Y83500D02*Y81900D01*
Y83500D02*X190387Y84300D01*
X189000Y83500D02*X187613Y84300D01*
X192500Y83500D02*Y81900D01*
Y83500D02*X193887Y84300D01*
X192500Y83500D02*X191113Y84300D01*
X184000Y123500D02*Y121900D01*
Y123500D02*X185387Y124300D01*
X184000Y123500D02*X182613Y124300D01*
X187500Y123500D02*Y121900D01*
Y123500D02*X188887Y124300D01*
X187500Y123500D02*X186113Y124300D01*
X177000Y123500D02*Y121900D01*
Y123500D02*X178387Y124300D01*
X177000Y123500D02*X175613Y124300D01*
X180500Y123500D02*Y121900D01*
Y123500D02*X181887Y124300D01*
X180500Y123500D02*X179113Y124300D01*
X191000Y123500D02*Y121900D01*
Y123500D02*X192387Y124300D01*
X191000Y123500D02*X189613Y124300D01*
X219500Y120500D02*Y118900D01*
Y120500D02*X220887Y121300D01*
X219500Y120500D02*X218113Y121300D01*
X217000Y111500D02*Y109900D01*
Y111500D02*X218387Y112300D01*
X217000Y111500D02*X215613Y112300D01*
X171500Y122500D02*Y120900D01*
Y122500D02*X172887Y123300D01*
X171500Y122500D02*X170113Y123300D01*
X153500Y118500D02*Y116900D01*
Y118500D02*X154887Y119300D01*
X153500Y118500D02*X152113Y119300D01*
X82500Y5500D02*Y3900D01*
Y5500D02*X83887Y6300D01*
X82500Y5500D02*X81113Y6300D01*
X91500Y11500D02*Y9900D01*
Y11500D02*X92887Y12300D01*
X91500Y11500D02*X90113Y12300D01*
X208500Y25000D02*Y23400D01*
Y25000D02*X209887Y25800D01*
X208500Y25000D02*X207113Y25800D01*
X208500Y20500D02*Y18900D01*
Y20500D02*X209887Y21300D01*
X208500Y20500D02*X207113Y21300D01*
X15000Y206250D02*Y204650D01*
Y206250D02*X16387Y207050D01*
X15000Y206250D02*X13613Y207050D01*
X135000Y208500D02*X136500Y205500D01*
X138000Y208500D01*
X136500Y205500D02*Y202500D01*
X139800Y205800D02*X142050D01*
X139800Y202500D02*X142800D01*
X139800Y208500D02*Y202500D01*
Y208500D02*X142800D01*
X147600D02*X148350Y207750D01*
X145350Y208500D02*X147600D01*
X144600Y207750D02*X145350Y208500D01*
X144600Y207750D02*Y206250D01*
X145350Y205500D01*
X147600D01*
X148350Y204750D01*
Y203250D01*
X147600Y202500D02*X148350Y203250D01*
X145350Y202500D02*X147600D01*
X144600Y203250D02*X145350Y202500D01*
X98000Y207750D02*X98750Y208500D01*
X101000D01*
X101750Y207750D01*
Y206250D01*
X98000Y202500D02*X101750Y206250D01*
X98000Y202500D02*X101750D01*
X103550Y207750D02*X104300Y208500D01*
X106550D01*
X107300Y207750D01*
Y206250D01*
X103550Y202500D02*X107300Y206250D01*
X103550Y202500D02*X107300D01*
X45000Y203250D02*X45750Y202500D01*
X45000Y207750D02*Y203250D01*
Y207750D02*X45750Y208500D01*
X47250D01*
X48000Y207750D01*
Y203250D01*
X47250Y202500D02*X48000Y203250D01*
X45750Y202500D02*X47250D01*
X45000Y204000D02*X48000Y207000D01*
X49800Y202500D02*X50550D01*
X52350Y203250D02*X53100Y202500D01*
X52350Y207750D02*Y203250D01*
Y207750D02*X53100Y208500D01*
X54600D01*
X55350Y207750D01*
Y203250D01*
X54600Y202500D02*X55350Y203250D01*
X53100Y202500D02*X54600D01*
X52350Y204000D02*X55350Y207000D01*
X57150Y207300D02*X58350Y208500D01*
Y202500D01*
X57150D02*X59400D01*
X61200Y207750D02*X61950Y208500D01*
X64200D01*
X64950Y207750D01*
Y206250D01*
X61200Y202500D02*X64950Y206250D01*
X61200Y202500D02*X64950D01*
X3000Y223500D02*X3750Y222750D01*
X750Y223500D02*X3000D01*
X0Y222750D02*X750Y223500D01*
X0Y222750D02*Y221250D01*
X750Y220500D01*
X3000D01*
X3750Y219750D01*
Y218250D01*
X3000Y217500D02*X3750Y218250D01*
X750Y217500D02*X3000D01*
X0Y218250D02*X750Y217500D01*
X5550Y220500D02*Y218250D01*
X6300Y217500D01*
X8550Y220500D02*Y216000D01*
X7800Y215250D02*X8550Y216000D01*
X6300Y215250D02*X7800D01*
X5550Y216000D02*X6300Y215250D01*
Y217500D02*X7800D01*
X8550Y218250D01*
X11100Y219750D02*Y217500D01*
Y219750D02*X11850Y220500D01*
X12600D01*
X13350Y219750D01*
Y217500D01*
Y219750D02*X14100Y220500D01*
X14850D01*
X15600Y219750D01*
Y217500D01*
X10350Y220500D02*X11100Y219750D01*
X17400Y223500D02*Y217500D01*
Y218250D02*X18150Y217500D01*
X19650D01*
X20400Y218250D01*
Y219750D02*Y218250D01*
X19650Y220500D02*X20400Y219750D01*
X18150Y220500D02*X19650D01*
X17400Y219750D02*X18150Y220500D01*
X22200Y219750D02*Y218250D01*
Y219750D02*X22950Y220500D01*
X24450D01*
X25200Y219750D01*
Y218250D01*
X24450Y217500D02*X25200Y218250D01*
X22950Y217500D02*X24450D01*
X22200Y218250D02*X22950Y217500D01*
X27000Y223500D02*Y218250D01*
X27750Y217500D01*
X0Y214250D02*X29250D01*
X41750Y223500D02*Y217500D01*
X43700Y223500D02*X44750Y222450D01*
Y218550D01*
X43700Y217500D02*X44750Y218550D01*
X41000Y217500D02*X43700D01*
X41000Y223500D02*X43700D01*
G54D53*X46550Y222000D02*Y221850D01*
G54D52*Y219750D02*Y217500D01*
X50300Y220500D02*X51050Y219750D01*
X48800Y220500D02*X50300D01*
X48050Y219750D02*X48800Y220500D01*
X48050Y219750D02*Y218250D01*
X48800Y217500D01*
X51050Y220500D02*Y218250D01*
X51800Y217500D01*
X48800D02*X50300D01*
X51050Y218250D01*
X54350Y219750D02*Y217500D01*
Y219750D02*X55100Y220500D01*
X55850D01*
X56600Y219750D01*
Y217500D01*
Y219750D02*X57350Y220500D01*
X58100D01*
X58850Y219750D01*
Y217500D01*
X53600Y220500D02*X54350Y219750D01*
X60650Y217500D02*X61400D01*
X65900Y218250D02*X66650Y217500D01*
X65900Y222750D02*X66650Y223500D01*
X65900Y222750D02*Y218250D01*
X68450Y223500D02*X69950D01*
X69200D02*Y217500D01*
X68450D02*X69950D01*
X72500Y219750D02*Y217500D01*
Y219750D02*X73250Y220500D01*
X74000D01*
X74750Y219750D01*
Y217500D01*
X71750Y220500D02*X72500Y219750D01*
X77300Y220500D02*X79550D01*
X76550Y219750D02*X77300Y220500D01*
X76550Y219750D02*Y218250D01*
X77300Y217500D01*
X79550D01*
X81350Y223500D02*Y217500D01*
Y219750D02*X82100Y220500D01*
X83600D01*
X84350Y219750D01*
Y217500D01*
X86150Y223500D02*X86900Y222750D01*
Y218250D01*
X86150Y217500D02*X86900Y218250D01*
X41000Y214250D02*X88700D01*
X96050Y217500D02*X98000D01*
X95000Y218550D02*X96050Y217500D01*
X95000Y222450D02*Y218550D01*
Y222450D02*X96050Y223500D01*
X98000D01*
X99800Y219750D02*Y218250D01*
Y219750D02*X100550Y220500D01*
X102050D01*
X102800Y219750D01*
Y218250D01*
X102050Y217500D02*X102800Y218250D01*
X100550Y217500D02*X102050D01*
X99800Y218250D02*X100550Y217500D01*
X104600Y220500D02*Y218250D01*
X105350Y217500D01*
X106850D01*
X107600Y218250D01*
Y220500D02*Y218250D01*
X110150Y219750D02*Y217500D01*
Y219750D02*X110900Y220500D01*
X111650D01*
X112400Y219750D01*
Y217500D01*
X109400Y220500D02*X110150Y219750D01*
X114950Y223500D02*Y218250D01*
X115700Y217500D01*
X114200Y221250D02*X115700D01*
X95000Y214250D02*X117200D01*
X130750Y223500D02*Y217500D01*
X130000Y223500D02*X133000D01*
X133750Y222750D01*
Y221250D01*
X133000Y220500D02*X133750Y221250D01*
X130750Y220500D02*X133000D01*
X135550Y223500D02*Y218250D01*
X136300Y217500D01*
X140050Y220500D02*X140800Y219750D01*
X138550Y220500D02*X140050D01*
X137800Y219750D02*X138550Y220500D01*
X137800Y219750D02*Y218250D01*
X138550Y217500D01*
X140800Y220500D02*Y218250D01*
X141550Y217500D01*
X138550D02*X140050D01*
X140800Y218250D01*
X144100Y223500D02*Y218250D01*
X144850Y217500D01*
X143350Y221250D02*X144850D01*
X147100Y217500D02*X149350D01*
X146350Y218250D02*X147100Y217500D01*
X146350Y219750D02*Y218250D01*
Y219750D02*X147100Y220500D01*
X148600D01*
X149350Y219750D01*
X146350Y219000D02*X149350D01*
Y219750D02*Y219000D01*
X154150Y223500D02*Y217500D01*
X153400D02*X154150Y218250D01*
X151900Y217500D02*X153400D01*
X151150Y218250D02*X151900Y217500D01*
X151150Y219750D02*Y218250D01*
Y219750D02*X151900Y220500D01*
X153400D01*
X154150Y219750D01*
X157450Y220500D02*Y219750D01*
Y218250D02*Y217500D01*
X155950Y222750D02*Y222000D01*
Y222750D02*X156700Y223500D01*
X158200D01*
X158950Y222750D01*
Y222000D01*
X157450Y220500D02*X158950Y222000D01*
X130000Y214250D02*X160750D01*
X0Y238500D02*X3000D01*
X1500D02*Y232500D01*
X4800Y238500D02*Y232500D01*
Y234750D02*X5550Y235500D01*
X7050D01*
X7800Y234750D01*
Y232500D01*
X10350D02*X12600D01*
X9600Y233250D02*X10350Y232500D01*
X9600Y234750D02*Y233250D01*
Y234750D02*X10350Y235500D01*
X11850D01*
X12600Y234750D01*
X9600Y234000D02*X12600D01*
Y234750D02*Y234000D01*
X15150Y234750D02*Y232500D01*
Y234750D02*X15900Y235500D01*
X17400D01*
X14400D02*X15150Y234750D01*
X19950Y232500D02*X22200D01*
X19200Y233250D02*X19950Y232500D01*
X19200Y234750D02*Y233250D01*
Y234750D02*X19950Y235500D01*
X21450D01*
X22200Y234750D01*
X19200Y234000D02*X22200D01*
Y234750D02*Y234000D01*
X28950Y235500D02*X29700Y234750D01*
X27450Y235500D02*X28950D01*
X26700Y234750D02*X27450Y235500D01*
X26700Y234750D02*Y233250D01*
X27450Y232500D01*
X29700Y235500D02*Y233250D01*
X30450Y232500D01*
X27450D02*X28950D01*
X29700Y233250D01*
X33000Y234750D02*Y232500D01*
Y234750D02*X33750Y235500D01*
X35250D01*
X32250D02*X33000Y234750D01*
X37800Y232500D02*X40050D01*
X37050Y233250D02*X37800Y232500D01*
X37050Y234750D02*Y233250D01*
Y234750D02*X37800Y235500D01*
X39300D01*
X40050Y234750D01*
X37050Y234000D02*X40050D01*
Y234750D02*Y234000D01*
X44550Y234750D02*X47550Y238500D01*
X44550Y234750D02*X48300D01*
X47550Y238500D02*Y232500D01*
X55800Y238500D02*Y232500D01*
X55050D02*X55800Y233250D01*
X53550Y232500D02*X55050D01*
X52800Y233250D02*X53550Y232500D01*
X52800Y234750D02*Y233250D01*
Y234750D02*X53550Y235500D01*
X55050D01*
X55800Y234750D01*
G54D53*X57600Y237000D02*Y236850D01*
G54D52*Y234750D02*Y232500D01*
X59850Y237750D02*Y232500D01*
Y237750D02*X60600Y238500D01*
X61350D01*
X59100Y235500D02*X60600D01*
X63600Y237750D02*Y232500D01*
Y237750D02*X64350Y238500D01*
X65100D01*
X62850Y235500D02*X64350D01*
X67350Y232500D02*X69600D01*
X66600Y233250D02*X67350Y232500D01*
X66600Y234750D02*Y233250D01*
Y234750D02*X67350Y235500D01*
X68850D01*
X69600Y234750D01*
X66600Y234000D02*X69600D01*
Y234750D02*Y234000D01*
X72150Y234750D02*Y232500D01*
Y234750D02*X72900Y235500D01*
X74400D01*
X71400D02*X72150Y234750D01*
X76950Y232500D02*X79200D01*
X76200Y233250D02*X76950Y232500D01*
X76200Y234750D02*Y233250D01*
Y234750D02*X76950Y235500D01*
X78450D01*
X79200Y234750D01*
X76200Y234000D02*X79200D01*
Y234750D02*Y234000D01*
X81750Y234750D02*Y232500D01*
Y234750D02*X82500Y235500D01*
X83250D01*
X84000Y234750D01*
Y232500D01*
X81000Y235500D02*X81750Y234750D01*
X86550Y238500D02*Y233250D01*
X87300Y232500D01*
X85800Y236250D02*X87300D01*
X94500Y238500D02*Y232500D01*
X93750D02*X94500Y233250D01*
X92250Y232500D02*X93750D01*
X91500Y233250D02*X92250Y232500D01*
X91500Y234750D02*Y233250D01*
Y234750D02*X92250Y235500D01*
X93750D01*
X94500Y234750D01*
X97050D02*Y232500D01*
Y234750D02*X97800Y235500D01*
X99300D01*
X96300D02*X97050Y234750D01*
G54D53*X101100Y237000D02*Y236850D01*
G54D52*Y234750D02*Y232500D01*
X102600Y238500D02*Y233250D01*
X103350Y232500D01*
X104850Y238500D02*Y233250D01*
X105600Y232500D01*
X110550D02*X112800D01*
X113550Y233250D01*
X112800Y234000D02*X113550Y233250D01*
X110550Y234000D02*X112800D01*
X109800Y234750D02*X110550Y234000D01*
X109800Y234750D02*X110550Y235500D01*
X112800D01*
X113550Y234750D01*
X109800Y233250D02*X110550Y232500D01*
G54D53*X115350Y237000D02*Y236850D01*
G54D52*Y234750D02*Y232500D01*
X116850Y235500D02*X119850D01*
X116850Y232500D02*X119850Y235500D01*
X116850Y232500D02*X119850D01*
X122400D02*X124650D01*
X121650Y233250D02*X122400Y232500D01*
X121650Y234750D02*Y233250D01*
Y234750D02*X122400Y235500D01*
X123900D01*
X124650Y234750D01*
X121650Y234000D02*X124650D01*
Y234750D02*Y234000D01*
X127200Y232500D02*X129450D01*
X130200Y233250D01*
X129450Y234000D02*X130200Y233250D01*
X127200Y234000D02*X129450D01*
X126450Y234750D02*X127200Y234000D01*
X126450Y234750D02*X127200Y235500D01*
X129450D01*
X130200Y234750D01*
X126450Y233250D02*X127200Y232500D01*
X134700Y235500D02*Y233250D01*
X135450Y232500D01*
X136950D01*
X137700Y233250D01*
Y235500D02*Y233250D01*
X140250Y232500D02*X142500D01*
X143250Y233250D01*
X142500Y234000D02*X143250Y233250D01*
X140250Y234000D02*X142500D01*
X139500Y234750D02*X140250Y234000D01*
X139500Y234750D02*X140250Y235500D01*
X142500D01*
X143250Y234750D01*
X139500Y233250D02*X140250Y232500D01*
X145800D02*X148050D01*
X145050Y233250D02*X145800Y232500D01*
X145050Y234750D02*Y233250D01*
Y234750D02*X145800Y235500D01*
X147300D01*
X148050Y234750D01*
X145050Y234000D02*X148050D01*
Y234750D02*Y234000D01*
X152850Y238500D02*Y232500D01*
X152100D02*X152850Y233250D01*
X150600Y232500D02*X152100D01*
X149850Y233250D02*X150600Y232500D01*
X149850Y234750D02*Y233250D01*
Y234750D02*X150600Y235500D01*
X152100D01*
X152850Y234750D01*
G54D53*X157350Y237000D02*Y236850D01*
G54D52*Y234750D02*Y232500D01*
X159600Y234750D02*Y232500D01*
Y234750D02*X160350Y235500D01*
X161100D01*
X161850Y234750D01*
Y232500D01*
X158850Y235500D02*X159600Y234750D01*
X167100Y238500D02*Y233250D01*
X167850Y232500D01*
X166350Y236250D02*X167850D01*
X169350Y238500D02*Y232500D01*
Y234750D02*X170100Y235500D01*
X171600D01*
X172350Y234750D01*
Y232500D01*
G54D53*X174150Y237000D02*Y236850D01*
G54D52*Y234750D02*Y232500D01*
X176400D02*X178650D01*
X179400Y233250D01*
X178650Y234000D02*X179400Y233250D01*
X176400Y234000D02*X178650D01*
X175650Y234750D02*X176400Y234000D01*
X175650Y234750D02*X176400Y235500D01*
X178650D01*
X179400Y234750D01*
X175650Y233250D02*X176400Y232500D01*
X183900Y238500D02*Y233250D01*
X184650Y232500D01*
X188400Y235500D02*X189150Y234750D01*
X186900Y235500D02*X188400D01*
X186150Y234750D02*X186900Y235500D01*
X186150Y234750D02*Y233250D01*
X186900Y232500D01*
X189150Y235500D02*Y233250D01*
X189900Y232500D01*
X186900D02*X188400D01*
X189150Y233250D01*
X191700Y235500D02*Y233250D01*
X192450Y232500D01*
X194700Y235500D02*Y231000D01*
X193950Y230250D02*X194700Y231000D01*
X192450Y230250D02*X193950D01*
X191700Y231000D02*X192450Y230250D01*
Y232500D02*X193950D01*
X194700Y233250D01*
X196500Y234750D02*Y233250D01*
Y234750D02*X197250Y235500D01*
X198750D01*
X199500Y234750D01*
Y233250D01*
X198750Y232500D02*X199500Y233250D01*
X197250Y232500D02*X198750D01*
X196500Y233250D02*X197250Y232500D01*
X201300Y235500D02*Y233250D01*
X202050Y232500D01*
X203550D01*
X204300Y233250D01*
Y235500D02*Y233250D01*
X206850Y238500D02*Y233250D01*
X207600Y232500D01*
X206100Y236250D02*X207600D01*
X209100Y231000D02*X210600Y232500D01*
X215100Y234750D02*X218100Y238500D01*
X215100Y234750D02*X218850D01*
X218100Y238500D02*Y232500D01*
X220650Y233250D02*X221400Y232500D01*
X220650Y237750D02*Y233250D01*
Y237750D02*X221400Y238500D01*
X222900D01*
X223650Y237750D01*
Y233250D01*
X222900Y232500D02*X223650Y233250D01*
X221400Y232500D02*X222900D01*
X220650Y234000D02*X223650Y237000D01*
X228150Y238500D02*Y232500D01*
Y234750D02*X228900Y235500D01*
X230400D01*
X231150Y234750D01*
Y232500D01*
X232950Y234750D02*Y233250D01*
Y234750D02*X233700Y235500D01*
X235200D01*
X235950Y234750D01*
Y233250D01*
X235200Y232500D02*X235950Y233250D01*
X233700Y232500D02*X235200D01*
X232950Y233250D02*X233700Y232500D01*
X237750Y238500D02*Y233250D01*
X238500Y232500D01*
X240750D02*X243000D01*
X240000Y233250D02*X240750Y232500D01*
X240000Y234750D02*Y233250D01*
Y234750D02*X240750Y235500D01*
X242250D01*
X243000Y234750D01*
X240000Y234000D02*X243000D01*
Y234750D02*Y234000D01*
X245550Y232500D02*X247800D01*
X248550Y233250D01*
X247800Y234000D02*X248550Y233250D01*
X245550Y234000D02*X247800D01*
X244800Y234750D02*X245550Y234000D01*
X244800Y234750D02*X245550Y235500D01*
X247800D01*
X248550Y234750D01*
X244800Y233250D02*X245550Y232500D01*
X253800Y238500D02*Y233250D01*
X254550Y232500D01*
X253050Y236250D02*X254550D01*
X256050Y234750D02*Y233250D01*
Y234750D02*X256800Y235500D01*
X258300D01*
X259050Y234750D01*
Y233250D01*
X258300Y232500D02*X259050Y233250D01*
X256800Y232500D02*X258300D01*
X256050Y233250D02*X256800Y232500D01*
X261600Y238500D02*Y233250D01*
X262350Y232500D01*
X260850Y236250D02*X262350D01*
X266100Y235500D02*X266850Y234750D01*
X264600Y235500D02*X266100D01*
X263850Y234750D02*X264600Y235500D01*
X263850Y234750D02*Y233250D01*
X264600Y232500D01*
X266850Y235500D02*Y233250D01*
X267600Y232500D01*
X264600D02*X266100D01*
X266850Y233250D01*
X269400Y238500D02*Y233250D01*
X270150Y232500D01*
G54D54*X0Y150000D02*Y0D01*
X250000D01*
Y150000D01*
X0D01*
G54D52*X38675Y-9500D02*X41675D01*
X42425Y-8750D01*
Y-6950D02*Y-8750D01*
X41675Y-6200D02*X42425Y-6950D01*
X39425Y-6200D02*X41675D01*
X39425Y-3500D02*Y-9500D01*
X38675Y-3500D02*X41675D01*
X42425Y-4250D01*
Y-5450D01*
X41675Y-6200D02*X42425Y-5450D01*
X44225Y-7250D02*Y-8750D01*
Y-7250D02*X44975Y-6500D01*
X46475D01*
X47225Y-7250D01*
Y-8750D01*
X46475Y-9500D02*X47225Y-8750D01*
X44975Y-9500D02*X46475D01*
X44225Y-8750D02*X44975Y-9500D01*
X51275Y-6500D02*X52025Y-7250D01*
X49775Y-6500D02*X51275D01*
X49025Y-7250D02*X49775Y-6500D01*
X49025Y-7250D02*Y-8750D01*
X49775Y-9500D01*
X52025Y-6500D02*Y-8750D01*
X52775Y-9500D01*
X49775D02*X51275D01*
X52025Y-8750D01*
X55325Y-7250D02*Y-9500D01*
Y-7250D02*X56075Y-6500D01*
X57575D01*
X54575D02*X55325Y-7250D01*
X62375Y-3500D02*Y-9500D01*
X61625D02*X62375Y-8750D01*
X60125Y-9500D02*X61625D01*
X59375Y-8750D02*X60125Y-9500D01*
X59375Y-7250D02*Y-8750D01*
Y-7250D02*X60125Y-6500D01*
X61625D01*
X62375Y-7250D01*
X66875D02*Y-8750D01*
Y-7250D02*X67625Y-6500D01*
X69125D01*
X69875Y-7250D01*
Y-8750D01*
X69125Y-9500D02*X69875Y-8750D01*
X67625Y-9500D02*X69125D01*
X66875Y-8750D02*X67625Y-9500D01*
X71675Y-6500D02*Y-8750D01*
X72425Y-9500D01*
X73925D01*
X74675Y-8750D01*
Y-6500D02*Y-8750D01*
X77225Y-3500D02*Y-8750D01*
X77975Y-9500D01*
X76475Y-5750D02*X77975D01*
X79475Y-3500D02*Y-8750D01*
X80225Y-9500D01*
G54D53*X81725Y-5000D02*Y-5150D01*
G54D52*Y-7250D02*Y-9500D01*
X83975Y-7250D02*Y-9500D01*
Y-7250D02*X84725Y-6500D01*
X85475D01*
X86225Y-7250D01*
Y-9500D01*
X83225Y-6500D02*X83975Y-7250D01*
X88775Y-9500D02*X91025D01*
X88025Y-8750D02*X88775Y-9500D01*
X88025Y-7250D02*Y-8750D01*
Y-7250D02*X88775Y-6500D01*
X90275D01*
X91025Y-7250D01*
X88025Y-8000D02*X91025D01*
Y-7250D02*Y-8000D01*
G54D53*X95525Y-5000D02*Y-5150D01*
G54D52*Y-7250D02*Y-9500D01*
X97775D02*X100025D01*
X100775Y-8750D01*
X100025Y-8000D02*X100775Y-8750D01*
X97775Y-8000D02*X100025D01*
X97025Y-7250D02*X97775Y-8000D01*
X97025Y-7250D02*X97775Y-6500D01*
X100025D01*
X100775Y-7250D01*
X97025Y-8750D02*X97775Y-9500D01*
X106025Y-3500D02*Y-8750D01*
X106775Y-9500D01*
X105275Y-5750D02*X106775D01*
X108275Y-3500D02*Y-9500D01*
Y-7250D02*X109025Y-6500D01*
X110525D01*
X111275Y-7250D01*
Y-9500D01*
X113825D02*X116075D01*
X113075Y-8750D02*X113825Y-9500D01*
X113075Y-7250D02*Y-8750D01*
Y-7250D02*X113825Y-6500D01*
X115325D01*
X116075Y-7250D01*
X113075Y-8000D02*X116075D01*
Y-7250D02*Y-8000D01*
X121325Y-6500D02*X123575D01*
X120575Y-7250D02*X121325Y-6500D01*
X120575Y-7250D02*Y-8750D01*
X121325Y-9500D01*
X123575D01*
X126125D02*X128375D01*
X125375Y-8750D02*X126125Y-9500D01*
X125375Y-7250D02*Y-8750D01*
Y-7250D02*X126125Y-6500D01*
X127625D01*
X128375Y-7250D01*
X125375Y-8000D02*X128375D01*
Y-7250D02*Y-8000D01*
X130925Y-7250D02*Y-9500D01*
Y-7250D02*X131675Y-6500D01*
X132425D01*
X133175Y-7250D01*
Y-9500D01*
X130175Y-6500D02*X130925Y-7250D01*
X135725Y-3500D02*Y-8750D01*
X136475Y-9500D01*
X134975Y-5750D02*X136475D01*
X138725Y-9500D02*X140975D01*
X137975Y-8750D02*X138725Y-9500D01*
X137975Y-7250D02*Y-8750D01*
Y-7250D02*X138725Y-6500D01*
X140225D01*
X140975Y-7250D01*
X137975Y-8000D02*X140975D01*
Y-7250D02*Y-8000D01*
X143525Y-7250D02*Y-9500D01*
Y-7250D02*X144275Y-6500D01*
X145775D01*
X142775D02*X143525Y-7250D01*
X147575Y-3500D02*Y-8750D01*
X148325Y-9500D01*
G54D53*X149825Y-5000D02*Y-5150D01*
G54D52*Y-7250D02*Y-9500D01*
X152075Y-7250D02*Y-9500D01*
Y-7250D02*X152825Y-6500D01*
X153575D01*
X154325Y-7250D01*
Y-9500D01*
X151325Y-6500D02*X152075Y-7250D01*
X156875Y-9500D02*X159125D01*
X156125Y-8750D02*X156875Y-9500D01*
X156125Y-7250D02*Y-8750D01*
Y-7250D02*X156875Y-6500D01*
X158375D01*
X159125Y-7250D01*
X156125Y-8000D02*X159125D01*
Y-7250D02*Y-8000D01*
X163625Y-7250D02*Y-8750D01*
Y-7250D02*X164375Y-6500D01*
X165875D01*
X166625Y-7250D01*
Y-8750D01*
X165875Y-9500D02*X166625Y-8750D01*
X164375Y-9500D02*X165875D01*
X163625Y-8750D02*X164375Y-9500D01*
X169175Y-4250D02*Y-9500D01*
Y-4250D02*X169925Y-3500D01*
X170675D01*
X168425Y-6500D02*X169925D01*
X175625Y-3500D02*Y-8750D01*
X176375Y-9500D01*
X174875Y-5750D02*X176375D01*
X177875Y-3500D02*Y-9500D01*
Y-7250D02*X178625Y-6500D01*
X180125D01*
X180875Y-7250D01*
Y-9500D01*
G54D53*X182675Y-5000D02*Y-5150D01*
G54D52*Y-7250D02*Y-9500D01*
X184925D02*X187175D01*
X187925Y-8750D01*
X187175Y-8000D02*X187925Y-8750D01*
X184925Y-8000D02*X187175D01*
X184175Y-7250D02*X184925Y-8000D01*
X184175Y-7250D02*X184925Y-6500D01*
X187175D01*
X187925Y-7250D01*
X184175Y-8750D02*X184925Y-9500D01*
X193175Y-7250D02*Y-11750D01*
X192425Y-6500D02*X193175Y-7250D01*
X193925Y-6500D01*
X195425D01*
X196175Y-7250D01*
Y-8750D01*
X195425Y-9500D02*X196175Y-8750D01*
X193925Y-9500D02*X195425D01*
X193175Y-8750D02*X193925Y-9500D01*
X200225Y-6500D02*X200975Y-7250D01*
X198725Y-6500D02*X200225D01*
X197975Y-7250D02*X198725Y-6500D01*
X197975Y-7250D02*Y-8750D01*
X198725Y-9500D01*
X200975Y-6500D02*Y-8750D01*
X201725Y-9500D01*
X198725D02*X200225D01*
X200975Y-8750D01*
X204275Y-3500D02*Y-8750D01*
X205025Y-9500D01*
X203525Y-5750D02*X205025D01*
X206525Y-3500D02*Y-9500D01*
Y-7250D02*X207275Y-6500D01*
X208775D01*
X209525Y-7250D01*
Y-9500D01*
X200750Y178500D02*Y172500D01*
X202700Y178500D02*X203750Y177450D01*
Y173550D01*
X202700Y172500D02*X203750Y173550D01*
X200000Y172500D02*X202700D01*
X200000Y178500D02*X202700D01*
X207800Y175500D02*X208550Y174750D01*
X206300Y175500D02*X207800D01*
X205550Y174750D02*X206300Y175500D01*
X205550Y174750D02*Y173250D01*
X206300Y172500D01*
X208550Y175500D02*Y173250D01*
X209300Y172500D01*
X206300D02*X207800D01*
X208550Y173250D01*
X211850Y178500D02*Y173250D01*
X212600Y172500D01*
X211100Y176250D02*X212600D01*
X214850Y172500D02*X217100D01*
X214100Y173250D02*X214850Y172500D01*
X214100Y174750D02*Y173250D01*
Y174750D02*X214850Y175500D01*
X216350D01*
X217100Y174750D01*
X214100Y174000D02*X217100D01*
Y174750D02*Y174000D01*
X218900Y176250D02*X219650D01*
X218900Y174750D02*X219650D01*
X224150Y178500D02*X227150D01*
X225650D02*Y172500D01*
X228950Y178500D02*Y172500D01*
Y174750D02*X229700Y175500D01*
X231200D01*
X231950Y174750D01*
Y172500D01*
X233750Y175500D02*Y173250D01*
X234500Y172500D01*
X236000D01*
X236750Y173250D01*
Y175500D02*Y173250D01*
X241250Y177000D02*Y172500D01*
Y177000D02*X242300Y178500D01*
X243950D01*
X245000Y177000D01*
Y172500D01*
X241250Y175500D02*X245000D01*
X247550Y174750D02*Y170250D01*
X246800Y175500D02*X247550Y174750D01*
X248300Y175500D01*
X249800D01*
X250550Y174750D01*
Y173250D01*
X249800Y172500D02*X250550Y173250D01*
X248300Y172500D02*X249800D01*
X247550Y173250D02*X248300Y172500D01*
X253100Y174750D02*Y172500D01*
Y174750D02*X253850Y175500D01*
X255350D01*
X252350D02*X253100Y174750D01*
X259850Y177300D02*X261050Y178500D01*
Y172500D01*
X259850D02*X262100D01*
X263900Y173250D02*X264650Y172500D01*
X263900Y174450D02*Y173250D01*
Y174450D02*X264950Y175500D01*
X265850D01*
X266900Y174450D01*
Y173250D01*
X266150Y172500D02*X266900Y173250D01*
X264650Y172500D02*X266150D01*
X263900Y176550D02*X264950Y175500D01*
X263900Y177750D02*Y176550D01*
Y177750D02*X264650Y178500D01*
X266150D01*
X266900Y177750D01*
Y176550D01*
X265850Y175500D02*X266900Y176550D01*
X271400Y173250D02*X272150Y172500D01*
X271400Y177750D02*Y173250D01*
Y177750D02*X272150Y178500D01*
X273650D01*
X274400Y177750D01*
Y173250D01*
X273650Y172500D02*X274400Y173250D01*
X272150Y172500D02*X273650D01*
X271400Y174000D02*X274400Y177000D01*
X276200Y177750D02*X276950Y178500D01*
X279200D01*
X279950Y177750D01*
Y176250D01*
X276200Y172500D02*X279950Y176250D01*
X276200Y172500D02*X279950D01*
X281750Y176250D02*X282500D01*
X281750Y174750D02*X282500D01*
X284300Y178500D02*X287300D01*
X284300D02*Y175500D01*
X285050Y176250D01*
X286550D01*
X287300Y175500D01*
Y173250D01*
X286550Y172500D02*X287300Y173250D01*
X285050Y172500D02*X286550D01*
X284300Y173250D02*X285050Y172500D01*
X289100Y177300D02*X290300Y178500D01*
Y172500D01*
X289100D02*X291350D01*
X293150Y176250D02*X293900D01*
X293150Y174750D02*X293900D01*
X295700Y178500D02*X298700D01*
X295700D02*Y175500D01*
X296450Y176250D01*
X297950D01*
X298700Y175500D01*
Y173250D01*
X297950Y172500D02*X298700Y173250D01*
X296450Y172500D02*X297950D01*
X295700Y173250D02*X296450Y172500D01*
X300500Y177750D02*X301250Y178500D01*
X303500D01*
X304250Y177750D01*
Y176250D01*
X300500Y172500D02*X304250Y176250D01*
X300500Y172500D02*X304250D01*
X308750Y177750D02*X309500Y178500D01*
X311750D01*
X312500Y177750D01*
Y176250D01*
X308750Y172500D02*X312500Y176250D01*
X308750Y172500D02*X312500D01*
X314300Y173250D02*X315050Y172500D01*
X314300Y177750D02*Y173250D01*
Y177750D02*X315050Y178500D01*
X316550D01*
X317300Y177750D01*
Y173250D01*
X316550Y172500D02*X317300Y173250D01*
X315050Y172500D02*X316550D01*
X314300Y174000D02*X317300Y177000D01*
X319100Y177300D02*X320300Y178500D01*
Y172500D01*
X319100D02*X321350D01*
X323900D02*X326150Y175500D01*
Y177750D02*Y175500D01*
X325400Y178500D02*X326150Y177750D01*
X323900Y178500D02*X325400D01*
X323150Y177750D02*X323900Y178500D01*
X323150Y177750D02*Y176250D01*
X323900Y175500D01*
X326150D01*
X330650Y178500D02*Y173250D01*
X331400Y172500D01*
X332900D01*
X333650Y173250D01*
Y178500D02*Y173250D01*
X335450Y178500D02*X338450D01*
X336950D02*Y172500D01*
X341300D02*X343250D01*
X340250Y173550D02*X341300Y172500D01*
X340250Y177450D02*Y173550D01*
Y177450D02*X341300Y178500D01*
X343250D01*
X200000Y192000D02*Y187500D01*
Y192000D02*X201050Y193500D01*
X202700D01*
X203750Y192000D01*
Y187500D01*
X200000Y190500D02*X203750D01*
X205550D02*Y188250D01*
X206300Y187500D01*
X207800D01*
X208550Y188250D01*
Y190500D02*Y188250D01*
X211100Y193500D02*Y188250D01*
X211850Y187500D01*
X210350Y191250D02*X211850D01*
X213350Y193500D02*Y187500D01*
Y189750D02*X214100Y190500D01*
X215600D01*
X216350Y189750D01*
Y187500D01*
X218150Y189750D02*Y188250D01*
Y189750D02*X218900Y190500D01*
X220400D01*
X221150Y189750D01*
Y188250D01*
X220400Y187500D02*X221150Y188250D01*
X218900Y187500D02*X220400D01*
X218150Y188250D02*X218900Y187500D01*
X223700Y189750D02*Y187500D01*
Y189750D02*X224450Y190500D01*
X225950D01*
X222950D02*X223700Y189750D01*
X227750Y191250D02*X228500D01*
X227750Y189750D02*X228500D01*
X233000Y193500D02*Y187500D01*
Y193500D02*X236750Y187500D01*
Y193500D02*Y187500D01*
X240800Y190500D02*X241550Y189750D01*
X239300Y190500D02*X240800D01*
X238550Y189750D02*X239300Y190500D01*
X238550Y189750D02*Y188250D01*
X239300Y187500D01*
X241550Y190500D02*Y188250D01*
X242300Y187500D01*
X239300D02*X240800D01*
X241550Y188250D01*
X244850Y193500D02*Y188250D01*
X245600Y187500D01*
X244100Y191250D02*X245600D01*
X247100Y193500D02*Y187500D01*
Y189750D02*X247850Y190500D01*
X249350D01*
X250100Y189750D01*
Y187500D01*
X254150Y190500D02*X254900Y189750D01*
X252650Y190500D02*X254150D01*
X251900Y189750D02*X252650Y190500D01*
X251900Y189750D02*Y188250D01*
X252650Y187500D01*
X254900Y190500D02*Y188250D01*
X255650Y187500D01*
X252650D02*X254150D01*
X254900Y188250D01*
X258200Y189750D02*Y187500D01*
Y189750D02*X258950Y190500D01*
X259700D01*
X260450Y189750D01*
Y187500D01*
X257450Y190500D02*X258200Y189750D01*
X265700Y193500D02*Y187500D01*
X267650Y193500D02*X268700Y192450D01*
Y188550D01*
X267650Y187500D02*X268700Y188550D01*
X264950Y187500D02*X267650D01*
X264950Y193500D02*X267650D01*
X270500Y187500D02*X271250D01*
X275750Y193500D02*Y187500D01*
X279500Y193500D02*Y187500D01*
X275750Y190500D02*X279500D01*
X281300Y189750D02*Y188250D01*
Y189750D02*X282050Y190500D01*
X283550D01*
X284300Y189750D01*
Y188250D01*
X283550Y187500D02*X284300Y188250D01*
X282050Y187500D02*X283550D01*
X281300Y188250D02*X282050Y187500D01*
X286100Y193500D02*Y188250D01*
X286850Y187500D01*
X289100Y189750D02*Y187500D01*
Y189750D02*X289850Y190500D01*
X290600D01*
X291350Y189750D01*
Y187500D01*
Y189750D02*X292100Y190500D01*
X292850D01*
X293600Y189750D01*
Y187500D01*
X288350Y190500D02*X289100Y189750D01*
X296150Y187500D02*X298400D01*
X295400Y188250D02*X296150Y187500D01*
X295400Y189750D02*Y188250D01*
Y189750D02*X296150Y190500D01*
X297650D01*
X298400Y189750D01*
X295400Y189000D02*X298400D01*
Y189750D02*Y189000D01*
X300950Y187500D02*X303200D01*
X303950Y188250D01*
X303200Y189000D02*X303950Y188250D01*
X300950Y189000D02*X303200D01*
X300200Y189750D02*X300950Y189000D01*
X300200Y189750D02*X300950Y190500D01*
X303200D01*
X303950Y189750D01*
X300200Y188250D02*X300950Y187500D01*
X200000Y208500D02*X203000D01*
X201500D02*Y202500D01*
G54D53*X204800Y207000D02*Y206850D01*
G54D52*Y204750D02*Y202500D01*
X207050Y208500D02*Y203250D01*
X207800Y202500D01*
X206300Y206250D02*X207800D01*
X209300Y208500D02*Y203250D01*
X210050Y202500D01*
X212300D02*X214550D01*
X211550Y203250D02*X212300Y202500D01*
X211550Y204750D02*Y203250D01*
Y204750D02*X212300Y205500D01*
X213800D01*
X214550Y204750D01*
X211550Y204000D02*X214550D01*
Y204750D02*Y204000D01*
X216350Y206250D02*X217100D01*
X216350Y204750D02*X217100D01*
X221600Y203250D02*X222350Y202500D01*
X221600Y207750D02*X222350Y208500D01*
X221600Y207750D02*Y203250D01*
X224150Y205500D02*Y203250D01*
X224900Y202500D01*
X226400D01*
X227150Y203250D01*
Y205500D02*Y203250D01*
X229700Y204750D02*Y202500D01*
Y204750D02*X230450Y205500D01*
X231200D01*
X231950Y204750D01*
Y202500D01*
X228950Y205500D02*X229700Y204750D01*
X233750Y208500D02*Y202500D01*
Y204750D02*X236000Y202500D01*
X233750Y204750D02*X235250Y206250D01*
X238550Y204750D02*Y202500D01*
Y204750D02*X239300Y205500D01*
X240050D01*
X240800Y204750D01*
Y202500D01*
X237800Y205500D02*X238550Y204750D01*
X242600D02*Y203250D01*
Y204750D02*X243350Y205500D01*
X244850D01*
X245600Y204750D01*
Y203250D01*
X244850Y202500D02*X245600Y203250D01*
X243350Y202500D02*X244850D01*
X242600Y203250D02*X243350Y202500D01*
X247400Y205500D02*Y203250D01*
X248150Y202500D01*
X248900D01*
X249650Y203250D01*
Y205500D02*Y203250D01*
X250400Y202500D01*
X251150D01*
X251900Y203250D01*
Y205500D02*Y203250D01*
X254450Y204750D02*Y202500D01*
Y204750D02*X255200Y205500D01*
X255950D01*
X256700Y204750D01*
Y202500D01*
X253700Y205500D02*X254450Y204750D01*
X258500Y208500D02*X259250Y207750D01*
Y203250D01*
X258500Y202500D02*X259250Y203250D01*
X263750Y205500D02*X266750D01*
X271250Y208500D02*Y202500D01*
Y208500D02*X274250D01*
X271250Y205800D02*X273500D01*
X278300Y205500D02*X279050Y204750D01*
X276800Y205500D02*X278300D01*
X276050Y204750D02*X276800Y205500D01*
X276050Y204750D02*Y203250D01*
X276800Y202500D01*
X279050Y205500D02*Y203250D01*
X279800Y202500D01*
X276800D02*X278300D01*
X279050Y203250D01*
X281600Y208500D02*Y202500D01*
Y203250D02*X282350Y202500D01*
X283850D01*
X284600Y203250D01*
Y204750D02*Y203250D01*
X283850Y205500D02*X284600Y204750D01*
X282350Y205500D02*X283850D01*
X281600Y204750D02*X282350Y205500D01*
X287150Y204750D02*Y202500D01*
Y204750D02*X287900Y205500D01*
X289400D01*
X286400D02*X287150Y204750D01*
G54D53*X291200Y207000D02*Y206850D01*
G54D52*Y204750D02*Y202500D01*
X293450Y205500D02*X295700D01*
X292700Y204750D02*X293450Y205500D01*
X292700Y204750D02*Y203250D01*
X293450Y202500D01*
X295700D01*
X299750Y205500D02*X300500Y204750D01*
X298250Y205500D02*X299750D01*
X297500Y204750D02*X298250Y205500D01*
X297500Y204750D02*Y203250D01*
X298250Y202500D01*
X300500Y205500D02*Y203250D01*
X301250Y202500D01*
X298250D02*X299750D01*
X300500Y203250D01*
X303800Y208500D02*Y203250D01*
X304550Y202500D01*
X303050Y206250D02*X304550D01*
G54D53*X306050Y207000D02*Y206850D01*
G54D52*Y204750D02*Y202500D01*
X307550Y204750D02*Y203250D01*
Y204750D02*X308300Y205500D01*
X309800D01*
X310550Y204750D01*
Y203250D01*
X309800Y202500D02*X310550Y203250D01*
X308300Y202500D02*X309800D01*
X307550Y203250D02*X308300Y202500D01*
X313100Y204750D02*Y202500D01*
Y204750D02*X313850Y205500D01*
X314600D01*
X315350Y204750D01*
Y202500D01*
X312350Y205500D02*X313100Y204750D01*
X320600Y208500D02*Y202500D01*
X322550Y208500D02*X323600Y207450D01*
Y203550D01*
X322550Y202500D02*X323600Y203550D01*
X319850Y202500D02*X322550D01*
X319850Y208500D02*X322550D01*
X326150Y204750D02*Y202500D01*
Y204750D02*X326900Y205500D01*
X328400D01*
X325400D02*X326150Y204750D01*
X332450Y205500D02*X333200Y204750D01*
X330950Y205500D02*X332450D01*
X330200Y204750D02*X330950Y205500D01*
X330200Y204750D02*Y203250D01*
X330950Y202500D01*
X333200Y205500D02*Y203250D01*
X333950Y202500D01*
X330950D02*X332450D01*
X333200Y203250D01*
X335750Y205500D02*Y203250D01*
X336500Y202500D01*
X337250D01*
X338000Y203250D01*
Y205500D02*Y203250D01*
X338750Y202500D01*
X339500D01*
X340250Y203250D01*
Y205500D02*Y203250D01*
G54D53*X342050Y207000D02*Y206850D01*
G54D52*Y204750D02*Y202500D01*
X344300Y204750D02*Y202500D01*
Y204750D02*X345050Y205500D01*
X345800D01*
X346550Y204750D01*
Y202500D01*
X343550Y205500D02*X344300Y204750D01*
X350600Y205500D02*X351350Y204750D01*
X349100Y205500D02*X350600D01*
X348350Y204750D02*X349100Y205500D01*
X348350Y204750D02*Y203250D01*
X349100Y202500D01*
X350600D01*
X351350Y203250D01*
X348350Y201000D02*X349100Y200250D01*
X350600D01*
X351350Y201000D01*
Y205500D02*Y201000D01*
M02*
