G04 start of page 2 for group 0 idx 0 *
G04 Title: (unknown), top *
G04 Creator: pcb 4.0.2 *
G04 CreationDate: Thu Apr 18 02:51:52 2019 UTC *
G04 For: ndholmes *
G04 Format: Gerber/RS-274X *
G04 PCB-Dimensions (mil): 2500.00 1500.00 *
G04 PCB-Coordinate-Origin: lower left *
%MOIN*%
%FSLAX25Y25*%
%LNTOP*%
%ADD22C,0.0630*%
%ADD21C,0.0550*%
%ADD20C,0.1285*%
%ADD19C,0.0120*%
%ADD18C,0.0260*%
%ADD17C,0.0900*%
%ADD16C,0.0830*%
%ADD15C,0.2937*%
%ADD14C,0.0100*%
%ADD13C,0.0250*%
%ADD12C,0.0400*%
%ADD11C,0.0001*%
G54D11*G36*
X128000Y87000D02*X181000D01*
Y74500D01*
X128000D01*
Y87000D01*
G37*
G36*
X153000Y109000D02*X168379D01*
X168382Y108997D01*
X168420Y108952D01*
X168500Y108884D01*
Y104000D01*
X153000D01*
Y109000D01*
G37*
G36*
X124500Y102500D02*X178000D01*
Y88500D01*
X124500D01*
Y102500D01*
G37*
G36*
X146500Y114500D02*X158881D01*
X158936Y114436D01*
X158981Y114398D01*
X162898Y110481D01*
X162936Y110436D01*
X163116Y110283D01*
X163317Y110159D01*
X163535Y110069D01*
X163765Y110014D01*
X164000Y109995D01*
X164059Y110000D01*
X167379D01*
X168382Y108997D01*
X168420Y108952D01*
X168500Y108884D01*
Y104000D01*
X146500D01*
Y114500D01*
G37*
G36*
X127516Y132952D02*X122241Y132943D01*
X122088Y132906D01*
X121943Y132846D01*
X121808Y132764D01*
X121689Y132661D01*
X121586Y132542D01*
X121504Y132407D01*
X121444Y132262D01*
X121407Y132109D01*
X121398Y131952D01*
X121407Y125891D01*
X121444Y125738D01*
X121504Y125593D01*
X121586Y125458D01*
X121689Y125339D01*
X121808Y125236D01*
X121943Y125154D01*
X122088Y125094D01*
X122241Y125057D01*
X122398Y125048D01*
X124327Y125051D01*
X126379Y123000D01*
X53000D01*
Y147500D01*
X151000D01*
Y132950D01*
X146827Y132943D01*
X146674Y132906D01*
X146529Y132846D01*
X146394Y132764D01*
X146275Y132661D01*
X146172Y132542D01*
X146090Y132407D01*
X146030Y132262D01*
X146000Y132137D01*
X145970Y132262D01*
X145910Y132407D01*
X145828Y132542D01*
X145725Y132661D01*
X145606Y132764D01*
X145471Y132846D01*
X145326Y132906D01*
X145173Y132943D01*
X145016Y132952D01*
X139741Y132943D01*
X139588Y132906D01*
X139443Y132846D01*
X139308Y132764D01*
X139189Y132661D01*
X139086Y132542D01*
X139004Y132407D01*
X138944Y132262D01*
X138907Y132109D01*
X138898Y131952D01*
X138900Y130500D01*
X135595D01*
X135593Y132109D01*
X135556Y132262D01*
X135496Y132407D01*
X135414Y132542D01*
X135311Y132661D01*
X135192Y132764D01*
X135057Y132846D01*
X134912Y132906D01*
X134759Y132943D01*
X134602Y132952D01*
X129327Y132943D01*
X129174Y132906D01*
X129029Y132846D01*
X128894Y132764D01*
X128775Y132661D01*
X128672Y132542D01*
X128590Y132407D01*
X128530Y132262D01*
X128500Y132137D01*
X128470Y132262D01*
X128410Y132407D01*
X128328Y132542D01*
X128225Y132661D01*
X128106Y132764D01*
X127971Y132846D01*
X127826Y132906D01*
X127673Y132943D01*
X127516Y132952D01*
G37*
G36*
X58000Y93000D02*X45250D01*
Y98248D01*
X45368Y98257D01*
X45482Y98285D01*
X45592Y98330D01*
X45692Y98391D01*
X45782Y98468D01*
X45859Y98558D01*
X45920Y98658D01*
X45965Y98768D01*
X45993Y98882D01*
X46000Y99000D01*
Y105000D01*
X45993Y105118D01*
X45965Y105232D01*
X45920Y105342D01*
X45859Y105442D01*
X45782Y105532D01*
X45692Y105609D01*
X45592Y105670D01*
X45482Y105715D01*
X45368Y105743D01*
X45250Y105752D01*
Y147500D01*
X58000D01*
Y93000D01*
G37*
G36*
X45250D02*X40000D01*
Y96000D01*
X43000D01*
X43118Y96007D01*
X43232Y96035D01*
X43342Y96080D01*
X43442Y96141D01*
X43532Y96218D01*
X43609Y96308D01*
X43670Y96408D01*
X43715Y96518D01*
X43743Y96632D01*
X43752Y96750D01*
X43743Y96868D01*
X43715Y96982D01*
X43670Y97092D01*
X43609Y97192D01*
X43532Y97282D01*
X43442Y97359D01*
X43342Y97420D01*
X43232Y97465D01*
X43118Y97493D01*
X43000Y97500D01*
X40000D01*
Y106500D01*
X43000D01*
X43118Y106507D01*
X43232Y106535D01*
X43342Y106580D01*
X43442Y106641D01*
X43532Y106718D01*
X43609Y106808D01*
X43670Y106908D01*
X43715Y107018D01*
X43743Y107132D01*
X43752Y107250D01*
X43743Y107368D01*
X43715Y107482D01*
X43670Y107592D01*
X43609Y107692D01*
X43532Y107782D01*
X43442Y107859D01*
X43342Y107920D01*
X43232Y107965D01*
X43118Y107993D01*
X43000Y108000D01*
X40000D01*
Y147500D01*
X45250D01*
Y105752D01*
X45132Y105743D01*
X45018Y105715D01*
X44908Y105670D01*
X44808Y105609D01*
X44718Y105532D01*
X44641Y105442D01*
X44580Y105342D01*
X44535Y105232D01*
X44507Y105118D01*
X44500Y105000D01*
Y99000D01*
X44507Y98882D01*
X44535Y98768D01*
X44580Y98658D01*
X44641Y98558D01*
X44718Y98468D01*
X44808Y98391D01*
X44908Y98330D01*
X45018Y98285D01*
X45132Y98257D01*
X45250Y98248D01*
Y93000D01*
G37*
G36*
X40000D02*X34750D01*
Y98248D01*
X34868Y98257D01*
X34982Y98285D01*
X35092Y98330D01*
X35192Y98391D01*
X35282Y98468D01*
X35359Y98558D01*
X35420Y98658D01*
X35465Y98768D01*
X35493Y98882D01*
X35500Y99000D01*
Y105000D01*
X35493Y105118D01*
X35465Y105232D01*
X35420Y105342D01*
X35359Y105442D01*
X35282Y105532D01*
X35192Y105609D01*
X35092Y105670D01*
X34982Y105715D01*
X34868Y105743D01*
X34750Y105752D01*
Y147500D01*
X40000D01*
Y108000D01*
X37000D01*
X36882Y107993D01*
X36768Y107965D01*
X36658Y107920D01*
X36558Y107859D01*
X36468Y107782D01*
X36391Y107692D01*
X36330Y107592D01*
X36285Y107482D01*
X36257Y107368D01*
X36248Y107250D01*
X36257Y107132D01*
X36285Y107018D01*
X36330Y106908D01*
X36391Y106808D01*
X36468Y106718D01*
X36558Y106641D01*
X36658Y106580D01*
X36768Y106535D01*
X36882Y106507D01*
X37000Y106500D01*
X40000D01*
Y97500D01*
X37000D01*
X36882Y97493D01*
X36768Y97465D01*
X36658Y97420D01*
X36558Y97359D01*
X36468Y97282D01*
X36391Y97192D01*
X36330Y97092D01*
X36285Y96982D01*
X36257Y96868D01*
X36248Y96750D01*
X36257Y96632D01*
X36285Y96518D01*
X36330Y96408D01*
X36391Y96308D01*
X36468Y96218D01*
X36558Y96141D01*
X36658Y96080D01*
X36768Y96035D01*
X36882Y96007D01*
X37000Y96000D01*
X40000D01*
Y93000D01*
G37*
G36*
X34750D02*X10000D01*
Y118923D01*
X12138Y118038D01*
X14539Y117461D01*
X17000Y117268D01*
X19461Y117461D01*
X21862Y118038D01*
X24142Y118982D01*
X26247Y120272D01*
X28124Y121876D01*
X29728Y123753D01*
X31018Y125858D01*
X31962Y128138D01*
X32539Y130539D01*
X32684Y133000D01*
X32539Y135461D01*
X31962Y137862D01*
X31018Y140142D01*
X29728Y142247D01*
X28124Y144124D01*
X26247Y145728D01*
X24142Y147018D01*
X22978Y147500D01*
X34750D01*
Y105752D01*
X34632Y105743D01*
X34518Y105715D01*
X34408Y105670D01*
X34308Y105609D01*
X34218Y105532D01*
X34141Y105442D01*
X34080Y105342D01*
X34035Y105232D01*
X34007Y105118D01*
X34000Y105000D01*
Y99000D01*
X34007Y98882D01*
X34035Y98768D01*
X34080Y98658D01*
X34141Y98558D01*
X34218Y98468D01*
X34308Y98391D01*
X34408Y98330D01*
X34518Y98285D01*
X34632Y98257D01*
X34750Y98248D01*
Y93000D01*
G37*
G36*
X86500Y71500D02*X83426D01*
Y106803D01*
X83430Y106805D01*
X83533Y106864D01*
X83625Y106938D01*
X83704Y107025D01*
X83766Y107125D01*
X84011Y107612D01*
X84205Y108122D01*
X84352Y108648D01*
X84451Y109184D01*
X84500Y109727D01*
Y110273D01*
X84451Y110816D01*
X84352Y111352D01*
X84205Y111878D01*
X84011Y112388D01*
X83772Y112878D01*
X83708Y112978D01*
X83628Y113066D01*
X83535Y113140D01*
X83432Y113199D01*
X83426Y113202D01*
Y120500D01*
X86500D01*
Y71500D01*
G37*
G36*
X83426D02*X78502D01*
Y104000D01*
X78773D01*
X79316Y104049D01*
X79852Y104148D01*
X80378Y104295D01*
X80888Y104489D01*
X81378Y104728D01*
X81478Y104792D01*
X81566Y104872D01*
X81640Y104965D01*
X81699Y105068D01*
X81742Y105179D01*
X81766Y105295D01*
X81772Y105413D01*
X81760Y105532D01*
X81729Y105646D01*
X81680Y105755D01*
X81615Y105854D01*
X81535Y105942D01*
X81443Y106017D01*
X81340Y106076D01*
X81229Y106118D01*
X81113Y106143D01*
X80994Y106149D01*
X80876Y106136D01*
X80761Y106105D01*
X80654Y106054D01*
X80289Y105871D01*
X79907Y105726D01*
X79513Y105616D01*
X79111Y105542D01*
X78704Y105505D01*
X78502D01*
Y114495D01*
X78704D01*
X79111Y114458D01*
X79513Y114384D01*
X79907Y114274D01*
X80289Y114129D01*
X80656Y113950D01*
X80763Y113900D01*
X80877Y113869D01*
X80994Y113856D01*
X81112Y113862D01*
X81228Y113886D01*
X81338Y113928D01*
X81440Y113987D01*
X81532Y114061D01*
X81611Y114149D01*
X81676Y114248D01*
X81724Y114355D01*
X81755Y114469D01*
X81768Y114587D01*
X81762Y114705D01*
X81737Y114820D01*
X81695Y114930D01*
X81636Y115033D01*
X81562Y115125D01*
X81475Y115204D01*
X81375Y115266D01*
X80888Y115511D01*
X80378Y115705D01*
X79852Y115852D01*
X79316Y115951D01*
X78773Y116000D01*
X78502D01*
Y120500D01*
X83426D01*
Y113202D01*
X83321Y113242D01*
X83205Y113266D01*
X83087Y113272D01*
X82968Y113260D01*
X82854Y113229D01*
X82745Y113180D01*
X82646Y113115D01*
X82558Y113035D01*
X82483Y112943D01*
X82424Y112840D01*
X82382Y112729D01*
X82357Y112613D01*
X82351Y112494D01*
X82364Y112376D01*
X82395Y112261D01*
X82446Y112154D01*
X82629Y111789D01*
X82774Y111407D01*
X82884Y111013D01*
X82958Y110611D01*
X82995Y110204D01*
Y109796D01*
X82958Y109389D01*
X82884Y108987D01*
X82774Y108593D01*
X82629Y108211D01*
X82450Y107844D01*
X82400Y107737D01*
X82369Y107623D01*
X82356Y107506D01*
X82362Y107388D01*
X82386Y107272D01*
X82428Y107162D01*
X82487Y107060D01*
X82561Y106968D01*
X82649Y106889D01*
X82748Y106824D01*
X82855Y106776D01*
X82969Y106745D01*
X83087Y106732D01*
X83205Y106738D01*
X83320Y106763D01*
X83426Y106803D01*
Y71500D01*
G37*
G36*
X78502D02*X73574D01*
Y106798D01*
X73679Y106758D01*
X73795Y106734D01*
X73913Y106728D01*
X74032Y106740D01*
X74146Y106771D01*
X74255Y106820D01*
X74354Y106885D01*
X74442Y106965D01*
X74517Y107057D01*
X74576Y107160D01*
X74618Y107271D01*
X74643Y107387D01*
X74649Y107506D01*
X74636Y107624D01*
X74605Y107739D01*
X74554Y107846D01*
X74371Y108211D01*
X74226Y108593D01*
X74116Y108987D01*
X74042Y109389D01*
X74005Y109796D01*
Y110204D01*
X74042Y110611D01*
X74116Y111013D01*
X74226Y111407D01*
X74371Y111789D01*
X74550Y112156D01*
X74600Y112263D01*
X74631Y112377D01*
X74644Y112494D01*
X74638Y112612D01*
X74614Y112728D01*
X74572Y112838D01*
X74513Y112940D01*
X74439Y113032D01*
X74351Y113111D01*
X74252Y113176D01*
X74145Y113224D01*
X74031Y113255D01*
X73913Y113268D01*
X73795Y113262D01*
X73680Y113237D01*
X73574Y113197D01*
Y120500D01*
X78502D01*
Y116000D01*
X78227D01*
X77684Y115951D01*
X77148Y115852D01*
X76622Y115705D01*
X76112Y115511D01*
X75622Y115272D01*
X75522Y115208D01*
X75434Y115128D01*
X75360Y115035D01*
X75301Y114932D01*
X75258Y114821D01*
X75234Y114705D01*
X75228Y114587D01*
X75240Y114468D01*
X75271Y114354D01*
X75320Y114245D01*
X75385Y114146D01*
X75465Y114058D01*
X75557Y113983D01*
X75660Y113924D01*
X75771Y113882D01*
X75887Y113857D01*
X76006Y113851D01*
X76124Y113864D01*
X76239Y113895D01*
X76346Y113946D01*
X76711Y114129D01*
X77093Y114274D01*
X77487Y114384D01*
X77889Y114458D01*
X78296Y114495D01*
X78502D01*
Y105505D01*
X78296D01*
X77889Y105542D01*
X77487Y105616D01*
X77093Y105726D01*
X76711Y105871D01*
X76344Y106050D01*
X76237Y106100D01*
X76123Y106131D01*
X76006Y106144D01*
X75888Y106138D01*
X75772Y106114D01*
X75662Y106072D01*
X75560Y106013D01*
X75468Y105939D01*
X75389Y105851D01*
X75324Y105752D01*
X75276Y105645D01*
X75245Y105531D01*
X75232Y105413D01*
X75238Y105295D01*
X75263Y105180D01*
X75305Y105070D01*
X75364Y104967D01*
X75438Y104875D01*
X75525Y104796D01*
X75625Y104734D01*
X76112Y104489D01*
X76622Y104295D01*
X77148Y104148D01*
X77684Y104049D01*
X78227Y104000D01*
X78502D01*
Y71500D01*
G37*
G36*
X73574D02*X66500D01*
Y120500D01*
X73574D01*
Y113197D01*
X73570Y113195D01*
X73467Y113136D01*
X73375Y113062D01*
X73296Y112975D01*
X73234Y112875D01*
X72989Y112388D01*
X72795Y111878D01*
X72648Y111352D01*
X72549Y110816D01*
X72500Y110273D01*
Y109727D01*
X72549Y109184D01*
X72648Y108648D01*
X72795Y108122D01*
X72989Y107612D01*
X73228Y107122D01*
X73292Y107022D01*
X73372Y106934D01*
X73465Y106860D01*
X73568Y106801D01*
X73574Y106798D01*
Y71500D01*
G37*
G36*
X103750Y126500D02*X121406D01*
X121407Y125891D01*
X121444Y125738D01*
X121504Y125593D01*
X121586Y125458D01*
X121689Y125339D01*
X121808Y125236D01*
X121943Y125154D01*
X122088Y125094D01*
X122241Y125057D01*
X122398Y125048D01*
X124327Y125051D01*
X126398Y122981D01*
X126436Y122936D01*
X126500Y122881D01*
Y88500D01*
X103750D01*
Y106248D01*
X103868Y106257D01*
X103982Y106285D01*
X104092Y106330D01*
X104192Y106391D01*
X104282Y106468D01*
X104359Y106558D01*
X104420Y106658D01*
X104465Y106768D01*
X104493Y106882D01*
X104500Y107000D01*
Y113000D01*
X104493Y113118D01*
X104465Y113232D01*
X104420Y113342D01*
X104359Y113442D01*
X104282Y113532D01*
X104192Y113609D01*
X104092Y113670D01*
X103982Y113715D01*
X103868Y113743D01*
X103750Y113752D01*
Y126500D01*
G37*
G36*
X98500D02*X103750D01*
Y113752D01*
X103632Y113743D01*
X103518Y113715D01*
X103408Y113670D01*
X103308Y113609D01*
X103218Y113532D01*
X103141Y113442D01*
X103080Y113342D01*
X103035Y113232D01*
X103007Y113118D01*
X103000Y113000D01*
Y107000D01*
X103007Y106882D01*
X103035Y106768D01*
X103080Y106658D01*
X103141Y106558D01*
X103218Y106468D01*
X103308Y106391D01*
X103408Y106330D01*
X103518Y106285D01*
X103632Y106257D01*
X103750Y106248D01*
Y88500D01*
X98500D01*
Y104000D01*
X101500D01*
X101618Y104007D01*
X101732Y104035D01*
X101842Y104080D01*
X101942Y104141D01*
X102032Y104218D01*
X102109Y104308D01*
X102170Y104408D01*
X102215Y104518D01*
X102243Y104632D01*
X102252Y104750D01*
X102243Y104868D01*
X102215Y104982D01*
X102170Y105092D01*
X102109Y105192D01*
X102032Y105282D01*
X101942Y105359D01*
X101842Y105420D01*
X101732Y105465D01*
X101618Y105493D01*
X101500Y105500D01*
X98500D01*
Y114500D01*
X101500D01*
X101618Y114507D01*
X101732Y114535D01*
X101842Y114580D01*
X101942Y114641D01*
X102032Y114718D01*
X102109Y114808D01*
X102170Y114908D01*
X102215Y115018D01*
X102243Y115132D01*
X102252Y115250D01*
X102243Y115368D01*
X102215Y115482D01*
X102170Y115592D01*
X102109Y115692D01*
X102032Y115782D01*
X101942Y115859D01*
X101842Y115920D01*
X101732Y115965D01*
X101618Y115993D01*
X101500Y116000D01*
X98500D01*
Y126500D01*
G37*
G36*
X93250D02*X98500D01*
Y116000D01*
X95500D01*
X95382Y115993D01*
X95268Y115965D01*
X95158Y115920D01*
X95058Y115859D01*
X94968Y115782D01*
X94891Y115692D01*
X94830Y115592D01*
X94785Y115482D01*
X94757Y115368D01*
X94748Y115250D01*
X94757Y115132D01*
X94785Y115018D01*
X94830Y114908D01*
X94891Y114808D01*
X94968Y114718D01*
X95058Y114641D01*
X95158Y114580D01*
X95268Y114535D01*
X95382Y114507D01*
X95500Y114500D01*
X98500D01*
Y105500D01*
X95500D01*
X95382Y105493D01*
X95268Y105465D01*
X95158Y105420D01*
X95058Y105359D01*
X94968Y105282D01*
X94891Y105192D01*
X94830Y105092D01*
X94785Y104982D01*
X94757Y104868D01*
X94748Y104750D01*
X94757Y104632D01*
X94785Y104518D01*
X94830Y104408D01*
X94891Y104308D01*
X94968Y104218D01*
X95058Y104141D01*
X95158Y104080D01*
X95268Y104035D01*
X95382Y104007D01*
X95500Y104000D01*
X98500D01*
Y88500D01*
X93250D01*
Y106248D01*
X93368Y106257D01*
X93482Y106285D01*
X93592Y106330D01*
X93692Y106391D01*
X93782Y106468D01*
X93859Y106558D01*
X93920Y106658D01*
X93965Y106768D01*
X93993Y106882D01*
X94000Y107000D01*
Y113000D01*
X93993Y113118D01*
X93965Y113232D01*
X93920Y113342D01*
X93859Y113442D01*
X93782Y113532D01*
X93692Y113609D01*
X93592Y113670D01*
X93482Y113715D01*
X93368Y113743D01*
X93250Y113752D01*
Y126500D01*
G37*
G36*
X89000D02*X93250D01*
Y113752D01*
X93132Y113743D01*
X93018Y113715D01*
X92908Y113670D01*
X92808Y113609D01*
X92718Y113532D01*
X92641Y113442D01*
X92580Y113342D01*
X92535Y113232D01*
X92507Y113118D01*
X92500Y113000D01*
Y107000D01*
X92507Y106882D01*
X92535Y106768D01*
X92580Y106658D01*
X92641Y106558D01*
X92718Y106468D01*
X92808Y106391D01*
X92908Y106330D01*
X93018Y106285D01*
X93132Y106257D01*
X93250Y106248D01*
Y88500D01*
X89000D01*
Y126500D01*
G37*
G36*
X107500Y114500D02*X126500D01*
Y88500D01*
X107500D01*
Y114500D01*
G37*
G36*
X61480Y91000D02*X64000D01*
Y44500D01*
X61480D01*
Y50147D01*
X61489Y50156D01*
X61535Y50219D01*
X61766Y50608D01*
X61958Y51017D01*
X62114Y51442D01*
X62231Y51878D01*
X62310Y52323D01*
X62350Y52774D01*
Y53226D01*
X62310Y53677D01*
X62231Y54122D01*
X62114Y54558D01*
X61958Y54983D01*
X61766Y55392D01*
X61539Y55783D01*
X61492Y55847D01*
X61480Y55858D01*
Y91000D01*
G37*
G36*
X57202D02*X61480D01*
Y55858D01*
X61434Y55902D01*
X61369Y55947D01*
X61298Y55982D01*
X61222Y56005D01*
X61143Y56015D01*
X61064Y56014D01*
X60986Y56000D01*
X60911Y55974D01*
X60841Y55936D01*
X60778Y55888D01*
X60723Y55831D01*
X60678Y55766D01*
X60643Y55694D01*
X60620Y55619D01*
X60609Y55540D01*
X60611Y55461D01*
X60625Y55383D01*
X60651Y55308D01*
X60690Y55239D01*
X60876Y54926D01*
X61031Y54596D01*
X61156Y54255D01*
X61251Y53903D01*
X61314Y53545D01*
X61346Y53182D01*
Y52818D01*
X61314Y52455D01*
X61251Y52097D01*
X61156Y51745D01*
X61031Y51404D01*
X60876Y51074D01*
X60693Y50759D01*
X60655Y50691D01*
X60629Y50616D01*
X60615Y50539D01*
X60613Y50460D01*
X60624Y50382D01*
X60647Y50307D01*
X60681Y50236D01*
X60726Y50172D01*
X60780Y50115D01*
X60843Y50067D01*
X60913Y50030D01*
X60987Y50004D01*
X61064Y49990D01*
X61143Y49989D01*
X61221Y49999D01*
X61296Y50022D01*
X61367Y50056D01*
X61432Y50101D01*
X61480Y50147D01*
Y44500D01*
X57202D01*
Y47850D01*
X57426D01*
X57877Y47890D01*
X58322Y47969D01*
X58758Y48086D01*
X59183Y48242D01*
X59592Y48434D01*
X59983Y48661D01*
X60047Y48708D01*
X60102Y48766D01*
X60147Y48831D01*
X60182Y48902D01*
X60205Y48978D01*
X60215Y49057D01*
X60214Y49136D01*
X60200Y49214D01*
X60174Y49289D01*
X60136Y49359D01*
X60088Y49422D01*
X60031Y49477D01*
X59966Y49522D01*
X59894Y49557D01*
X59819Y49580D01*
X59740Y49591D01*
X59661Y49589D01*
X59583Y49575D01*
X59508Y49549D01*
X59439Y49510D01*
X59126Y49324D01*
X58796Y49169D01*
X58455Y49044D01*
X58103Y48949D01*
X57745Y48886D01*
X57382Y48854D01*
X57202D01*
Y57146D01*
X57382D01*
X57745Y57114D01*
X58103Y57051D01*
X58455Y56956D01*
X58796Y56831D01*
X59126Y56676D01*
X59441Y56493D01*
X59509Y56455D01*
X59584Y56429D01*
X59661Y56415D01*
X59740Y56413D01*
X59818Y56424D01*
X59893Y56447D01*
X59964Y56481D01*
X60028Y56526D01*
X60085Y56580D01*
X60133Y56643D01*
X60170Y56713D01*
X60196Y56787D01*
X60210Y56864D01*
X60211Y56943D01*
X60201Y57021D01*
X60178Y57096D01*
X60144Y57167D01*
X60099Y57232D01*
X60044Y57289D01*
X59981Y57335D01*
X59592Y57566D01*
X59183Y57758D01*
X58758Y57914D01*
X58322Y58031D01*
X57877Y58110D01*
X57426Y58150D01*
X57202D01*
Y91000D01*
G37*
G36*
X52920D02*X57202D01*
Y58150D01*
X56974D01*
X56523Y58110D01*
X56078Y58031D01*
X55642Y57914D01*
X55217Y57758D01*
X54808Y57566D01*
X54417Y57339D01*
X54353Y57292D01*
X54298Y57234D01*
X54253Y57169D01*
X54218Y57098D01*
X54195Y57022D01*
X54185Y56943D01*
X54186Y56864D01*
X54200Y56786D01*
X54226Y56711D01*
X54264Y56641D01*
X54312Y56578D01*
X54369Y56523D01*
X54434Y56478D01*
X54506Y56443D01*
X54581Y56420D01*
X54660Y56409D01*
X54739Y56411D01*
X54817Y56425D01*
X54892Y56451D01*
X54961Y56490D01*
X55274Y56676D01*
X55604Y56831D01*
X55945Y56956D01*
X56297Y57051D01*
X56655Y57114D01*
X57018Y57146D01*
X57202D01*
Y48854D01*
X57018D01*
X56655Y48886D01*
X56297Y48949D01*
X55945Y49044D01*
X55604Y49169D01*
X55274Y49324D01*
X54959Y49507D01*
X54891Y49545D01*
X54816Y49571D01*
X54739Y49585D01*
X54660Y49587D01*
X54582Y49576D01*
X54507Y49553D01*
X54436Y49519D01*
X54372Y49474D01*
X54315Y49420D01*
X54267Y49357D01*
X54230Y49287D01*
X54204Y49213D01*
X54190Y49136D01*
X54189Y49057D01*
X54199Y48979D01*
X54222Y48904D01*
X54256Y48833D01*
X54301Y48768D01*
X54356Y48711D01*
X54419Y48665D01*
X54808Y48434D01*
X55217Y48242D01*
X55642Y48086D01*
X56078Y47969D01*
X56523Y47890D01*
X56974Y47850D01*
X57202D01*
Y44500D01*
X52920D01*
Y50142D01*
X52966Y50098D01*
X53031Y50053D01*
X53102Y50018D01*
X53178Y49995D01*
X53257Y49985D01*
X53336Y49986D01*
X53414Y50000D01*
X53489Y50026D01*
X53559Y50064D01*
X53622Y50112D01*
X53677Y50169D01*
X53722Y50234D01*
X53757Y50306D01*
X53780Y50381D01*
X53791Y50460D01*
X53789Y50539D01*
X53775Y50617D01*
X53749Y50692D01*
X53710Y50761D01*
X53524Y51074D01*
X53369Y51404D01*
X53244Y51745D01*
X53149Y52097D01*
X53086Y52455D01*
X53054Y52818D01*
Y53182D01*
X53086Y53545D01*
X53149Y53903D01*
X53244Y54255D01*
X53369Y54596D01*
X53524Y54926D01*
X53707Y55241D01*
X53745Y55309D01*
X53771Y55384D01*
X53785Y55461D01*
X53787Y55540D01*
X53776Y55618D01*
X53753Y55693D01*
X53719Y55764D01*
X53674Y55828D01*
X53620Y55885D01*
X53557Y55933D01*
X53487Y55970D01*
X53413Y55996D01*
X53336Y56010D01*
X53257Y56011D01*
X53179Y56001D01*
X53104Y55978D01*
X53033Y55944D01*
X52968Y55899D01*
X52920Y55853D01*
Y91000D01*
G37*
G36*
X48080D02*X52920D01*
Y55853D01*
X52911Y55844D01*
X52865Y55781D01*
X52634Y55392D01*
X52442Y54983D01*
X52286Y54558D01*
X52169Y54122D01*
X52090Y53677D01*
X52050Y53226D01*
Y52774D01*
X52090Y52323D01*
X52169Y51878D01*
X52286Y51442D01*
X52442Y51017D01*
X52634Y50608D01*
X52861Y50217D01*
X52908Y50153D01*
X52920Y50142D01*
Y44500D01*
X48080D01*
Y50147D01*
X48089Y50156D01*
X48135Y50219D01*
X48366Y50608D01*
X48558Y51017D01*
X48714Y51442D01*
X48831Y51878D01*
X48910Y52323D01*
X48950Y52774D01*
Y53226D01*
X48910Y53677D01*
X48831Y54122D01*
X48714Y54558D01*
X48558Y54983D01*
X48366Y55392D01*
X48139Y55783D01*
X48092Y55847D01*
X48080Y55858D01*
Y91000D01*
G37*
G36*
X44926D02*X48080D01*
Y55858D01*
X48034Y55902D01*
X47969Y55947D01*
X47898Y55982D01*
X47822Y56005D01*
X47743Y56015D01*
X47664Y56014D01*
X47586Y56000D01*
X47511Y55974D01*
X47441Y55936D01*
X47378Y55888D01*
X47323Y55831D01*
X47278Y55766D01*
X47243Y55694D01*
X47220Y55619D01*
X47209Y55540D01*
X47211Y55461D01*
X47225Y55383D01*
X47251Y55308D01*
X47290Y55239D01*
X47476Y54926D01*
X47631Y54596D01*
X47756Y54255D01*
X47851Y53903D01*
X47914Y53545D01*
X47946Y53182D01*
Y52818D01*
X47914Y52455D01*
X47851Y52097D01*
X47756Y51745D01*
X47631Y51404D01*
X47476Y51074D01*
X47293Y50759D01*
X47255Y50691D01*
X47229Y50616D01*
X47215Y50539D01*
X47213Y50460D01*
X47224Y50382D01*
X47247Y50307D01*
X47281Y50236D01*
X47326Y50172D01*
X47380Y50115D01*
X47443Y50067D01*
X47513Y50030D01*
X47587Y50004D01*
X47664Y49990D01*
X47743Y49989D01*
X47821Y49999D01*
X47896Y50022D01*
X47967Y50056D01*
X48032Y50101D01*
X48080Y50147D01*
Y44500D01*
X44926D01*
Y47970D01*
X45358Y48086D01*
X45783Y48242D01*
X46192Y48434D01*
X46583Y48661D01*
X46647Y48708D01*
X46702Y48766D01*
X46747Y48831D01*
X46782Y48902D01*
X46805Y48978D01*
X46815Y49057D01*
X46814Y49136D01*
X46800Y49214D01*
X46774Y49289D01*
X46736Y49359D01*
X46688Y49422D01*
X46631Y49477D01*
X46566Y49522D01*
X46494Y49557D01*
X46419Y49580D01*
X46340Y49591D01*
X46261Y49589D01*
X46183Y49575D01*
X46108Y49549D01*
X46039Y49510D01*
X45726Y49324D01*
X45396Y49169D01*
X45055Y49044D01*
X44926Y49009D01*
Y56991D01*
X45055Y56956D01*
X45396Y56831D01*
X45726Y56676D01*
X46041Y56493D01*
X46109Y56455D01*
X46184Y56429D01*
X46261Y56415D01*
X46340Y56413D01*
X46418Y56424D01*
X46493Y56447D01*
X46564Y56481D01*
X46628Y56526D01*
X46685Y56580D01*
X46733Y56643D01*
X46770Y56713D01*
X46796Y56787D01*
X46810Y56864D01*
X46811Y56943D01*
X46801Y57021D01*
X46778Y57096D01*
X46744Y57167D01*
X46699Y57232D01*
X46644Y57289D01*
X46581Y57335D01*
X46192Y57566D01*
X45783Y57758D01*
X45358Y57914D01*
X44926Y58030D01*
Y78803D01*
X44930Y78805D01*
X45033Y78864D01*
X45125Y78938D01*
X45204Y79025D01*
X45266Y79125D01*
X45511Y79612D01*
X45705Y80122D01*
X45852Y80648D01*
X45951Y81184D01*
X46000Y81727D01*
Y82273D01*
X45951Y82816D01*
X45852Y83352D01*
X45705Y83878D01*
X45511Y84388D01*
X45272Y84878D01*
X45208Y84978D01*
X45128Y85066D01*
X45035Y85140D01*
X44932Y85199D01*
X44926Y85202D01*
Y91000D01*
G37*
G36*
Y49009D02*X44703Y48949D01*
X44345Y48886D01*
X43982Y48854D01*
X43802D01*
Y57146D01*
X43982D01*
X44345Y57114D01*
X44703Y57051D01*
X44926Y56991D01*
Y49009D01*
G37*
G36*
Y44500D02*X43802D01*
Y47850D01*
X44026D01*
X44477Y47890D01*
X44922Y47969D01*
X44926Y47970D01*
Y44500D01*
G37*
G36*
X43802Y91000D02*X44926D01*
Y85202D01*
X44821Y85242D01*
X44705Y85266D01*
X44587Y85272D01*
X44468Y85260D01*
X44354Y85229D01*
X44245Y85180D01*
X44146Y85115D01*
X44058Y85035D01*
X43983Y84943D01*
X43924Y84840D01*
X43882Y84729D01*
X43857Y84613D01*
X43851Y84494D01*
X43864Y84376D01*
X43895Y84261D01*
X43946Y84154D01*
X44129Y83789D01*
X44274Y83407D01*
X44384Y83013D01*
X44458Y82611D01*
X44495Y82204D01*
Y81796D01*
X44458Y81389D01*
X44384Y80987D01*
X44274Y80593D01*
X44129Y80211D01*
X43950Y79844D01*
X43900Y79737D01*
X43869Y79623D01*
X43856Y79506D01*
X43862Y79388D01*
X43886Y79272D01*
X43928Y79162D01*
X43987Y79060D01*
X44061Y78968D01*
X44149Y78889D01*
X44248Y78824D01*
X44355Y78776D01*
X44469Y78745D01*
X44587Y78732D01*
X44705Y78738D01*
X44820Y78763D01*
X44926Y78803D01*
Y58030D01*
X44922Y58031D01*
X44477Y58110D01*
X44026Y58150D01*
X43802D01*
Y91000D01*
G37*
G36*
X39520D02*X43802D01*
Y58150D01*
X43574D01*
X43123Y58110D01*
X42678Y58031D01*
X42242Y57914D01*
X41817Y57758D01*
X41408Y57566D01*
X41017Y57339D01*
X40953Y57292D01*
X40898Y57234D01*
X40853Y57169D01*
X40818Y57098D01*
X40795Y57022D01*
X40785Y56943D01*
X40786Y56864D01*
X40800Y56786D01*
X40826Y56711D01*
X40864Y56641D01*
X40912Y56578D01*
X40969Y56523D01*
X41034Y56478D01*
X41106Y56443D01*
X41181Y56420D01*
X41260Y56409D01*
X41339Y56411D01*
X41417Y56425D01*
X41492Y56451D01*
X41561Y56490D01*
X41874Y56676D01*
X42204Y56831D01*
X42545Y56956D01*
X42897Y57051D01*
X43255Y57114D01*
X43618Y57146D01*
X43802D01*
Y48854D01*
X43618D01*
X43255Y48886D01*
X42897Y48949D01*
X42545Y49044D01*
X42204Y49169D01*
X41874Y49324D01*
X41559Y49507D01*
X41491Y49545D01*
X41416Y49571D01*
X41339Y49585D01*
X41260Y49587D01*
X41182Y49576D01*
X41107Y49553D01*
X41036Y49519D01*
X40972Y49474D01*
X40915Y49420D01*
X40867Y49357D01*
X40830Y49287D01*
X40804Y49213D01*
X40790Y49136D01*
X40789Y49057D01*
X40799Y48979D01*
X40822Y48904D01*
X40856Y48833D01*
X40901Y48768D01*
X40956Y48711D01*
X41019Y48665D01*
X41408Y48434D01*
X41817Y48242D01*
X42242Y48086D01*
X42678Y47969D01*
X43123Y47890D01*
X43574Y47850D01*
X43802D01*
Y44500D01*
X39520D01*
Y50142D01*
X39566Y50098D01*
X39631Y50053D01*
X39702Y50018D01*
X39778Y49995D01*
X39857Y49985D01*
X39936Y49986D01*
X40014Y50000D01*
X40089Y50026D01*
X40159Y50064D01*
X40222Y50112D01*
X40277Y50169D01*
X40322Y50234D01*
X40357Y50306D01*
X40380Y50381D01*
X40391Y50460D01*
X40389Y50539D01*
X40375Y50617D01*
X40349Y50692D01*
X40310Y50761D01*
X40124Y51074D01*
X39969Y51404D01*
X39844Y51745D01*
X39749Y52097D01*
X39686Y52455D01*
X39654Y52818D01*
Y53182D01*
X39686Y53545D01*
X39749Y53903D01*
X39844Y54255D01*
X39969Y54596D01*
X40124Y54926D01*
X40307Y55241D01*
X40345Y55309D01*
X40371Y55384D01*
X40385Y55461D01*
X40387Y55540D01*
X40376Y55618D01*
X40353Y55693D01*
X40319Y55764D01*
X40274Y55828D01*
X40220Y55885D01*
X40157Y55933D01*
X40087Y55970D01*
X40013Y55996D01*
X39936Y56010D01*
X39857Y56011D01*
X39779Y56001D01*
X39704Y55978D01*
X39633Y55944D01*
X39568Y55899D01*
X39520Y55853D01*
Y76019D01*
X39727Y76000D01*
X40273D01*
X40816Y76049D01*
X41352Y76148D01*
X41878Y76295D01*
X42388Y76489D01*
X42878Y76728D01*
X42978Y76792D01*
X43066Y76872D01*
X43140Y76965D01*
X43199Y77068D01*
X43242Y77179D01*
X43266Y77295D01*
X43272Y77413D01*
X43260Y77532D01*
X43229Y77646D01*
X43180Y77755D01*
X43115Y77854D01*
X43035Y77942D01*
X42943Y78017D01*
X42840Y78076D01*
X42729Y78118D01*
X42613Y78143D01*
X42494Y78149D01*
X42376Y78136D01*
X42261Y78105D01*
X42154Y78054D01*
X41789Y77871D01*
X41407Y77726D01*
X41013Y77616D01*
X40611Y77542D01*
X40204Y77505D01*
X39796D01*
X39520Y77530D01*
Y86470D01*
X39796Y86495D01*
X40204D01*
X40611Y86458D01*
X41013Y86384D01*
X41407Y86274D01*
X41789Y86129D01*
X42156Y85950D01*
X42263Y85900D01*
X42377Y85869D01*
X42494Y85856D01*
X42612Y85862D01*
X42728Y85886D01*
X42838Y85928D01*
X42940Y85987D01*
X43032Y86061D01*
X43111Y86149D01*
X43176Y86248D01*
X43224Y86355D01*
X43255Y86469D01*
X43268Y86587D01*
X43262Y86705D01*
X43237Y86820D01*
X43195Y86930D01*
X43136Y87033D01*
X43062Y87125D01*
X42975Y87204D01*
X42875Y87266D01*
X42388Y87511D01*
X41878Y87705D01*
X41352Y87852D01*
X40816Y87951D01*
X40273Y88000D01*
X39727D01*
X39520Y87981D01*
Y91000D01*
G37*
G36*
X35074D02*X39520D01*
Y87981D01*
X39184Y87951D01*
X38648Y87852D01*
X38122Y87705D01*
X37612Y87511D01*
X37122Y87272D01*
X37022Y87208D01*
X36934Y87128D01*
X36860Y87035D01*
X36801Y86932D01*
X36758Y86821D01*
X36734Y86705D01*
X36728Y86587D01*
X36740Y86468D01*
X36771Y86354D01*
X36820Y86245D01*
X36885Y86146D01*
X36965Y86058D01*
X37057Y85983D01*
X37160Y85924D01*
X37271Y85882D01*
X37387Y85857D01*
X37506Y85851D01*
X37624Y85864D01*
X37739Y85895D01*
X37846Y85946D01*
X38211Y86129D01*
X38593Y86274D01*
X38987Y86384D01*
X39389Y86458D01*
X39520Y86470D01*
Y77530D01*
X39389Y77542D01*
X38987Y77616D01*
X38593Y77726D01*
X38211Y77871D01*
X37844Y78050D01*
X37737Y78100D01*
X37623Y78131D01*
X37506Y78144D01*
X37388Y78138D01*
X37272Y78114D01*
X37162Y78072D01*
X37060Y78013D01*
X36968Y77939D01*
X36889Y77851D01*
X36824Y77752D01*
X36776Y77645D01*
X36745Y77531D01*
X36732Y77413D01*
X36738Y77295D01*
X36763Y77180D01*
X36805Y77070D01*
X36864Y76967D01*
X36938Y76875D01*
X37025Y76796D01*
X37125Y76734D01*
X37612Y76489D01*
X38122Y76295D01*
X38648Y76148D01*
X39184Y76049D01*
X39520Y76019D01*
Y55853D01*
X39511Y55844D01*
X39465Y55781D01*
X39234Y55392D01*
X39042Y54983D01*
X38886Y54558D01*
X38769Y54122D01*
X38690Y53677D01*
X38650Y53226D01*
Y52774D01*
X38690Y52323D01*
X38769Y51878D01*
X38886Y51442D01*
X39042Y51017D01*
X39234Y50608D01*
X39461Y50217D01*
X39508Y50153D01*
X39520Y50142D01*
Y44500D01*
X35074D01*
Y78798D01*
X35179Y78758D01*
X35295Y78734D01*
X35413Y78728D01*
X35532Y78740D01*
X35646Y78771D01*
X35755Y78820D01*
X35854Y78885D01*
X35942Y78965D01*
X36017Y79057D01*
X36076Y79160D01*
X36118Y79271D01*
X36143Y79387D01*
X36149Y79506D01*
X36136Y79624D01*
X36105Y79739D01*
X36054Y79846D01*
X35871Y80211D01*
X35726Y80593D01*
X35616Y80987D01*
X35542Y81389D01*
X35505Y81796D01*
Y82204D01*
X35542Y82611D01*
X35616Y83013D01*
X35726Y83407D01*
X35871Y83789D01*
X36050Y84156D01*
X36100Y84263D01*
X36131Y84377D01*
X36144Y84494D01*
X36138Y84612D01*
X36114Y84728D01*
X36072Y84838D01*
X36013Y84940D01*
X35939Y85032D01*
X35851Y85111D01*
X35752Y85176D01*
X35645Y85224D01*
X35531Y85255D01*
X35413Y85268D01*
X35295Y85262D01*
X35180Y85237D01*
X35074Y85197D01*
Y91000D01*
G37*
G36*
X10000D02*X35074D01*
Y85197D01*
X35070Y85195D01*
X34967Y85136D01*
X34875Y85062D01*
X34796Y84975D01*
X34734Y84875D01*
X34489Y84388D01*
X34295Y83878D01*
X34148Y83352D01*
X34049Y82816D01*
X34000Y82273D01*
Y81727D01*
X34049Y81184D01*
X34148Y80648D01*
X34295Y80122D01*
X34489Y79612D01*
X34728Y79122D01*
X34792Y79022D01*
X34872Y78934D01*
X34965Y78860D01*
X35068Y78801D01*
X35074Y78798D01*
Y44500D01*
X10000D01*
Y91000D01*
G37*
G36*
X61480Y40000D02*X67500D01*
Y2500D01*
X61480D01*
Y11147D01*
X61489Y11156D01*
X61535Y11219D01*
X61766Y11608D01*
X61958Y12017D01*
X62114Y12442D01*
X62231Y12878D01*
X62310Y13323D01*
X62350Y13774D01*
Y14226D01*
X62310Y14677D01*
X62231Y15122D01*
X62114Y15558D01*
X61958Y15983D01*
X61766Y16392D01*
X61539Y16783D01*
X61492Y16847D01*
X61480Y16858D01*
Y40000D01*
G37*
G36*
X57202D02*X61480D01*
Y16858D01*
X61434Y16902D01*
X61369Y16947D01*
X61298Y16982D01*
X61222Y17005D01*
X61143Y17015D01*
X61064Y17014D01*
X60986Y17000D01*
X60911Y16974D01*
X60841Y16936D01*
X60778Y16888D01*
X60723Y16831D01*
X60678Y16766D01*
X60643Y16694D01*
X60620Y16619D01*
X60609Y16540D01*
X60611Y16461D01*
X60625Y16383D01*
X60651Y16308D01*
X60690Y16239D01*
X60876Y15926D01*
X61031Y15596D01*
X61156Y15255D01*
X61251Y14903D01*
X61314Y14545D01*
X61346Y14182D01*
Y13818D01*
X61314Y13455D01*
X61251Y13097D01*
X61156Y12745D01*
X61031Y12404D01*
X60876Y12074D01*
X60693Y11759D01*
X60655Y11691D01*
X60629Y11616D01*
X60615Y11539D01*
X60613Y11460D01*
X60624Y11382D01*
X60647Y11307D01*
X60681Y11236D01*
X60726Y11172D01*
X60780Y11115D01*
X60843Y11067D01*
X60913Y11030D01*
X60987Y11004D01*
X61064Y10990D01*
X61143Y10989D01*
X61221Y10999D01*
X61296Y11022D01*
X61367Y11056D01*
X61432Y11101D01*
X61480Y11147D01*
Y2500D01*
X57202D01*
Y8850D01*
X57426D01*
X57877Y8890D01*
X58322Y8969D01*
X58758Y9086D01*
X59183Y9242D01*
X59592Y9434D01*
X59983Y9661D01*
X60047Y9708D01*
X60102Y9766D01*
X60147Y9831D01*
X60182Y9902D01*
X60205Y9978D01*
X60215Y10057D01*
X60214Y10136D01*
X60200Y10214D01*
X60174Y10289D01*
X60136Y10359D01*
X60088Y10422D01*
X60031Y10477D01*
X59966Y10522D01*
X59894Y10557D01*
X59819Y10580D01*
X59740Y10591D01*
X59661Y10589D01*
X59583Y10575D01*
X59508Y10549D01*
X59439Y10510D01*
X59126Y10324D01*
X58796Y10169D01*
X58455Y10044D01*
X58103Y9949D01*
X57745Y9886D01*
X57382Y9854D01*
X57202D01*
Y18146D01*
X57382D01*
X57745Y18114D01*
X58103Y18051D01*
X58455Y17956D01*
X58796Y17831D01*
X59126Y17676D01*
X59441Y17493D01*
X59509Y17455D01*
X59584Y17429D01*
X59661Y17415D01*
X59740Y17413D01*
X59818Y17424D01*
X59893Y17447D01*
X59964Y17481D01*
X60028Y17526D01*
X60085Y17580D01*
X60133Y17643D01*
X60170Y17713D01*
X60196Y17787D01*
X60210Y17864D01*
X60211Y17943D01*
X60201Y18021D01*
X60178Y18096D01*
X60144Y18167D01*
X60099Y18232D01*
X60044Y18289D01*
X59981Y18335D01*
X59592Y18566D01*
X59183Y18758D01*
X58758Y18914D01*
X58322Y19031D01*
X57877Y19110D01*
X57426Y19150D01*
X57202D01*
Y40000D01*
G37*
G36*
X52920D02*X57202D01*
Y19150D01*
X56974D01*
X56523Y19110D01*
X56078Y19031D01*
X55642Y18914D01*
X55217Y18758D01*
X54808Y18566D01*
X54417Y18339D01*
X54353Y18292D01*
X54298Y18234D01*
X54253Y18169D01*
X54218Y18098D01*
X54195Y18022D01*
X54185Y17943D01*
X54186Y17864D01*
X54200Y17786D01*
X54226Y17711D01*
X54264Y17641D01*
X54312Y17578D01*
X54369Y17523D01*
X54434Y17478D01*
X54506Y17443D01*
X54581Y17420D01*
X54660Y17409D01*
X54739Y17411D01*
X54817Y17425D01*
X54892Y17451D01*
X54961Y17490D01*
X55274Y17676D01*
X55604Y17831D01*
X55945Y17956D01*
X56297Y18051D01*
X56655Y18114D01*
X57018Y18146D01*
X57202D01*
Y9854D01*
X57018D01*
X56655Y9886D01*
X56297Y9949D01*
X55945Y10044D01*
X55604Y10169D01*
X55274Y10324D01*
X54959Y10507D01*
X54891Y10545D01*
X54816Y10571D01*
X54739Y10585D01*
X54660Y10587D01*
X54582Y10576D01*
X54507Y10553D01*
X54436Y10519D01*
X54372Y10474D01*
X54315Y10420D01*
X54267Y10357D01*
X54230Y10287D01*
X54204Y10213D01*
X54190Y10136D01*
X54189Y10057D01*
X54199Y9979D01*
X54222Y9904D01*
X54256Y9833D01*
X54301Y9768D01*
X54356Y9711D01*
X54419Y9665D01*
X54808Y9434D01*
X55217Y9242D01*
X55642Y9086D01*
X56078Y8969D01*
X56523Y8890D01*
X56974Y8850D01*
X57202D01*
Y2500D01*
X52920D01*
Y11142D01*
X52966Y11098D01*
X53031Y11053D01*
X53102Y11018D01*
X53178Y10995D01*
X53257Y10985D01*
X53336Y10986D01*
X53414Y11000D01*
X53489Y11026D01*
X53559Y11064D01*
X53622Y11112D01*
X53677Y11169D01*
X53722Y11234D01*
X53757Y11306D01*
X53780Y11381D01*
X53791Y11460D01*
X53789Y11539D01*
X53775Y11617D01*
X53749Y11692D01*
X53710Y11761D01*
X53524Y12074D01*
X53369Y12404D01*
X53244Y12745D01*
X53149Y13097D01*
X53086Y13455D01*
X53054Y13818D01*
Y14182D01*
X53086Y14545D01*
X53149Y14903D01*
X53244Y15255D01*
X53369Y15596D01*
X53524Y15926D01*
X53707Y16241D01*
X53745Y16309D01*
X53771Y16384D01*
X53785Y16461D01*
X53787Y16540D01*
X53776Y16618D01*
X53753Y16693D01*
X53719Y16764D01*
X53674Y16828D01*
X53620Y16885D01*
X53557Y16933D01*
X53487Y16970D01*
X53413Y16996D01*
X53336Y17010D01*
X53257Y17011D01*
X53179Y17001D01*
X53104Y16978D01*
X53033Y16944D01*
X52968Y16899D01*
X52920Y16853D01*
Y40000D01*
G37*
G36*
X48080D02*X52920D01*
Y16853D01*
X52911Y16844D01*
X52865Y16781D01*
X52634Y16392D01*
X52442Y15983D01*
X52286Y15558D01*
X52169Y15122D01*
X52090Y14677D01*
X52050Y14226D01*
Y13774D01*
X52090Y13323D01*
X52169Y12878D01*
X52286Y12442D01*
X52442Y12017D01*
X52634Y11608D01*
X52861Y11217D01*
X52908Y11153D01*
X52920Y11142D01*
Y2500D01*
X48080D01*
Y11147D01*
X48089Y11156D01*
X48135Y11219D01*
X48366Y11608D01*
X48558Y12017D01*
X48714Y12442D01*
X48831Y12878D01*
X48910Y13323D01*
X48950Y13774D01*
Y14226D01*
X48910Y14677D01*
X48831Y15122D01*
X48714Y15558D01*
X48558Y15983D01*
X48366Y16392D01*
X48139Y16783D01*
X48092Y16847D01*
X48080Y16858D01*
Y40000D01*
G37*
G36*
X43802D02*X48080D01*
Y16858D01*
X48034Y16902D01*
X47969Y16947D01*
X47898Y16982D01*
X47822Y17005D01*
X47743Y17015D01*
X47664Y17014D01*
X47586Y17000D01*
X47511Y16974D01*
X47441Y16936D01*
X47378Y16888D01*
X47323Y16831D01*
X47278Y16766D01*
X47243Y16694D01*
X47220Y16619D01*
X47209Y16540D01*
X47211Y16461D01*
X47225Y16383D01*
X47251Y16308D01*
X47290Y16239D01*
X47476Y15926D01*
X47631Y15596D01*
X47756Y15255D01*
X47851Y14903D01*
X47914Y14545D01*
X47946Y14182D01*
Y13818D01*
X47914Y13455D01*
X47851Y13097D01*
X47756Y12745D01*
X47631Y12404D01*
X47476Y12074D01*
X47293Y11759D01*
X47255Y11691D01*
X47229Y11616D01*
X47215Y11539D01*
X47213Y11460D01*
X47224Y11382D01*
X47247Y11307D01*
X47281Y11236D01*
X47326Y11172D01*
X47380Y11115D01*
X47443Y11067D01*
X47513Y11030D01*
X47587Y11004D01*
X47664Y10990D01*
X47743Y10989D01*
X47821Y10999D01*
X47896Y11022D01*
X47967Y11056D01*
X48032Y11101D01*
X48080Y11147D01*
Y2500D01*
X43802D01*
Y8850D01*
X44026D01*
X44477Y8890D01*
X44922Y8969D01*
X45358Y9086D01*
X45783Y9242D01*
X46192Y9434D01*
X46583Y9661D01*
X46647Y9708D01*
X46702Y9766D01*
X46747Y9831D01*
X46782Y9902D01*
X46805Y9978D01*
X46815Y10057D01*
X46814Y10136D01*
X46800Y10214D01*
X46774Y10289D01*
X46736Y10359D01*
X46688Y10422D01*
X46631Y10477D01*
X46566Y10522D01*
X46494Y10557D01*
X46419Y10580D01*
X46340Y10591D01*
X46261Y10589D01*
X46183Y10575D01*
X46108Y10549D01*
X46039Y10510D01*
X45726Y10324D01*
X45396Y10169D01*
X45055Y10044D01*
X44703Y9949D01*
X44345Y9886D01*
X43982Y9854D01*
X43802D01*
Y18146D01*
X43982D01*
X44345Y18114D01*
X44703Y18051D01*
X45055Y17956D01*
X45396Y17831D01*
X45726Y17676D01*
X46041Y17493D01*
X46109Y17455D01*
X46184Y17429D01*
X46261Y17415D01*
X46340Y17413D01*
X46418Y17424D01*
X46493Y17447D01*
X46564Y17481D01*
X46628Y17526D01*
X46685Y17580D01*
X46733Y17643D01*
X46770Y17713D01*
X46796Y17787D01*
X46810Y17864D01*
X46811Y17943D01*
X46801Y18021D01*
X46778Y18096D01*
X46744Y18167D01*
X46699Y18232D01*
X46644Y18289D01*
X46581Y18335D01*
X46192Y18566D01*
X45783Y18758D01*
X45358Y18914D01*
X44922Y19031D01*
X44477Y19110D01*
X44026Y19150D01*
X43802D01*
Y40000D01*
G37*
G36*
X39520D02*X43802D01*
Y19150D01*
X43574D01*
X43123Y19110D01*
X42678Y19031D01*
X42242Y18914D01*
X41817Y18758D01*
X41408Y18566D01*
X41017Y18339D01*
X40953Y18292D01*
X40898Y18234D01*
X40853Y18169D01*
X40818Y18098D01*
X40795Y18022D01*
X40785Y17943D01*
X40786Y17864D01*
X40800Y17786D01*
X40826Y17711D01*
X40864Y17641D01*
X40912Y17578D01*
X40969Y17523D01*
X41034Y17478D01*
X41106Y17443D01*
X41181Y17420D01*
X41260Y17409D01*
X41339Y17411D01*
X41417Y17425D01*
X41492Y17451D01*
X41561Y17490D01*
X41874Y17676D01*
X42204Y17831D01*
X42545Y17956D01*
X42897Y18051D01*
X43255Y18114D01*
X43618Y18146D01*
X43802D01*
Y9854D01*
X43618D01*
X43255Y9886D01*
X42897Y9949D01*
X42545Y10044D01*
X42204Y10169D01*
X41874Y10324D01*
X41559Y10507D01*
X41491Y10545D01*
X41416Y10571D01*
X41339Y10585D01*
X41260Y10587D01*
X41182Y10576D01*
X41107Y10553D01*
X41036Y10519D01*
X40972Y10474D01*
X40915Y10420D01*
X40867Y10357D01*
X40830Y10287D01*
X40804Y10213D01*
X40790Y10136D01*
X40789Y10057D01*
X40799Y9979D01*
X40822Y9904D01*
X40856Y9833D01*
X40901Y9768D01*
X40956Y9711D01*
X41019Y9665D01*
X41408Y9434D01*
X41817Y9242D01*
X42242Y9086D01*
X42678Y8969D01*
X43123Y8890D01*
X43574Y8850D01*
X43802D01*
Y2500D01*
X39520D01*
Y11142D01*
X39566Y11098D01*
X39631Y11053D01*
X39702Y11018D01*
X39778Y10995D01*
X39857Y10985D01*
X39936Y10986D01*
X40014Y11000D01*
X40089Y11026D01*
X40159Y11064D01*
X40222Y11112D01*
X40277Y11169D01*
X40322Y11234D01*
X40357Y11306D01*
X40380Y11381D01*
X40391Y11460D01*
X40389Y11539D01*
X40375Y11617D01*
X40349Y11692D01*
X40310Y11761D01*
X40124Y12074D01*
X39969Y12404D01*
X39844Y12745D01*
X39749Y13097D01*
X39686Y13455D01*
X39654Y13818D01*
Y14182D01*
X39686Y14545D01*
X39749Y14903D01*
X39844Y15255D01*
X39969Y15596D01*
X40124Y15926D01*
X40307Y16241D01*
X40345Y16309D01*
X40371Y16384D01*
X40385Y16461D01*
X40387Y16540D01*
X40376Y16618D01*
X40353Y16693D01*
X40319Y16764D01*
X40274Y16828D01*
X40220Y16885D01*
X40157Y16933D01*
X40087Y16970D01*
X40013Y16996D01*
X39936Y17010D01*
X39857Y17011D01*
X39779Y17001D01*
X39704Y16978D01*
X39633Y16944D01*
X39568Y16899D01*
X39520Y16853D01*
Y40000D01*
G37*
G36*
X37000D02*X39520D01*
Y16853D01*
X39511Y16844D01*
X39465Y16781D01*
X39234Y16392D01*
X39042Y15983D01*
X38886Y15558D01*
X38769Y15122D01*
X38690Y14677D01*
X38650Y14226D01*
Y13774D01*
X38690Y13323D01*
X38769Y12878D01*
X38886Y12442D01*
X39042Y12017D01*
X39234Y11608D01*
X39461Y11217D01*
X39508Y11153D01*
X39520Y11142D01*
Y2500D01*
X37000D01*
Y40000D01*
G37*
G36*
X116250Y73500D02*X123000D01*
Y29500D01*
X116250D01*
Y36248D01*
X116368Y36257D01*
X116482Y36285D01*
X116592Y36330D01*
X116692Y36391D01*
X116782Y36468D01*
X116859Y36558D01*
X116920Y36658D01*
X116965Y36768D01*
X116993Y36882D01*
X117000Y37000D01*
Y43000D01*
X116993Y43118D01*
X116965Y43232D01*
X116920Y43342D01*
X116859Y43442D01*
X116782Y43532D01*
X116692Y43609D01*
X116592Y43670D01*
X116482Y43715D01*
X116368Y43743D01*
X116250Y43752D01*
Y73500D01*
G37*
G36*
X111000D02*X116250D01*
Y43752D01*
X116132Y43743D01*
X116018Y43715D01*
X115908Y43670D01*
X115808Y43609D01*
X115718Y43532D01*
X115641Y43442D01*
X115580Y43342D01*
X115535Y43232D01*
X115507Y43118D01*
X115500Y43000D01*
Y37000D01*
X115507Y36882D01*
X115535Y36768D01*
X115580Y36658D01*
X115641Y36558D01*
X115718Y36468D01*
X115808Y36391D01*
X115908Y36330D01*
X116018Y36285D01*
X116132Y36257D01*
X116250Y36248D01*
Y29500D01*
X111000D01*
Y34000D01*
X114000D01*
X114118Y34007D01*
X114232Y34035D01*
X114342Y34080D01*
X114442Y34141D01*
X114532Y34218D01*
X114609Y34308D01*
X114670Y34408D01*
X114715Y34518D01*
X114743Y34632D01*
X114752Y34750D01*
X114743Y34868D01*
X114715Y34982D01*
X114670Y35092D01*
X114609Y35192D01*
X114532Y35282D01*
X114442Y35359D01*
X114342Y35420D01*
X114232Y35465D01*
X114118Y35493D01*
X114000Y35500D01*
X111000D01*
Y44500D01*
X114000D01*
X114118Y44507D01*
X114232Y44535D01*
X114342Y44580D01*
X114442Y44641D01*
X114532Y44718D01*
X114609Y44808D01*
X114670Y44908D01*
X114715Y45018D01*
X114743Y45132D01*
X114752Y45250D01*
X114743Y45368D01*
X114715Y45482D01*
X114670Y45592D01*
X114609Y45692D01*
X114532Y45782D01*
X114442Y45859D01*
X114342Y45920D01*
X114232Y45965D01*
X114118Y45993D01*
X114000Y46000D01*
X111000D01*
Y73500D01*
G37*
G36*
X105750D02*X111000D01*
Y46000D01*
X108000D01*
X107882Y45993D01*
X107768Y45965D01*
X107658Y45920D01*
X107558Y45859D01*
X107468Y45782D01*
X107391Y45692D01*
X107330Y45592D01*
X107285Y45482D01*
X107257Y45368D01*
X107248Y45250D01*
X107257Y45132D01*
X107285Y45018D01*
X107330Y44908D01*
X107391Y44808D01*
X107468Y44718D01*
X107558Y44641D01*
X107658Y44580D01*
X107768Y44535D01*
X107882Y44507D01*
X108000Y44500D01*
X111000D01*
Y35500D01*
X108000D01*
X107882Y35493D01*
X107768Y35465D01*
X107658Y35420D01*
X107558Y35359D01*
X107468Y35282D01*
X107391Y35192D01*
X107330Y35092D01*
X107285Y34982D01*
X107257Y34868D01*
X107248Y34750D01*
X107257Y34632D01*
X107285Y34518D01*
X107330Y34408D01*
X107391Y34308D01*
X107468Y34218D01*
X107558Y34141D01*
X107658Y34080D01*
X107768Y34035D01*
X107882Y34007D01*
X108000Y34000D01*
X111000D01*
Y29500D01*
X105750D01*
Y36248D01*
X105868Y36257D01*
X105982Y36285D01*
X106092Y36330D01*
X106192Y36391D01*
X106282Y36468D01*
X106359Y36558D01*
X106420Y36658D01*
X106465Y36768D01*
X106493Y36882D01*
X106500Y37000D01*
Y43000D01*
X106493Y43118D01*
X106465Y43232D01*
X106420Y43342D01*
X106359Y43442D01*
X106282Y43532D01*
X106192Y43609D01*
X106092Y43670D01*
X105982Y43715D01*
X105868Y43743D01*
X105750Y43752D01*
Y73500D01*
G37*
G36*
X97500D02*X105750D01*
Y43752D01*
X105632Y43743D01*
X105518Y43715D01*
X105408Y43670D01*
X105308Y43609D01*
X105218Y43532D01*
X105141Y43442D01*
X105080Y43342D01*
X105035Y43232D01*
X105007Y43118D01*
X105000Y43000D01*
Y37000D01*
X105007Y36882D01*
X105035Y36768D01*
X105080Y36658D01*
X105141Y36558D01*
X105218Y36468D01*
X105308Y36391D01*
X105408Y36330D01*
X105518Y36285D01*
X105632Y36257D01*
X105750Y36248D01*
Y29500D01*
X97500D01*
Y73500D01*
G37*
G36*
X105000Y87000D02*X123000D01*
Y69000D01*
X105000D01*
Y87000D01*
G37*
G36*
X89000D02*X109000D01*
Y67000D01*
X89000D01*
Y87000D01*
G37*
G36*
X109000Y63000D02*X69500D01*
Y69500D01*
X109000D01*
Y63000D01*
G37*
G36*
X209998Y84500D02*X219500D01*
Y67500D01*
X215917D01*
X215951Y67684D01*
X216000Y68227D01*
Y68773D01*
X215951Y69316D01*
X215852Y69852D01*
X215705Y70378D01*
X215511Y70888D01*
X215272Y71378D01*
X215208Y71478D01*
X215128Y71566D01*
X215035Y71640D01*
X214932Y71699D01*
X214821Y71742D01*
X214705Y71766D01*
X214587Y71772D01*
X214468Y71760D01*
X214354Y71729D01*
X214245Y71680D01*
X214146Y71615D01*
X214058Y71535D01*
X213983Y71443D01*
X213924Y71340D01*
X213882Y71229D01*
X213857Y71113D01*
X213851Y70994D01*
X213864Y70876D01*
X213895Y70761D01*
X213946Y70654D01*
X214129Y70289D01*
X214274Y69907D01*
X214384Y69513D01*
X214458Y69111D01*
X214495Y68704D01*
Y68296D01*
X214458Y67889D01*
X214387Y67500D01*
X209998D01*
Y72995D01*
X210204D01*
X210611Y72958D01*
X211013Y72884D01*
X211407Y72774D01*
X211789Y72629D01*
X212156Y72450D01*
X212263Y72400D01*
X212377Y72369D01*
X212494Y72356D01*
X212612Y72362D01*
X212728Y72386D01*
X212838Y72428D01*
X212940Y72487D01*
X213032Y72561D01*
X213111Y72649D01*
X213176Y72748D01*
X213224Y72855D01*
X213255Y72969D01*
X213268Y73087D01*
X213262Y73205D01*
X213237Y73320D01*
X213195Y73430D01*
X213136Y73533D01*
X213062Y73625D01*
X212975Y73704D01*
X212875Y73766D01*
X212388Y74011D01*
X211878Y74205D01*
X211352Y74352D01*
X210816Y74451D01*
X210273Y74500D01*
X209998D01*
Y84500D01*
G37*
G36*
X185500D02*X209998D01*
Y74500D01*
X209727D01*
X209184Y74451D01*
X208648Y74352D01*
X208122Y74205D01*
X207612Y74011D01*
X207122Y73772D01*
X207022Y73708D01*
X206934Y73628D01*
X206860Y73535D01*
X206801Y73432D01*
X206758Y73321D01*
X206734Y73205D01*
X206728Y73087D01*
X206740Y72968D01*
X206771Y72854D01*
X206820Y72745D01*
X206885Y72646D01*
X206965Y72558D01*
X207057Y72483D01*
X207160Y72424D01*
X207271Y72382D01*
X207387Y72357D01*
X207506Y72351D01*
X207624Y72364D01*
X207739Y72395D01*
X207846Y72446D01*
X208211Y72629D01*
X208593Y72774D01*
X208987Y72884D01*
X209389Y72958D01*
X209796Y72995D01*
X209998D01*
Y67500D01*
X205613D01*
X205542Y67889D01*
X205505Y68296D01*
Y68704D01*
X205542Y69111D01*
X205616Y69513D01*
X205726Y69907D01*
X205871Y70289D01*
X206050Y70656D01*
X206100Y70763D01*
X206131Y70877D01*
X206144Y70994D01*
X206138Y71112D01*
X206114Y71228D01*
X206072Y71338D01*
X206013Y71440D01*
X205939Y71532D01*
X205851Y71611D01*
X205752Y71676D01*
X205645Y71724D01*
X205531Y71755D01*
X205413Y71768D01*
X205295Y71762D01*
X205180Y71737D01*
X205070Y71695D01*
X204967Y71636D01*
X204875Y71562D01*
X204796Y71475D01*
X204734Y71375D01*
X204489Y70888D01*
X204295Y70378D01*
X204148Y69852D01*
X204049Y69316D01*
X204000Y68773D01*
Y68227D01*
X204049Y67684D01*
X204083Y67500D01*
X185500D01*
Y84500D01*
G37*
G36*
X214926Y76500D02*X219500D01*
Y59500D01*
X214926D01*
Y65303D01*
X214930Y65305D01*
X215033Y65364D01*
X215125Y65438D01*
X215204Y65525D01*
X215266Y65625D01*
X215511Y66112D01*
X215705Y66622D01*
X215852Y67148D01*
X215951Y67684D01*
X216000Y68227D01*
Y68773D01*
X215951Y69316D01*
X215852Y69852D01*
X215705Y70378D01*
X215511Y70888D01*
X215272Y71378D01*
X215208Y71478D01*
X215128Y71566D01*
X215035Y71640D01*
X214932Y71699D01*
X214926Y71702D01*
Y76500D01*
G37*
G36*
X210002D02*X214926D01*
Y71702D01*
X214821Y71742D01*
X214705Y71766D01*
X214587Y71772D01*
X214468Y71760D01*
X214354Y71729D01*
X214245Y71680D01*
X214146Y71615D01*
X214058Y71535D01*
X213983Y71443D01*
X213924Y71340D01*
X213882Y71229D01*
X213857Y71113D01*
X213851Y70994D01*
X213864Y70876D01*
X213895Y70761D01*
X213946Y70654D01*
X214129Y70289D01*
X214274Y69907D01*
X214384Y69513D01*
X214458Y69111D01*
X214495Y68704D01*
Y68296D01*
X214458Y67889D01*
X214384Y67487D01*
X214274Y67093D01*
X214129Y66711D01*
X213950Y66344D01*
X213900Y66237D01*
X213869Y66123D01*
X213856Y66006D01*
X213862Y65888D01*
X213886Y65772D01*
X213928Y65662D01*
X213987Y65560D01*
X214061Y65468D01*
X214149Y65389D01*
X214248Y65324D01*
X214355Y65276D01*
X214469Y65245D01*
X214587Y65232D01*
X214705Y65238D01*
X214820Y65263D01*
X214926Y65303D01*
Y59500D01*
X210002D01*
Y62500D01*
X210273D01*
X210816Y62549D01*
X211352Y62648D01*
X211878Y62795D01*
X212388Y62989D01*
X212878Y63228D01*
X212978Y63292D01*
X213066Y63372D01*
X213140Y63465D01*
X213199Y63568D01*
X213242Y63679D01*
X213266Y63795D01*
X213272Y63913D01*
X213260Y64032D01*
X213229Y64146D01*
X213180Y64255D01*
X213115Y64354D01*
X213035Y64442D01*
X212943Y64517D01*
X212840Y64576D01*
X212729Y64618D01*
X212613Y64643D01*
X212494Y64649D01*
X212376Y64636D01*
X212261Y64605D01*
X212154Y64554D01*
X211789Y64371D01*
X211407Y64226D01*
X211013Y64116D01*
X210611Y64042D01*
X210204Y64005D01*
X210002D01*
Y72995D01*
X210204D01*
X210611Y72958D01*
X211013Y72884D01*
X211407Y72774D01*
X211789Y72629D01*
X212156Y72450D01*
X212263Y72400D01*
X212377Y72369D01*
X212494Y72356D01*
X212612Y72362D01*
X212728Y72386D01*
X212838Y72428D01*
X212940Y72487D01*
X213032Y72561D01*
X213111Y72649D01*
X213176Y72748D01*
X213224Y72855D01*
X213255Y72969D01*
X213268Y73087D01*
X213262Y73205D01*
X213237Y73320D01*
X213195Y73430D01*
X213136Y73533D01*
X213062Y73625D01*
X212975Y73704D01*
X212875Y73766D01*
X212388Y74011D01*
X211878Y74205D01*
X211352Y74352D01*
X210816Y74451D01*
X210273Y74500D01*
X210002D01*
Y76500D01*
G37*
G36*
X205074D02*X210002D01*
Y74500D01*
X209727D01*
X209184Y74451D01*
X208648Y74352D01*
X208122Y74205D01*
X207612Y74011D01*
X207122Y73772D01*
X207022Y73708D01*
X206934Y73628D01*
X206860Y73535D01*
X206801Y73432D01*
X206758Y73321D01*
X206734Y73205D01*
X206728Y73087D01*
X206740Y72968D01*
X206771Y72854D01*
X206820Y72745D01*
X206885Y72646D01*
X206965Y72558D01*
X207057Y72483D01*
X207160Y72424D01*
X207271Y72382D01*
X207387Y72357D01*
X207506Y72351D01*
X207624Y72364D01*
X207739Y72395D01*
X207846Y72446D01*
X208211Y72629D01*
X208593Y72774D01*
X208987Y72884D01*
X209389Y72958D01*
X209796Y72995D01*
X210002D01*
Y64005D01*
X209796D01*
X209389Y64042D01*
X208987Y64116D01*
X208593Y64226D01*
X208211Y64371D01*
X207844Y64550D01*
X207737Y64600D01*
X207623Y64631D01*
X207506Y64644D01*
X207388Y64638D01*
X207272Y64614D01*
X207162Y64572D01*
X207060Y64513D01*
X206968Y64439D01*
X206889Y64351D01*
X206824Y64252D01*
X206776Y64145D01*
X206745Y64031D01*
X206732Y63913D01*
X206738Y63795D01*
X206763Y63680D01*
X206805Y63570D01*
X206864Y63467D01*
X206938Y63375D01*
X207025Y63296D01*
X207125Y63234D01*
X207612Y62989D01*
X208122Y62795D01*
X208648Y62648D01*
X209184Y62549D01*
X209727Y62500D01*
X210002D01*
Y59500D01*
X205074D01*
Y65298D01*
X205179Y65258D01*
X205295Y65234D01*
X205413Y65228D01*
X205532Y65240D01*
X205646Y65271D01*
X205755Y65320D01*
X205854Y65385D01*
X205942Y65465D01*
X206017Y65557D01*
X206076Y65660D01*
X206118Y65771D01*
X206143Y65887D01*
X206149Y66006D01*
X206136Y66124D01*
X206105Y66239D01*
X206054Y66346D01*
X205871Y66711D01*
X205726Y67093D01*
X205616Y67487D01*
X205542Y67889D01*
X205505Y68296D01*
Y68704D01*
X205542Y69111D01*
X205616Y69513D01*
X205726Y69907D01*
X205871Y70289D01*
X206050Y70656D01*
X206100Y70763D01*
X206131Y70877D01*
X206144Y70994D01*
X206138Y71112D01*
X206114Y71228D01*
X206072Y71338D01*
X206013Y71440D01*
X205939Y71532D01*
X205851Y71611D01*
X205752Y71676D01*
X205645Y71724D01*
X205531Y71755D01*
X205413Y71768D01*
X205295Y71762D01*
X205180Y71737D01*
X205074Y71697D01*
Y76500D01*
G37*
G36*
X185500D02*X205074D01*
Y71697D01*
X205070Y71695D01*
X204967Y71636D01*
X204875Y71562D01*
X204796Y71475D01*
X204734Y71375D01*
X204489Y70888D01*
X204295Y70378D01*
X204148Y69852D01*
X204049Y69316D01*
X204000Y68773D01*
Y68227D01*
X204049Y67684D01*
X204148Y67148D01*
X204295Y66622D01*
X204489Y66112D01*
X204728Y65622D01*
X204792Y65522D01*
X204872Y65434D01*
X204965Y65360D01*
X205068Y65301D01*
X205074Y65298D01*
Y59500D01*
X185500D01*
Y76500D01*
G37*
G36*
X215250Y57500D02*X242500D01*
Y40000D01*
X215250D01*
Y44748D01*
X215368Y44757D01*
X215482Y44785D01*
X215592Y44830D01*
X215692Y44891D01*
X215782Y44968D01*
X215859Y45058D01*
X215920Y45158D01*
X215965Y45268D01*
X215993Y45382D01*
X216000Y45500D01*
Y51500D01*
X215993Y51618D01*
X215965Y51732D01*
X215920Y51842D01*
X215859Y51942D01*
X215782Y52032D01*
X215692Y52109D01*
X215592Y52170D01*
X215482Y52215D01*
X215368Y52243D01*
X215250Y52252D01*
Y57500D01*
G37*
G36*
X210000D02*X215250D01*
Y52252D01*
X215132Y52243D01*
X215018Y52215D01*
X214908Y52170D01*
X214808Y52109D01*
X214718Y52032D01*
X214641Y51942D01*
X214580Y51842D01*
X214535Y51732D01*
X214507Y51618D01*
X214500Y51500D01*
Y45500D01*
X214507Y45382D01*
X214535Y45268D01*
X214580Y45158D01*
X214641Y45058D01*
X214718Y44968D01*
X214808Y44891D01*
X214908Y44830D01*
X215018Y44785D01*
X215132Y44757D01*
X215250Y44748D01*
Y40000D01*
X210000D01*
Y42500D01*
X213000D01*
X213118Y42507D01*
X213232Y42535D01*
X213342Y42580D01*
X213442Y42641D01*
X213532Y42718D01*
X213609Y42808D01*
X213670Y42908D01*
X213715Y43018D01*
X213743Y43132D01*
X213752Y43250D01*
X213743Y43368D01*
X213715Y43482D01*
X213670Y43592D01*
X213609Y43692D01*
X213532Y43782D01*
X213442Y43859D01*
X213342Y43920D01*
X213232Y43965D01*
X213118Y43993D01*
X213000Y44000D01*
X210000D01*
Y53000D01*
X213000D01*
X213118Y53007D01*
X213232Y53035D01*
X213342Y53080D01*
X213442Y53141D01*
X213532Y53218D01*
X213609Y53308D01*
X213670Y53408D01*
X213715Y53518D01*
X213743Y53632D01*
X213752Y53750D01*
X213743Y53868D01*
X213715Y53982D01*
X213670Y54092D01*
X213609Y54192D01*
X213532Y54282D01*
X213442Y54359D01*
X213342Y54420D01*
X213232Y54465D01*
X213118Y54493D01*
X213000Y54500D01*
X210000D01*
Y57500D01*
G37*
G36*
X204750D02*X210000D01*
Y54500D01*
X207000D01*
X206882Y54493D01*
X206768Y54465D01*
X206658Y54420D01*
X206558Y54359D01*
X206468Y54282D01*
X206391Y54192D01*
X206330Y54092D01*
X206285Y53982D01*
X206257Y53868D01*
X206248Y53750D01*
X206257Y53632D01*
X206285Y53518D01*
X206330Y53408D01*
X206391Y53308D01*
X206468Y53218D01*
X206558Y53141D01*
X206658Y53080D01*
X206768Y53035D01*
X206882Y53007D01*
X207000Y53000D01*
X210000D01*
Y44000D01*
X207000D01*
X206882Y43993D01*
X206768Y43965D01*
X206658Y43920D01*
X206558Y43859D01*
X206468Y43782D01*
X206391Y43692D01*
X206330Y43592D01*
X206285Y43482D01*
X206257Y43368D01*
X206248Y43250D01*
X206257Y43132D01*
X206285Y43018D01*
X206330Y42908D01*
X206391Y42808D01*
X206468Y42718D01*
X206558Y42641D01*
X206658Y42580D01*
X206768Y42535D01*
X206882Y42507D01*
X207000Y42500D01*
X210000D01*
Y40000D01*
X204750D01*
Y44748D01*
X204868Y44757D01*
X204982Y44785D01*
X205092Y44830D01*
X205192Y44891D01*
X205282Y44968D01*
X205359Y45058D01*
X205420Y45158D01*
X205465Y45268D01*
X205493Y45382D01*
X205500Y45500D01*
Y51500D01*
X205493Y51618D01*
X205465Y51732D01*
X205420Y51842D01*
X205359Y51942D01*
X205282Y52032D01*
X205192Y52109D01*
X205092Y52170D01*
X204982Y52215D01*
X204868Y52243D01*
X204750Y52252D01*
Y57500D01*
G37*
G36*
X185500D02*X204750D01*
Y52252D01*
X204632Y52243D01*
X204518Y52215D01*
X204408Y52170D01*
X204308Y52109D01*
X204218Y52032D01*
X204141Y51942D01*
X204080Y51842D01*
X204035Y51732D01*
X204007Y51618D01*
X204000Y51500D01*
Y45500D01*
X204007Y45382D01*
X204035Y45268D01*
X204080Y45158D01*
X204141Y45058D01*
X204218Y44968D01*
X204308Y44891D01*
X204408Y44830D01*
X204518Y44785D01*
X204632Y44757D01*
X204750Y44748D01*
Y40000D01*
X185500D01*
Y57500D01*
G37*
G36*
X221000Y81500D02*X243000D01*
Y40000D01*
X221000D01*
Y81500D01*
G37*
G36*
X175926Y87000D02*X184000D01*
Y29500D01*
X175926D01*
Y36803D01*
X175930Y36805D01*
X176033Y36864D01*
X176125Y36938D01*
X176204Y37025D01*
X176266Y37125D01*
X176511Y37612D01*
X176705Y38122D01*
X176852Y38648D01*
X176951Y39184D01*
X177000Y39727D01*
Y40273D01*
X176951Y40816D01*
X176852Y41352D01*
X176705Y41878D01*
X176511Y42388D01*
X176272Y42878D01*
X176208Y42978D01*
X176128Y43066D01*
X176035Y43140D01*
X175932Y43199D01*
X175926Y43202D01*
Y87000D01*
G37*
G36*
X171002D02*X175926D01*
Y43202D01*
X175821Y43242D01*
X175705Y43266D01*
X175587Y43272D01*
X175468Y43260D01*
X175354Y43229D01*
X175245Y43180D01*
X175146Y43115D01*
X175058Y43035D01*
X174983Y42943D01*
X174924Y42840D01*
X174882Y42729D01*
X174857Y42613D01*
X174851Y42494D01*
X174864Y42376D01*
X174895Y42261D01*
X174946Y42154D01*
X175129Y41789D01*
X175274Y41407D01*
X175384Y41013D01*
X175458Y40611D01*
X175495Y40204D01*
Y39796D01*
X175458Y39389D01*
X175384Y38987D01*
X175274Y38593D01*
X175129Y38211D01*
X174950Y37844D01*
X174900Y37737D01*
X174869Y37623D01*
X174856Y37506D01*
X174862Y37388D01*
X174886Y37272D01*
X174928Y37162D01*
X174987Y37060D01*
X175061Y36968D01*
X175149Y36889D01*
X175248Y36824D01*
X175355Y36776D01*
X175469Y36745D01*
X175587Y36732D01*
X175705Y36738D01*
X175820Y36763D01*
X175926Y36803D01*
Y29500D01*
X171002D01*
Y34000D01*
X171273D01*
X171816Y34049D01*
X172352Y34148D01*
X172878Y34295D01*
X173388Y34489D01*
X173878Y34728D01*
X173978Y34792D01*
X174066Y34872D01*
X174140Y34965D01*
X174199Y35068D01*
X174242Y35179D01*
X174266Y35295D01*
X174272Y35413D01*
X174260Y35532D01*
X174229Y35646D01*
X174180Y35755D01*
X174115Y35854D01*
X174035Y35942D01*
X173943Y36017D01*
X173840Y36076D01*
X173729Y36118D01*
X173613Y36143D01*
X173494Y36149D01*
X173376Y36136D01*
X173261Y36105D01*
X173154Y36054D01*
X172789Y35871D01*
X172407Y35726D01*
X172013Y35616D01*
X171611Y35542D01*
X171204Y35505D01*
X171002D01*
Y44495D01*
X171204D01*
X171611Y44458D01*
X172013Y44384D01*
X172407Y44274D01*
X172789Y44129D01*
X173156Y43950D01*
X173263Y43900D01*
X173377Y43869D01*
X173494Y43856D01*
X173612Y43862D01*
X173728Y43886D01*
X173838Y43928D01*
X173940Y43987D01*
X174032Y44061D01*
X174111Y44149D01*
X174176Y44248D01*
X174224Y44355D01*
X174255Y44469D01*
X174268Y44587D01*
X174262Y44705D01*
X174237Y44820D01*
X174195Y44930D01*
X174136Y45033D01*
X174062Y45125D01*
X173975Y45204D01*
X173875Y45266D01*
X173388Y45511D01*
X172878Y45705D01*
X172352Y45852D01*
X171816Y45951D01*
X171273Y46000D01*
X171002D01*
Y87000D01*
G37*
G36*
X166074D02*X171002D01*
Y46000D01*
X170727D01*
X170184Y45951D01*
X169648Y45852D01*
X169122Y45705D01*
X168612Y45511D01*
X168122Y45272D01*
X168022Y45208D01*
X167934Y45128D01*
X167860Y45035D01*
X167801Y44932D01*
X167758Y44821D01*
X167734Y44705D01*
X167728Y44587D01*
X167740Y44468D01*
X167771Y44354D01*
X167820Y44245D01*
X167885Y44146D01*
X167965Y44058D01*
X168057Y43983D01*
X168160Y43924D01*
X168271Y43882D01*
X168387Y43857D01*
X168506Y43851D01*
X168624Y43864D01*
X168739Y43895D01*
X168846Y43946D01*
X169211Y44129D01*
X169593Y44274D01*
X169987Y44384D01*
X170389Y44458D01*
X170796Y44495D01*
X171002D01*
Y35505D01*
X170796D01*
X170389Y35542D01*
X169987Y35616D01*
X169593Y35726D01*
X169211Y35871D01*
X168844Y36050D01*
X168737Y36100D01*
X168623Y36131D01*
X168506Y36144D01*
X168388Y36138D01*
X168272Y36114D01*
X168162Y36072D01*
X168060Y36013D01*
X167968Y35939D01*
X167889Y35851D01*
X167824Y35752D01*
X167776Y35645D01*
X167745Y35531D01*
X167732Y35413D01*
X167738Y35295D01*
X167763Y35180D01*
X167805Y35070D01*
X167864Y34967D01*
X167938Y34875D01*
X168025Y34796D01*
X168125Y34734D01*
X168612Y34489D01*
X169122Y34295D01*
X169648Y34148D01*
X170184Y34049D01*
X170727Y34000D01*
X171002D01*
Y29500D01*
X166074D01*
Y36798D01*
X166179Y36758D01*
X166295Y36734D01*
X166413Y36728D01*
X166532Y36740D01*
X166646Y36771D01*
X166755Y36820D01*
X166854Y36885D01*
X166942Y36965D01*
X167017Y37057D01*
X167076Y37160D01*
X167118Y37271D01*
X167143Y37387D01*
X167149Y37506D01*
X167136Y37624D01*
X167105Y37739D01*
X167054Y37846D01*
X166871Y38211D01*
X166726Y38593D01*
X166616Y38987D01*
X166542Y39389D01*
X166505Y39796D01*
Y40204D01*
X166542Y40611D01*
X166616Y41013D01*
X166726Y41407D01*
X166871Y41789D01*
X167050Y42156D01*
X167100Y42263D01*
X167131Y42377D01*
X167144Y42494D01*
X167138Y42612D01*
X167114Y42728D01*
X167072Y42838D01*
X167013Y42940D01*
X166939Y43032D01*
X166851Y43111D01*
X166752Y43176D01*
X166645Y43224D01*
X166531Y43255D01*
X166413Y43268D01*
X166295Y43262D01*
X166180Y43237D01*
X166074Y43197D01*
Y87000D01*
G37*
G36*
X155926D02*X166074D01*
Y43197D01*
X166070Y43195D01*
X165967Y43136D01*
X165875Y43062D01*
X165796Y42975D01*
X165734Y42875D01*
X165489Y42388D01*
X165295Y41878D01*
X165148Y41352D01*
X165049Y40816D01*
X165000Y40273D01*
Y39727D01*
X165049Y39184D01*
X165148Y38648D01*
X165295Y38122D01*
X165489Y37612D01*
X165728Y37122D01*
X165792Y37022D01*
X165872Y36934D01*
X165965Y36860D01*
X166068Y36801D01*
X166074Y36798D01*
Y29500D01*
X155926D01*
Y36803D01*
X155930Y36805D01*
X156033Y36864D01*
X156125Y36938D01*
X156204Y37025D01*
X156266Y37125D01*
X156511Y37612D01*
X156705Y38122D01*
X156852Y38648D01*
X156951Y39184D01*
X157000Y39727D01*
Y40273D01*
X156951Y40816D01*
X156852Y41352D01*
X156705Y41878D01*
X156511Y42388D01*
X156272Y42878D01*
X156208Y42978D01*
X156128Y43066D01*
X156035Y43140D01*
X155932Y43199D01*
X155926Y43202D01*
Y87000D01*
G37*
G36*
X151002D02*X155926D01*
Y43202D01*
X155821Y43242D01*
X155705Y43266D01*
X155587Y43272D01*
X155468Y43260D01*
X155354Y43229D01*
X155245Y43180D01*
X155146Y43115D01*
X155058Y43035D01*
X154983Y42943D01*
X154924Y42840D01*
X154882Y42729D01*
X154857Y42613D01*
X154851Y42494D01*
X154864Y42376D01*
X154895Y42261D01*
X154946Y42154D01*
X155129Y41789D01*
X155274Y41407D01*
X155384Y41013D01*
X155458Y40611D01*
X155495Y40204D01*
Y39796D01*
X155458Y39389D01*
X155384Y38987D01*
X155274Y38593D01*
X155129Y38211D01*
X154950Y37844D01*
X154900Y37737D01*
X154869Y37623D01*
X154856Y37506D01*
X154862Y37388D01*
X154886Y37272D01*
X154928Y37162D01*
X154987Y37060D01*
X155061Y36968D01*
X155149Y36889D01*
X155248Y36824D01*
X155355Y36776D01*
X155469Y36745D01*
X155587Y36732D01*
X155705Y36738D01*
X155820Y36763D01*
X155926Y36803D01*
Y29500D01*
X151002D01*
Y34000D01*
X151273D01*
X151816Y34049D01*
X152352Y34148D01*
X152878Y34295D01*
X153388Y34489D01*
X153878Y34728D01*
X153978Y34792D01*
X154066Y34872D01*
X154140Y34965D01*
X154199Y35068D01*
X154242Y35179D01*
X154266Y35295D01*
X154272Y35413D01*
X154260Y35532D01*
X154229Y35646D01*
X154180Y35755D01*
X154115Y35854D01*
X154035Y35942D01*
X153943Y36017D01*
X153840Y36076D01*
X153729Y36118D01*
X153613Y36143D01*
X153494Y36149D01*
X153376Y36136D01*
X153261Y36105D01*
X153154Y36054D01*
X152789Y35871D01*
X152407Y35726D01*
X152013Y35616D01*
X151611Y35542D01*
X151204Y35505D01*
X151002D01*
Y44495D01*
X151204D01*
X151611Y44458D01*
X152013Y44384D01*
X152407Y44274D01*
X152789Y44129D01*
X153156Y43950D01*
X153263Y43900D01*
X153377Y43869D01*
X153494Y43856D01*
X153612Y43862D01*
X153728Y43886D01*
X153838Y43928D01*
X153940Y43987D01*
X154032Y44061D01*
X154111Y44149D01*
X154176Y44248D01*
X154224Y44355D01*
X154255Y44469D01*
X154268Y44587D01*
X154262Y44705D01*
X154237Y44820D01*
X154195Y44930D01*
X154136Y45033D01*
X154062Y45125D01*
X153975Y45204D01*
X153875Y45266D01*
X153388Y45511D01*
X152878Y45705D01*
X152352Y45852D01*
X151816Y45951D01*
X151273Y46000D01*
X151002D01*
Y87000D01*
G37*
G36*
X146074D02*X151002D01*
Y46000D01*
X150727D01*
X150184Y45951D01*
X149648Y45852D01*
X149122Y45705D01*
X148612Y45511D01*
X148122Y45272D01*
X148022Y45208D01*
X147934Y45128D01*
X147860Y45035D01*
X147801Y44932D01*
X147758Y44821D01*
X147734Y44705D01*
X147728Y44587D01*
X147740Y44468D01*
X147771Y44354D01*
X147820Y44245D01*
X147885Y44146D01*
X147965Y44058D01*
X148057Y43983D01*
X148160Y43924D01*
X148271Y43882D01*
X148387Y43857D01*
X148506Y43851D01*
X148624Y43864D01*
X148739Y43895D01*
X148846Y43946D01*
X149211Y44129D01*
X149593Y44274D01*
X149987Y44384D01*
X150389Y44458D01*
X150796Y44495D01*
X151002D01*
Y35505D01*
X150796D01*
X150389Y35542D01*
X149987Y35616D01*
X149593Y35726D01*
X149211Y35871D01*
X148844Y36050D01*
X148737Y36100D01*
X148623Y36131D01*
X148506Y36144D01*
X148388Y36138D01*
X148272Y36114D01*
X148162Y36072D01*
X148060Y36013D01*
X147968Y35939D01*
X147889Y35851D01*
X147824Y35752D01*
X147776Y35645D01*
X147745Y35531D01*
X147732Y35413D01*
X147738Y35295D01*
X147763Y35180D01*
X147805Y35070D01*
X147864Y34967D01*
X147938Y34875D01*
X148025Y34796D01*
X148125Y34734D01*
X148612Y34489D01*
X149122Y34295D01*
X149648Y34148D01*
X150184Y34049D01*
X150727Y34000D01*
X151002D01*
Y29500D01*
X146074D01*
Y36798D01*
X146179Y36758D01*
X146295Y36734D01*
X146413Y36728D01*
X146532Y36740D01*
X146646Y36771D01*
X146755Y36820D01*
X146854Y36885D01*
X146942Y36965D01*
X147017Y37057D01*
X147076Y37160D01*
X147118Y37271D01*
X147143Y37387D01*
X147149Y37506D01*
X147136Y37624D01*
X147105Y37739D01*
X147054Y37846D01*
X146871Y38211D01*
X146726Y38593D01*
X146616Y38987D01*
X146542Y39389D01*
X146505Y39796D01*
Y40204D01*
X146542Y40611D01*
X146616Y41013D01*
X146726Y41407D01*
X146871Y41789D01*
X147050Y42156D01*
X147100Y42263D01*
X147131Y42377D01*
X147144Y42494D01*
X147138Y42612D01*
X147114Y42728D01*
X147072Y42838D01*
X147013Y42940D01*
X146939Y43032D01*
X146851Y43111D01*
X146752Y43176D01*
X146645Y43224D01*
X146531Y43255D01*
X146413Y43268D01*
X146295Y43262D01*
X146180Y43237D01*
X146074Y43197D01*
Y87000D01*
G37*
G36*
X140000D02*X146074D01*
Y43197D01*
X146070Y43195D01*
X145967Y43136D01*
X145875Y43062D01*
X145796Y42975D01*
X145734Y42875D01*
X145489Y42388D01*
X145295Y41878D01*
X145148Y41352D01*
X145049Y40816D01*
X145000Y40273D01*
Y39727D01*
X145049Y39184D01*
X145148Y38648D01*
X145295Y38122D01*
X145489Y37612D01*
X145728Y37122D01*
X145792Y37022D01*
X145872Y36934D01*
X145965Y36860D01*
X146068Y36801D01*
X146074Y36798D01*
Y29500D01*
X140000D01*
Y87000D01*
G37*
G36*
X125000D02*X150500D01*
Y48000D01*
X125000D01*
Y87000D01*
G37*
G36*
X176500Y122000D02*X186500D01*
Y115500D01*
X176500D01*
Y122000D01*
G37*
G36*
X174500Y135000D02*X194000D01*
Y120621D01*
X193879Y120500D01*
X174500D01*
Y135000D01*
G37*
G36*
X124000Y147500D02*X227022D01*
X225858Y147018D01*
X223753Y145728D01*
X221876Y144124D01*
X220272Y142247D01*
X218982Y140142D01*
X218038Y137862D01*
X217461Y135461D01*
X217268Y133000D01*
X163353D01*
X163410Y133093D01*
X163470Y133238D01*
X163507Y133391D01*
X163516Y133548D01*
X163507Y139609D01*
X163470Y139762D01*
X163410Y139907D01*
X163328Y140042D01*
X163225Y140161D01*
X163106Y140264D01*
X162971Y140346D01*
X162826Y140406D01*
X162673Y140443D01*
X162516Y140452D01*
X157241Y140443D01*
X157088Y140406D01*
X156943Y140346D01*
X156808Y140264D01*
X156689Y140161D01*
X156586Y140042D01*
X156504Y139907D01*
X156444Y139762D01*
X156407Y139609D01*
X156398Y139452D01*
X156407Y133391D01*
X156444Y133238D01*
X156504Y133093D01*
X156561Y133000D01*
X124000D01*
Y147500D01*
G37*
G36*
X159500Y145500D02*X184000D01*
Y125500D01*
X166500D01*
Y126941D01*
X166505Y127000D01*
X166486Y127235D01*
X166486Y127235D01*
Y127235D01*
X166443Y127416D01*
X166431Y127465D01*
X166431Y127465D01*
X166431Y127465D01*
X166358Y127640D01*
X166341Y127683D01*
X166341Y127683D01*
X166341Y127683D01*
X166255Y127822D01*
X166217Y127884D01*
X166217Y127884D01*
X166217Y127884D01*
X166064Y128064D01*
X166019Y128102D01*
X164101Y130020D01*
X164064Y130064D01*
X164020Y130101D01*
X163975Y130147D01*
X163946Y130173D01*
X163943Y131802D01*
X163906Y131955D01*
X163846Y132100D01*
X163764Y132235D01*
X163661Y132354D01*
X163542Y132457D01*
X163407Y132539D01*
X163262Y132599D01*
X163109Y132636D01*
X162952Y132645D01*
X162949Y132645D01*
X162971Y132654D01*
X163106Y132736D01*
X163225Y132839D01*
X163328Y132958D01*
X163410Y133093D01*
X163470Y133238D01*
X163507Y133391D01*
X163516Y133548D01*
X163507Y139609D01*
X163470Y139762D01*
X163410Y139907D01*
X163328Y140042D01*
X163225Y140161D01*
X163106Y140264D01*
X162971Y140346D01*
X162826Y140406D01*
X162673Y140443D01*
X162516Y140452D01*
X159500Y140447D01*
Y145500D01*
G37*
G36*
X124000Y140500D02*X140500D01*
Y132944D01*
X139741Y132943D01*
X139588Y132906D01*
X139443Y132846D01*
X139308Y132764D01*
X139189Y132661D01*
X139086Y132542D01*
X139004Y132407D01*
X138944Y132262D01*
X138907Y132109D01*
X138898Y131952D01*
X138900Y130500D01*
X135595D01*
X135593Y132109D01*
X135556Y132262D01*
X135496Y132407D01*
X135414Y132542D01*
X135311Y132661D01*
X135192Y132764D01*
X135057Y132846D01*
X134912Y132906D01*
X134759Y132943D01*
X134602Y132952D01*
X129327Y132943D01*
X129174Y132906D01*
X129029Y132846D01*
X128894Y132764D01*
X128775Y132661D01*
X128672Y132542D01*
X128590Y132407D01*
X128530Y132262D01*
X128500Y132137D01*
X128470Y132262D01*
X128410Y132407D01*
X128328Y132542D01*
X128225Y132661D01*
X128106Y132764D01*
X127971Y132846D01*
X127826Y132906D01*
X127673Y132943D01*
X127516Y132952D01*
X124000Y132946D01*
Y140500D01*
G37*
G36*
X128000Y121500D02*X148000D01*
Y104000D01*
X128000D01*
Y121500D01*
G37*
G36*
X225500Y114000D02*X243000D01*
Y78000D01*
X225500D01*
Y107441D01*
X225505Y107500D01*
X225500Y107559D01*
Y114000D01*
G37*
G36*
X221000Y101000D02*X236500D01*
Y78000D01*
X221000D01*
Y101000D01*
G37*
G36*
X179500Y111000D02*X184000D01*
Y74500D01*
X179500D01*
Y111000D01*
G37*
G36*
X176500D02*X181500D01*
Y104000D01*
X176500D01*
Y111000D01*
G37*
G36*
X185500Y103000D02*X187437D01*
X187486Y102920D01*
X187588Y102800D01*
X187708Y102698D01*
X187842Y102616D01*
X187988Y102556D01*
X188141Y102519D01*
X188298Y102510D01*
X191954Y102519D01*
X192107Y102556D01*
X192253Y102616D01*
X192387Y102698D01*
X192507Y102800D01*
X192609Y102920D01*
X192658Y103000D01*
X195000D01*
Y74000D01*
X185500D01*
Y103000D01*
G37*
G36*
X199500Y86000D02*Y113500D01*
X211000D01*
Y86000D01*
X199500D01*
G37*
G36*
X193000Y106500D02*X202000D01*
Y104000D01*
X193000D01*
Y106500D01*
G37*
G36*
X197500D02*X206000D01*
Y86000D01*
X197500D01*
Y106500D01*
G37*
G36*
X201500Y104000D02*X195000D01*
Y106547D01*
X195488D01*
X195547Y106542D01*
X195782Y106561D01*
X195782Y106561D01*
X195782D01*
X195963Y106604D01*
X196012Y106616D01*
X196012Y106616D01*
X196012Y106616D01*
X196187Y106689D01*
X196230Y106706D01*
X196230Y106706D01*
X196230Y106706D01*
X196369Y106792D01*
X196431Y106830D01*
X196431Y106830D01*
X196431Y106830D01*
X196611Y106983D01*
X196649Y107028D01*
X198519Y108898D01*
X198564Y108936D01*
X198717Y109115D01*
X198717Y109116D01*
X198717Y109116D01*
X198719Y109118D01*
X198841Y109317D01*
X198841Y109317D01*
X198841Y109317D01*
X198847Y109331D01*
X198931Y109535D01*
X198986Y109765D01*
X199005Y110000D01*
X199000Y110059D01*
Y113379D01*
X199121Y113500D01*
X201500D01*
Y104000D01*
G37*
G54D12*X73500Y46000D02*X65500Y38000D01*
G54D13*X74000Y35750D02*Y46500D01*
X84000Y35750D02*Y46000D01*
G54D12*X73500D02*X84000D01*
G54D13*X79000Y35750D02*Y46000D01*
X74000Y56250D02*Y67000D01*
X79000Y56250D02*Y68000D01*
X89000Y56250D02*Y66500D01*
X84000Y55750D02*Y66000D01*
G54D14*X89000Y35750D02*Y28000D01*
X87500Y26500D01*
X94000Y22000D02*Y44000D01*
X92000Y46000D01*
X82000D01*
X111000Y18500D02*Y31500D01*
G54D13*X131000Y40000D02*Y25500D01*
G54D14*X78600Y16900D02*X79500Y16000D01*
X82500Y5500D02*Y11800D01*
X87500Y26500D02*X84500D01*
X82500Y24500D01*
Y20000D01*
X92000D02*X94000Y22000D01*
G54D13*X131000Y25500D02*X134000Y22500D01*
X194457D01*
G54D14*X78600Y20000D02*Y16900D01*
X86400Y20000D02*X92000D01*
X82500Y11800D02*X91200D01*
X91500Y11500D01*
G54D13*X208500Y22500D02*X202586D01*
X208500Y20500D02*Y25000D01*
G54D14*X79500Y16000D02*X108500D01*
X111000Y18500D01*
X206457Y121500D02*X198586D01*
X198543Y121543D01*
X219500Y120500D02*X214543D01*
X213543Y121500D01*
X198543Y121543D02*X198586Y121500D01*
X194000Y118500D02*X197000Y121500D01*
X195547Y108047D02*X197500Y110000D01*
Y114000D01*
X198500Y115000D01*
X197000Y121500D02*X199500D01*
X198543Y129000D02*Y121543D01*
X197500Y117000D02*X221000D01*
X198500Y115000D02*X211500D01*
X215500D02*X209500D01*
X217000Y109000D02*Y113500D01*
X215500Y115000D01*
X172952Y110016D02*X181484D01*
X172952D02*X169484D01*
X168000Y111500D01*
X172952Y111984D02*X170016D01*
X190048D02*X192984D01*
X194000Y113000D01*
X173000Y108047D02*X163047D01*
X172952Y106079D02*X164079D01*
X173000Y104110D02*Y100000D01*
X190000Y115921D02*Y114000D01*
X190048Y113953D01*
X173000D02*X190048D01*
Y117890D02*X184110D01*
X194000Y113000D02*Y118500D01*
X167500Y117000D02*X168500Y116000D01*
X173000Y115921D02*X168579D01*
X167500Y117000D01*
X170016Y111984D02*X168500Y113500D01*
X171500Y122500D02*X169000D01*
X167500Y121000D01*
Y117000D01*
X168500Y113500D02*X166000D01*
X173000Y117890D02*X178890D01*
X166000Y113500D02*X165000Y114500D01*
X164000Y111500D02*X160000Y115500D01*
Y122000D01*
X156000D02*X160000D01*
X168000Y111500D02*X164000D01*
X165000Y127000D02*Y114500D01*
X148000Y124000D02*X153500Y118500D01*
X190048Y110016D02*X194016D01*
X195750Y111750D01*
Y115250D01*
X197500Y117000D01*
X190048Y104110D02*Y100952D01*
Y106079D02*X201531D01*
X200579D02*X205531D01*
X190000Y108047D02*X195547D01*
X221000Y117000D02*X223000Y115000D01*
Y108500D02*Y115000D01*
X222000Y116000D01*
X229000Y107500D02*X224000D01*
X223000Y108500D01*
X206952Y107000D02*X215000D01*
X217000Y109000D01*
X162914Y129086D02*X165000Y127000D01*
X159457Y136500D02*Y130629D01*
X163000Y129000D02*X161086D01*
X159457Y130629D01*
X149543Y129000D02*Y125457D01*
X153000Y122000D01*
X158500D01*
X132043Y129000D02*X142457D01*
X124957D02*Y126543D01*
X127500Y124000D01*
X148000D01*
G54D15*X17000Y17000D03*
G54D11*G36*
X106500Y44500D02*Y35500D01*
X115500D01*
Y44500D01*
X106500D01*
G37*
G54D16*X57200Y53000D03*
X43800D03*
X57200Y14000D03*
X43800D03*
G54D15*X233000Y133000D03*
Y17000D03*
G54D11*G36*
X205500Y53000D02*Y44000D01*
X214500D01*
Y53000D01*
X205500D01*
G37*
G54D17*X210000Y68500D03*
X131000Y40000D03*
G54D11*G36*
X94000Y114500D02*Y105500D01*
X103000D01*
Y114500D01*
X94000D01*
G37*
G54D17*X78500Y110000D03*
X151000Y40000D03*
X171000D03*
G54D15*X17000Y133000D03*
G54D11*G36*
X35500Y106500D02*Y97500D01*
X44500D01*
Y106500D01*
X35500D01*
G37*
G54D17*X40000Y82000D03*
G54D11*G36*
X194016Y131952D02*X188898D01*
Y126048D01*
X194016D01*
Y131952D01*
G37*
G36*
X201102D02*X195984D01*
Y126048D01*
X201102D01*
Y131952D01*
G37*
G36*
X209016Y124452D02*X203898D01*
Y118548D01*
X209016D01*
Y124452D01*
G37*
G36*
X216102D02*X210984D01*
Y118548D01*
X216102D01*
Y124452D01*
G37*
G36*
X204869Y96814D02*X199751D01*
Y86186D01*
X204869D01*
Y96814D01*
G37*
G36*
X193059D02*X187941D01*
Y86186D01*
X193059D01*
Y96814D01*
G37*
G36*
X204102Y25452D02*X198984D01*
Y19548D01*
X204102D01*
Y25452D01*
G37*
G36*
X197016D02*X191898D01*
Y19548D01*
X197016D01*
Y25452D01*
G37*
G36*
X131500Y84500D02*Y77500D01*
X145500D01*
Y84500D01*
X131500D01*
G37*
G36*
X167591Y85154D02*Y80036D01*
X178219D01*
Y85154D01*
X167591D01*
G37*
G36*
Y96964D02*Y91846D01*
X178219D01*
Y96964D01*
X167591D01*
G37*
G36*
X188298Y104710D02*Y103510D01*
X191798D01*
Y104710D01*
X188298D01*
G37*
G36*
X189000Y104610D02*Y103610D01*
X191000D01*
Y104610D01*
X189000D01*
G37*
G36*
X210495Y113299D02*X203408D01*
Y100700D01*
X210495D01*
Y113299D01*
G37*
G36*
X232544D02*X225456D01*
Y100700D01*
X232544D01*
Y113299D01*
G37*
G36*
X188298Y106680D02*Y105479D01*
X191798D01*
Y106680D01*
X188298D01*
G37*
G36*
X189000Y106579D02*Y105579D01*
X191000D01*
Y106579D01*
X189000D01*
G37*
G36*
X188298Y108647D02*Y107446D01*
X191798D01*
Y108647D01*
X188298D01*
G37*
G36*
X189000Y108547D02*Y107547D01*
X191000D01*
Y108547D01*
X189000D01*
G37*
G36*
X188298Y110616D02*Y109416D01*
X191798D01*
Y110616D01*
X188298D01*
G37*
G36*
X189000Y110516D02*Y109516D01*
X191000D01*
Y110516D01*
X189000D01*
G37*
G36*
X188298Y112584D02*Y111384D01*
X191798D01*
Y112584D01*
X188298D01*
G37*
G36*
Y114554D02*Y113353D01*
X191798D01*
Y114554D01*
X188298D01*
G37*
G36*
X189000Y112484D02*Y111484D01*
X191000D01*
Y112484D01*
X189000D01*
G37*
G36*
Y114453D02*Y113453D01*
X191000D01*
Y114453D01*
X189000D01*
G37*
G36*
X188298Y116521D02*Y115320D01*
X191798D01*
Y116521D01*
X188298D01*
G37*
G36*
Y118490D02*Y117290D01*
X191798D01*
Y118490D01*
X188298D01*
G37*
G36*
X189000Y116421D02*Y115421D01*
X191000D01*
Y116421D01*
X189000D01*
G37*
G36*
Y118390D02*Y117390D01*
X191000D01*
Y118390D01*
X189000D01*
G37*
G36*
X131500Y121500D02*Y114500D01*
X145500D01*
Y121500D01*
X131500D01*
G37*
G36*
X145016Y131952D02*X139898D01*
Y126048D01*
X145016D01*
Y131952D01*
G37*
G36*
X152102D02*X146984D01*
Y126048D01*
X152102D01*
Y131952D01*
G37*
G36*
X127516D02*X122398D01*
Y126048D01*
X127516D01*
Y131952D01*
G37*
G36*
X134602D02*X129484D01*
Y126048D01*
X134602D01*
Y131952D01*
G37*
G36*
X157048Y131645D02*Y126527D01*
X162952D01*
Y131645D01*
X157048D01*
G37*
G36*
Y124559D02*Y119441D01*
X162952D01*
Y124559D01*
X157048D01*
G37*
G36*
X162516Y139452D02*X157398D01*
Y133548D01*
X162516D01*
Y139452D01*
G37*
G36*
X171202Y112584D02*Y111384D01*
X174702D01*
Y112584D01*
X171202D01*
G37*
G36*
Y110616D02*Y109416D01*
X174702D01*
Y110616D01*
X171202D01*
G37*
G36*
X172000Y112484D02*Y111484D01*
X174000D01*
Y112484D01*
X172000D01*
G37*
G36*
Y110516D02*Y109516D01*
X174000D01*
Y110516D01*
X172000D01*
G37*
G36*
X171202Y118490D02*Y117290D01*
X174702D01*
Y118490D01*
X171202D01*
G37*
G36*
Y116521D02*Y115320D01*
X174702D01*
Y116521D01*
X171202D01*
G37*
G36*
Y114554D02*Y113353D01*
X174702D01*
Y114554D01*
X171202D01*
G37*
G36*
X172000Y118390D02*Y117390D01*
X174000D01*
Y118390D01*
X172000D01*
G37*
G36*
Y116421D02*Y115421D01*
X174000D01*
Y116421D01*
X172000D01*
G37*
G36*
Y114453D02*Y113453D01*
X174000D01*
Y114453D01*
X172000D01*
G37*
G36*
X171202Y108647D02*Y107446D01*
X174702D01*
Y108647D01*
X171202D01*
G37*
G36*
Y106680D02*Y105479D01*
X174702D01*
Y106680D01*
X171202D01*
G37*
G36*
Y104710D02*Y103510D01*
X174702D01*
Y104710D01*
X171202D01*
G37*
G36*
X172000Y108547D02*Y107547D01*
X174000D01*
Y108547D01*
X172000D01*
G37*
G36*
Y106579D02*Y105579D01*
X174000D01*
Y106579D01*
X172000D01*
G37*
G36*
Y104610D02*Y103610D01*
X174000D01*
Y104610D01*
X172000D01*
G37*
G36*
X169602Y139452D02*X164484D01*
Y133548D01*
X169602D01*
Y139452D01*
G37*
G36*
X75000Y40000D02*X73000D01*
Y31500D01*
X75000D01*
Y40000D01*
G37*
G36*
Y60500D02*X73000D01*
Y52000D01*
X75000D01*
Y60500D01*
G37*
G36*
X80000Y40000D02*X78000D01*
Y31500D01*
X80000D01*
Y40000D01*
G37*
G36*
Y60500D02*X78000D01*
Y52000D01*
X80000D01*
Y60500D01*
G37*
G36*
X85000Y40000D02*X83000D01*
Y31500D01*
X85000D01*
Y40000D01*
G37*
G36*
Y60500D02*X83000D01*
Y52000D01*
X85000D01*
Y60500D01*
G37*
G36*
X90000Y40000D02*X88000D01*
Y31500D01*
X90000D01*
Y40000D01*
G37*
G36*
Y60500D02*X88000D01*
Y52000D01*
X90000D01*
Y60500D01*
G37*
G36*
X79800Y13800D02*X77400D01*
Y9800D01*
X79800D01*
Y13800D01*
G37*
G36*
X83700D02*X81300D01*
Y9800D01*
X83700D01*
Y13800D01*
G37*
G36*
X87600D02*X85200D01*
Y9800D01*
X87600D01*
Y13800D01*
G37*
G36*
Y22000D02*X85200D01*
Y18000D01*
X87600D01*
Y22000D01*
G37*
G36*
X83700D02*X81300D01*
Y18000D01*
X83700D01*
Y22000D01*
G37*
G36*
X79800D02*X77400D01*
Y18000D01*
X79800D01*
Y22000D01*
G37*
G36*
X73114Y82528D02*Y73472D01*
X82956D01*
Y82528D01*
X73114D01*
G37*
G36*
X90044D02*Y73472D01*
X99886D01*
Y82528D01*
X90044D01*
G37*
G54D18*X172000Y99500D03*
X165000D03*
X168500D03*
X165000Y96000D03*
Y92500D03*
X175500Y99500D03*
X190000D03*
X189000Y83500D03*
X82500Y5500D03*
X91500Y11500D03*
X192500Y83500D03*
X208500Y25000D03*
Y20500D03*
X184000Y123500D03*
X177000D03*
X180500D03*
X171500Y122500D03*
X153500Y118500D03*
X187500Y123500D03*
X191000D03*
X219500Y120500D03*
X217000Y111500D03*
G54D19*G54D20*G54D21*G54D22*G54D20*G54D21*G54D20*G54D21*M02*
