G04 start of page 6 for group -4063 idx -4063 *
G04 Title: (unknown), componentmask *
G04 Creator: pcb 4.0.2 *
G04 CreationDate: Thu Apr 18 02:51:52 2019 UTC *
G04 For: ndholmes *
G04 Format: Gerber/RS-274X *
G04 PCB-Dimensions (mil): 2500.00 1500.00 *
G04 PCB-Coordinate-Origin: lower left *
%MOIN*%
%FSLAX25Y25*%
%LNTOPMASK*%
%ADD41C,0.0960*%
%ADD40C,0.0890*%
%ADD39C,0.0001*%
%ADD38C,0.2997*%
G54D38*X17000Y17000D03*
G54D39*G36*
X106200Y44800D02*Y35200D01*
X115800D01*
Y44800D01*
X106200D01*
G37*
G54D40*X57200Y53000D03*
X43800D03*
X57200Y14000D03*
X43800D03*
G54D38*X233000Y133000D03*
Y17000D03*
G54D39*G36*
X205200Y53300D02*Y43700D01*
X214800D01*
Y53300D01*
X205200D01*
G37*
G54D41*X210000Y68500D03*
X131000Y40000D03*
G54D39*G36*
X93700Y114800D02*Y105200D01*
X103300D01*
Y114800D01*
X93700D01*
G37*
G54D41*X78500Y110000D03*
X151000Y40000D03*
X171000D03*
G54D38*X17000Y133000D03*
G54D39*G36*
X35200Y106800D02*Y97200D01*
X44800D01*
Y106800D01*
X35200D01*
G37*
G54D41*X40000Y82000D03*
G54D39*G36*
X194316Y132252D02*X188598D01*
Y125748D01*
X194316D01*
Y132252D01*
G37*
G36*
X201402D02*X195684D01*
Y125748D01*
X201402D01*
Y132252D01*
G37*
G36*
X209316Y124752D02*X203598D01*
Y118248D01*
X209316D01*
Y124752D01*
G37*
G36*
X216402D02*X210684D01*
Y118248D01*
X216402D01*
Y124752D01*
G37*
G36*
X205169Y97114D02*X199451D01*
Y85886D01*
X205169D01*
Y97114D01*
G37*
G36*
X193359D02*X187641D01*
Y85886D01*
X193359D01*
Y97114D01*
G37*
G36*
X204402Y25752D02*X198684D01*
Y19248D01*
X204402D01*
Y25752D01*
G37*
G36*
X197316D02*X191598D01*
Y19248D01*
X197316D01*
Y25752D01*
G37*
G36*
X131200Y84800D02*Y77200D01*
X145800D01*
Y84800D01*
X131200D01*
G37*
G36*
X167291Y85454D02*Y79736D01*
X178519D01*
Y85454D01*
X167291D01*
G37*
G36*
Y97264D02*Y91546D01*
X178519D01*
Y97264D01*
X167291D01*
G37*
G36*
X187998Y105010D02*Y103210D01*
X192098D01*
Y105010D01*
X187998D01*
G37*
G36*
X188600D02*Y103210D01*
X191400D01*
Y105010D01*
X188600D01*
G37*
G36*
X210795Y113599D02*X203108D01*
Y100400D01*
X210795D01*
Y113599D01*
G37*
G36*
X232844D02*X225156D01*
Y100400D01*
X232844D01*
Y113599D01*
G37*
G36*
X187998Y106980D02*Y105179D01*
X192098D01*
Y106980D01*
X187998D01*
G37*
G36*
X188600D02*Y105179D01*
X191400D01*
Y106980D01*
X188600D01*
G37*
G36*
X187998Y108947D02*Y107146D01*
X192098D01*
Y108947D01*
X187998D01*
G37*
G36*
X188600D02*Y107146D01*
X191400D01*
Y108947D01*
X188600D01*
G37*
G36*
X187998Y110916D02*Y109116D01*
X192098D01*
Y110916D01*
X187998D01*
G37*
G36*
X188600D02*Y109116D01*
X191400D01*
Y110916D01*
X188600D01*
G37*
G36*
X187998Y112884D02*Y111084D01*
X192098D01*
Y112884D01*
X187998D01*
G37*
G36*
Y114854D02*Y113053D01*
X192098D01*
Y114854D01*
X187998D01*
G37*
G36*
X188600Y112884D02*Y111084D01*
X191400D01*
Y112884D01*
X188600D01*
G37*
G36*
Y114854D02*Y113053D01*
X191400D01*
Y114854D01*
X188600D01*
G37*
G36*
X187998Y116821D02*Y115020D01*
X192098D01*
Y116821D01*
X187998D01*
G37*
G36*
Y118790D02*Y116990D01*
X192098D01*
Y118790D01*
X187998D01*
G37*
G36*
X188600Y116821D02*Y115020D01*
X191400D01*
Y116821D01*
X188600D01*
G37*
G36*
Y118790D02*Y116990D01*
X191400D01*
Y118790D01*
X188600D01*
G37*
G36*
X131200Y121800D02*Y114200D01*
X145800D01*
Y121800D01*
X131200D01*
G37*
G36*
X145316Y132252D02*X139598D01*
Y125748D01*
X145316D01*
Y132252D01*
G37*
G36*
X152402D02*X146684D01*
Y125748D01*
X152402D01*
Y132252D01*
G37*
G36*
X127816D02*X122098D01*
Y125748D01*
X127816D01*
Y132252D01*
G37*
G36*
X134902D02*X129184D01*
Y125748D01*
X134902D01*
Y132252D01*
G37*
G36*
X156748Y131945D02*Y126227D01*
X163252D01*
Y131945D01*
X156748D01*
G37*
G36*
Y124859D02*Y119141D01*
X163252D01*
Y124859D01*
X156748D01*
G37*
G36*
X162816Y139752D02*X157098D01*
Y133248D01*
X162816D01*
Y139752D01*
G37*
G36*
X170902Y112884D02*Y111084D01*
X175002D01*
Y112884D01*
X170902D01*
G37*
G36*
Y110916D02*Y109116D01*
X175002D01*
Y110916D01*
X170902D01*
G37*
G36*
X171600Y112884D02*Y111084D01*
X174400D01*
Y112884D01*
X171600D01*
G37*
G36*
Y110916D02*Y109116D01*
X174400D01*
Y110916D01*
X171600D01*
G37*
G36*
X170902Y118790D02*Y116990D01*
X175002D01*
Y118790D01*
X170902D01*
G37*
G36*
Y116821D02*Y115020D01*
X175002D01*
Y116821D01*
X170902D01*
G37*
G36*
Y114854D02*Y113053D01*
X175002D01*
Y114854D01*
X170902D01*
G37*
G36*
X171600Y118790D02*Y116990D01*
X174400D01*
Y118790D01*
X171600D01*
G37*
G36*
Y116821D02*Y115020D01*
X174400D01*
Y116821D01*
X171600D01*
G37*
G36*
Y114854D02*Y113053D01*
X174400D01*
Y114854D01*
X171600D01*
G37*
G36*
X170902Y108947D02*Y107146D01*
X175002D01*
Y108947D01*
X170902D01*
G37*
G36*
Y106980D02*Y105179D01*
X175002D01*
Y106980D01*
X170902D01*
G37*
G36*
Y105010D02*Y103210D01*
X175002D01*
Y105010D01*
X170902D01*
G37*
G36*
X171600Y108947D02*Y107146D01*
X174400D01*
Y108947D01*
X171600D01*
G37*
G36*
Y106980D02*Y105179D01*
X174400D01*
Y106980D01*
X171600D01*
G37*
G36*
Y105010D02*Y103210D01*
X174400D01*
Y105010D01*
X171600D01*
G37*
G36*
X169902Y139752D02*X164184D01*
Y133248D01*
X169902D01*
Y139752D01*
G37*
G36*
X75500Y40500D02*X72500D01*
Y31000D01*
X75500D01*
Y40500D01*
G37*
G36*
Y61000D02*X72500D01*
Y51500D01*
X75500D01*
Y61000D01*
G37*
G36*
X80500Y40500D02*X77500D01*
Y31000D01*
X80500D01*
Y40500D01*
G37*
G36*
Y61000D02*X77500D01*
Y51500D01*
X80500D01*
Y61000D01*
G37*
G36*
X85500Y40500D02*X82500D01*
Y31000D01*
X85500D01*
Y40500D01*
G37*
G36*
Y61000D02*X82500D01*
Y51500D01*
X85500D01*
Y61000D01*
G37*
G36*
X90500Y40500D02*X87500D01*
Y31000D01*
X90500D01*
Y40500D01*
G37*
G36*
Y61000D02*X87500D01*
Y51500D01*
X90500D01*
Y61000D01*
G37*
G36*
X80100Y14100D02*X77100D01*
Y9500D01*
X80100D01*
Y14100D01*
G37*
G36*
X84000D02*X81000D01*
Y9500D01*
X84000D01*
Y14100D01*
G37*
G36*
X87900D02*X84900D01*
Y9500D01*
X87900D01*
Y14100D01*
G37*
G36*
Y22300D02*X84900D01*
Y17700D01*
X87900D01*
Y22300D01*
G37*
G36*
X84000D02*X81000D01*
Y17700D01*
X84000D01*
Y22300D01*
G37*
G36*
X80100D02*X77100D01*
Y17700D01*
X80100D01*
Y22300D01*
G37*
G36*
X72814Y82828D02*Y73172D01*
X83256D01*
Y82828D01*
X72814D01*
G37*
G36*
X89744D02*Y73172D01*
X100186D01*
Y82828D01*
X89744D01*
G37*
M02*
