M48
INCH
T37C0.012
T36C0.063
T35C0.055
T34C0.129
%
T37
X008250Y000550
X009150Y001150
X015350Y011850
X016500Y009950
X016500Y009600
X016500Y009250
X016850Y009950
X017150Y012250
X017200Y009950
X017550Y009950
X017700Y012350
X018050Y012350
X018400Y012350
X018750Y012350
X018900Y008350
X019000Y009950
X019100Y012350
X019250Y008350
X020850Y002500
X020850Y002050
X021700Y011150
X021950Y012050
T35
X004000Y010200
X004000Y008200
X007850Y011000
X009850Y011000
X011100Y004000
X013100Y004000
X015100Y004000
X017100Y004000
X021000Y006850
X021000Y004850
T36
X004380Y005300
X004380Y001400
X005720Y005300
X005720Y001400
T34
X001700Y013300
X001700Y001700
X023300Y013300
X023300Y001700
M30
