M48
INCH
T46C0.012
T45C0.063
T44C0.055
T43C0.129
%
T46
X003600Y007900
X004000Y007900
X004400Y007900
X004900Y007300
X004900Y006950
X004900Y006600
X006750Y013600
X006750Y012500
X007150Y013600
X007150Y012500
X007300Y004350
X007300Y004000
X007300Y003650
X007550Y013600
X007550Y012500
X007850Y004900
X007850Y003100
X008250Y004900
X008250Y003100
X008650Y004900
X008650Y003100
X013750Y012950
X013750Y012600
X013750Y012250
X014300Y009800
X014300Y009450
X014300Y009100
X015400Y009800
X015400Y009450
X015400Y009100
X020900Y012250
X021500Y009950
X021500Y009600
X021500Y009250
X021700Y012250
X021850Y009950
X022200Y009950
X022550Y009950
X022850Y012300
X022850Y011750
X023200Y012000
X023500Y012300
X023500Y011750
X024000Y009950
X024000Y008350
X024000Y008000
X024000Y007650
X024350Y009950
X024350Y008350
X024350Y008000
X024350Y007650
X025100Y007200
X025100Y006850
X025100Y006500
X025500Y011650
X025600Y007750
X025800Y002250
X025950Y010400
X026000Y007750
X026150Y002250
X026400Y007750
T44
X004000Y006850
X004000Y004850
X008250Y004000
X010250Y004000
X016100Y004000
X018100Y004000
X020100Y004000
X022100Y004000
X026000Y006850
X026000Y004850
T45
X001500Y010820
X001500Y009480
X005400Y010820
X005400Y009480
T43
X001700Y013300
X001700Y001700
X028300Y013300
X028300Y001700
M30
