G04 start of page 8 for group -4079 idx -4079 *
G04 Title: (unknown), topsilk *
G04 Creator: pcb 20140316 *
G04 CreationDate: Tue 07 May 2019 04:42:48 PM GMT UTC *
G04 For: ndholmes *
G04 Format: Gerber/RS-274X *
G04 PCB-Dimensions (mil): 3000.00 1500.00 *
G04 PCB-Coordinate-Origin: lower left *
%MOIN*%
%FSLAX25Y25*%
%LNTOPSILK*%
%ADD64C,0.0080*%
%ADD63C,0.0100*%
G54D63*X500Y149500D02*Y500D01*
X299500Y149500D02*Y500D01*
X500Y149500D02*X299500D01*
Y500D02*X500D01*
G54D64*X54500Y56000D02*Y54000D01*
X55000Y53500D01*
X56200D01*
X56700Y54000D02*X56200Y53500D01*
X56700Y55500D02*Y54000D01*
X54500Y55500D02*X58500D01*
Y56000D02*Y54000D01*
X58000Y53500D01*
X57200D02*X58000D01*
X56700Y54000D02*X57200Y53500D01*
X54500Y52300D02*X57500D01*
X58500Y51600D01*
Y50500D01*
X57500Y49800D01*
X54500D02*X57500D01*
X56500Y52300D02*Y49800D01*
X58500Y48600D02*Y46600D01*
X54500Y47600D02*X58500D01*
X56500Y45400D02*Y43400D01*
X55500Y44400D02*X57500D01*
X55000Y74500D02*Y72500D01*
X55500Y72000D01*
X56700D01*
X57200Y72500D02*X56700Y72000D01*
X57200Y74000D02*Y72500D01*
X55000Y74000D02*X59000D01*
Y74500D02*Y72500D01*
X58500Y72000D01*
X57700D02*X58500D01*
X57200Y72500D02*X57700Y72000D01*
X55000Y70800D02*X58000D01*
X59000Y70100D01*
Y69000D01*
X58000Y68300D01*
X55000D02*X58000D01*
X57000Y70800D02*Y68300D01*
X59000Y67100D02*Y65100D01*
X55000Y66100D02*X59000D01*
X57000Y63900D02*Y61900D01*
X73500Y114000D02*X74000Y113500D01*
Y112000D01*
X73500Y111500D01*
X72500D02*X73500D01*
X70000Y114000D02*X72500Y111500D01*
X70000Y114000D02*Y111500D01*
Y110300D02*X73000D01*
X74000Y109600D01*
Y108500D01*
X73000Y107800D01*
X70000D02*X73000D01*
X72000Y110300D02*Y107800D01*
X70000Y104800D02*X74000D01*
X72000Y103300D01*
X74000Y101800D01*
X70000D02*X74000D01*
Y100600D02*Y99600D01*
X70000Y100100D02*X74000D01*
X70000Y100600D02*Y99600D01*
Y98400D02*X74000D01*
X70000Y95900D01*
X74000D01*
Y94700D02*Y93700D01*
X70000Y94200D02*X74000D01*
X70000Y94700D02*Y93700D01*
Y90700D02*X74000D01*
Y88700D01*
X72200Y90700D02*Y89200D01*
X70500Y87500D02*X74000D01*
X70500D02*X70000Y87000D01*
Y86000D01*
X70500Y85500D01*
X74000D01*
Y82300D02*X73500Y81800D01*
X74000Y83800D02*Y82300D01*
X73500Y84300D02*X74000Y83800D01*
X72500Y84300D02*X73500D01*
X72500D02*X72000Y83800D01*
Y82300D01*
X71500Y81800D01*
X70500D02*X71500D01*
X70000Y82300D02*X70500Y81800D01*
X70000Y83800D02*Y82300D01*
X70500Y84300D02*X70000Y83800D01*
X72200Y80600D02*Y79100D01*
X70000Y80600D02*Y78600D01*
Y80600D02*X74000D01*
Y78600D01*
X65500Y86000D02*Y84000D01*
X63500Y86000D02*X65500D01*
X63500D02*X64000Y85500D01*
Y84500D01*
X63500Y84000D01*
X62000D02*X63500D01*
X61500Y84500D02*X62000Y84000D01*
X61500Y85500D02*Y84500D01*
X62000Y86000D02*X61500Y85500D01*
X63500Y82800D02*Y80800D01*
X61500Y78900D02*Y77600D01*
X62200Y79600D02*X61500Y78900D01*
X62200Y79600D02*X64800D01*
X65500Y78900D01*
Y77600D01*
X63700Y76400D02*Y74900D01*
X61500Y76400D02*Y74400D01*
Y76400D02*X65500D01*
Y74400D01*
X61500Y73200D02*X65500D01*
X61500D02*Y71200D01*
Y70000D02*X65500D01*
X61500D02*Y68000D01*
Y65000D02*X65500D01*
X61500D02*Y63000D01*
X65500Y61800D02*Y60800D01*
X61500Y61300D02*X65500D01*
X61500Y61800D02*Y60800D01*
X63500Y59600D02*Y57600D01*
X65500Y56400D02*Y55400D01*
X61500Y55900D02*X65500D01*
X61500Y56400D02*Y55400D01*
X62000Y54200D02*X65000D01*
X65500Y53700D01*
Y52700D01*
X65000Y52200D01*
X62000D02*X65000D01*
X61500Y52700D02*X62000Y52200D01*
X61500Y53700D02*Y52700D01*
X62000Y54200D02*X61500Y53700D01*
Y51000D02*X65500D01*
X61500Y48500D01*
X65500D01*
X61500Y45000D02*X65500D01*
Y45500D02*Y43500D01*
X65000Y43000D01*
X64000D02*X65000D01*
X63500Y43500D02*X64000Y43000D01*
X63500Y45000D02*Y43500D01*
X61500Y41800D02*X64500D01*
X65500Y41100D01*
Y40000D01*
X64500Y39300D01*
X61500D02*X64500D01*
X63500Y41800D02*Y39300D01*
X61500Y37400D02*Y36100D01*
X62200Y38100D02*X61500Y37400D01*
X62200Y38100D02*X64800D01*
X65500Y37400D01*
Y36100D01*
X61500Y34900D02*X65500D01*
X63500D02*X65500Y32900D01*
X63500Y34900D02*X61500Y32900D01*
X98000Y59000D02*Y55000D01*
X97500Y59000D02*X99500D01*
X100000Y58500D01*
Y57500D01*
X99500Y57000D02*X100000Y57500D01*
X98000Y57000D02*X99500D01*
X103200Y59000D02*X103700Y58500D01*
X101700Y59000D02*X103200D01*
X101200Y58500D02*X101700Y59000D01*
X101200Y58500D02*Y57500D01*
X101700Y57000D01*
X103200D01*
X103700Y56500D01*
Y55500D01*
X103200Y55000D02*X103700Y55500D01*
X101700Y55000D02*X103200D01*
X101200Y55500D02*X101700Y55000D01*
X104900Y57000D02*X106900D01*
X105900Y58000D02*Y56000D01*
X84000Y64500D02*X84500Y65000D01*
X86000D01*
X86500Y64500D01*
Y63500D01*
X84000Y61000D02*X86500Y63500D01*
X84000Y61000D02*X86500D01*
X87700Y62500D02*X89700Y65000D01*
X87700Y62500D02*X90200D01*
X89700Y65000D02*Y61000D01*
X91400Y65000D02*X92400Y61000D01*
X93400Y65000D01*
X95100D02*Y61000D01*
X96400Y65000D02*X97100Y64300D01*
Y61700D01*
X96400Y61000D02*X97100Y61700D01*
X94600Y61000D02*X96400D01*
X94600Y65000D02*X96400D01*
X99000Y61000D02*X100300D01*
X98300Y61700D02*X99000Y61000D01*
X98300Y64300D02*Y61700D01*
Y64300D02*X99000Y65000D01*
X100300D01*
X78500Y59000D02*Y55000D01*
X78000Y59000D02*X80000D01*
X80500Y58500D01*
Y57500D01*
X80000Y57000D02*X80500Y57500D01*
X78500Y57000D02*X80000D01*
X83700Y59000D02*X84200Y58500D01*
X82200Y59000D02*X83700D01*
X81700Y58500D02*X82200Y59000D01*
X81700Y58500D02*Y57500D01*
X82200Y57000D01*
X83700D01*
X84200Y56500D01*
Y55500D01*
X83700Y55000D02*X84200Y55500D01*
X82200Y55000D02*X83700D01*
X81700Y55500D02*X82200Y55000D01*
X85400Y57000D02*X87400D01*
X89000Y86500D02*X91000Y84500D01*
X89000D02*X91000Y86500D01*
X89000Y85500D02*X91000D01*
X90000Y86500D02*Y84500D01*
X178500Y137000D02*X180500D01*
X179500Y138000D02*Y136000D01*
X132250Y100500D02*X134250Y98500D01*
X132250D02*X134250Y100500D01*
X132250Y99500D02*X134250D01*
X133250Y100500D02*Y98500D01*
X132250Y128000D02*X134250Y126000D01*
X132250D02*X134250Y128000D01*
X132250Y127000D02*X134250D01*
X133250Y128000D02*Y126000D01*
X161000Y138000D02*Y135000D01*
Y138000D02*X161500Y138500D01*
X162500D01*
X163000Y138000D01*
Y135000D01*
X162500Y134500D02*X163000Y135000D01*
X161500Y134500D02*X162500D01*
X161000Y135000D02*X161500Y134500D01*
X164700Y138500D02*Y134500D01*
X164200Y138500D02*X166200D01*
X166700Y138000D01*
Y137000D01*
X166200Y136500D02*X166700Y137000D01*
X164700Y136500D02*X166200D01*
X167900Y136700D02*X169400D01*
X167900Y134500D02*X169900D01*
X167900Y138500D02*Y134500D01*
Y138500D02*X169900D01*
X171100D02*Y134500D01*
Y138500D02*X173600Y134500D01*
Y138500D02*Y134500D01*
X161000Y131500D02*Y128500D01*
Y131500D02*X161500Y132000D01*
X162500D01*
X163000Y131500D01*
Y128500D01*
X162500Y128000D02*X163000Y128500D01*
X161500Y128000D02*X162500D01*
X161000Y128500D02*X161500Y128000D01*
X164200Y132000D02*Y128500D01*
X164700Y128000D01*
X165700D01*
X166200Y128500D01*
Y132000D02*Y128500D01*
X167400Y132000D02*X169400D01*
X168400D02*Y128000D01*
X171100Y132000D02*Y128000D01*
X170600Y132000D02*X172600D01*
X173100Y131500D01*
Y130500D01*
X172600Y130000D02*X173100Y130500D01*
X171100Y130000D02*X172600D01*
X174300Y132000D02*Y128500D01*
X174800Y128000D01*
X175800D01*
X176300Y128500D01*
Y132000D02*Y128500D01*
X177500Y132000D02*X179500D01*
X178500D02*Y128000D01*
X115500Y144500D02*Y143000D01*
X116000Y142500D01*
X116500D01*
X117000Y143000D01*
Y144500D02*Y143000D01*
X117500Y142500D01*
X118000D01*
X118500Y143000D01*
Y144500D02*Y143000D01*
X119700Y144500D02*Y143000D01*
X120200Y142500D01*
X120700D01*
X121200Y143000D01*
Y144500D02*Y143000D01*
X121700Y142500D01*
X122200D01*
X122700Y143000D01*
Y144500D02*Y143000D01*
X123900Y144500D02*Y143000D01*
X124400Y142500D01*
X124900D01*
X125400Y143000D01*
Y144500D02*Y143000D01*
X125900Y142500D01*
X126400D01*
X126900Y143000D01*
Y144500D02*Y143000D01*
X128100Y142500D02*X128600D01*
X129800Y145500D02*Y145400D01*
Y144000D02*Y142500D01*
X132300Y144500D02*X132800Y144000D01*
X131300Y144500D02*X132300D01*
X130800Y144000D02*X131300Y144500D01*
X130800Y144000D02*Y143000D01*
X131300Y142500D01*
X132800Y144500D02*Y143000D01*
X133300Y142500D01*
X131300D02*X132300D01*
X132800Y143000D01*
X135000Y142500D02*X136500D01*
X137000Y143000D01*
X136500Y143500D02*X137000Y143000D01*
X135000Y143500D02*X136500D01*
X134500Y144000D02*X135000Y143500D01*
X134500Y144000D02*X135000Y144500D01*
X136500D01*
X137000Y144000D01*
X134500Y143000D02*X135000Y142500D01*
X138700Y144500D02*X140200D01*
X138200Y144000D02*X138700Y144500D01*
X138200Y144000D02*Y143000D01*
X138700Y142500D01*
X140200D01*
X142900Y144500D02*X143400Y144000D01*
X141900Y144500D02*X142900D01*
X141400Y144000D02*X141900Y144500D01*
X141400Y144000D02*Y143000D01*
X141900Y142500D01*
X143400Y144500D02*Y143000D01*
X143900Y142500D01*
X141900D02*X142900D01*
X143400Y143000D01*
X145100Y146500D02*Y143000D01*
X145600Y142500D01*
X147100D02*X148600D01*
X146600Y143000D02*X147100Y142500D01*
X146600Y144000D02*Y143000D01*
Y144000D02*X147100Y144500D01*
X148100D01*
X148600Y144000D01*
X146600Y143500D02*X148600D01*
Y144000D02*Y143500D01*
X151800Y146500D02*Y142500D01*
X151300D02*X151800Y143000D01*
X150300Y142500D02*X151300D01*
X149800Y143000D02*X150300Y142500D01*
X149800Y144000D02*Y143000D01*
Y144000D02*X150300Y144500D01*
X151300D01*
X151800Y144000D01*
X153000Y142500D02*X153500D01*
X155200Y144500D02*X156700D01*
X154700Y144000D02*X155200Y144500D01*
X154700Y144000D02*Y143000D01*
X155200Y142500D01*
X156700D01*
X157900Y144000D02*Y143000D01*
Y144000D02*X158400Y144500D01*
X159400D01*
X159900Y144000D01*
Y143000D01*
X159400Y142500D02*X159900Y143000D01*
X158400Y142500D02*X159400D01*
X157900Y143000D02*X158400Y142500D01*
X161600Y144000D02*Y142500D01*
Y144000D02*X162100Y144500D01*
X162600D01*
X163100Y144000D01*
Y142500D01*
Y144000D02*X163600Y144500D01*
X164100D01*
X164600Y144000D01*
Y142500D01*
X161100Y144500D02*X161600Y144000D01*
X156000Y58500D02*X157000Y54500D01*
X158000Y58500D01*
X159200D02*X160200D01*
X159700D02*Y54500D01*
X159200D02*X160200D01*
X161400Y58500D02*Y54500D01*
Y58500D02*X163900Y54500D01*
Y58500D02*Y54500D01*
X177000Y58500D02*Y54500D01*
X179000D01*
X180200Y56700D02*X181700D01*
X180200Y54500D02*X182200D01*
X180200Y58500D02*Y54500D01*
Y58500D02*X182200D01*
X183900D02*Y54500D01*
X185200Y58500D02*X185900Y57800D01*
Y55200D01*
X185200Y54500D02*X185900Y55200D01*
X183400Y54500D02*X185200D01*
X183400Y58500D02*X185200D01*
X187100Y56500D02*X189100D01*
X130000Y10000D02*X132000D01*
X131000Y11000D02*Y9000D01*
X240500Y42500D02*X244500D01*
Y44500D02*Y42500D01*
X242300Y47200D02*Y45700D01*
X244500Y47700D02*Y45700D01*
X240500D02*X244500D01*
X240500Y47700D02*Y45700D01*
Y49400D02*X244500D01*
X240500Y50700D02*X241200Y51400D01*
X243800D01*
X244500Y50700D02*X243800Y51400D01*
X244500Y50700D02*Y48900D01*
X240500Y50700D02*Y48900D01*
X242500Y54600D02*Y52600D01*
X241500Y53600D02*X243500D01*
X215500Y58500D02*X216500Y54500D01*
X217500Y58500D01*
X218700Y58000D02*Y55000D01*
Y58000D02*X219200Y58500D01*
X220200D01*
X220700Y58000D01*
Y55000D01*
X220200Y54500D02*X220700Y55000D01*
X219200Y54500D02*X220200D01*
X218700Y55000D02*X219200Y54500D01*
X221900Y58500D02*Y55000D01*
X222400Y54500D01*
X223400D01*
X223900Y55000D01*
Y58500D02*Y55000D01*
X225100Y58500D02*X227100D01*
X226100D02*Y54500D01*
X196500Y58500D02*Y54500D01*
X198500D01*
X199700Y56700D02*X201200D01*
X199700Y54500D02*X201700D01*
X199700Y58500D02*Y54500D01*
Y58500D02*X201700D01*
X203400D02*Y54500D01*
X204700Y58500D02*X205400Y57800D01*
Y55200D01*
X204700Y54500D02*X205400Y55200D01*
X202900Y54500D02*X204700D01*
X202900Y58500D02*X204700D01*
X206600Y56500D02*X208600D01*
X207600Y57500D02*Y55500D01*
X170000Y74000D02*X171000D01*
X170500D02*Y70000D01*
X170000D02*X171000D01*
X172200Y71500D02*Y70500D01*
Y71500D02*X172700Y72000D01*
X173700D01*
X174200Y71500D01*
Y70500D01*
X173700Y70000D02*X174200Y70500D01*
X172700Y70000D02*X173700D01*
X172200Y70500D02*X172700Y70000D01*
X175400Y72000D02*Y70500D01*
X175900Y70000D01*
X176400D01*
X176900Y70500D01*
Y72000D02*Y70500D01*
X177400Y70000D01*
X177900D01*
X178400Y70500D01*
Y72000D02*Y70500D01*
X181100Y72000D02*X181600Y71500D01*
X180100Y72000D02*X181100D01*
X179600Y71500D02*X180100Y72000D01*
X179600Y71500D02*Y70500D01*
X180100Y70000D01*
X181600Y72000D02*Y70500D01*
X182100Y70000D01*
X180100D02*X181100D01*
X181600Y70500D01*
X187100Y74000D02*X187600Y73500D01*
X185600Y74000D02*X187100D01*
X185100Y73500D02*X185600Y74000D01*
X185100Y73500D02*Y72500D01*
X185600Y72000D01*
X187100D01*
X187600Y71500D01*
Y70500D01*
X187100Y70000D02*X187600Y70500D01*
X185600Y70000D02*X187100D01*
X185100Y70500D02*X185600Y70000D01*
X189300Y72000D02*X190800D01*
X188800Y71500D02*X189300Y72000D01*
X188800Y71500D02*Y70500D01*
X189300Y70000D01*
X190800D01*
X193500Y72000D02*X194000Y71500D01*
X192500Y72000D02*X193500D01*
X192000Y71500D02*X192500Y72000D01*
X192000Y71500D02*Y70500D01*
X192500Y70000D01*
X194000Y72000D02*Y70500D01*
X194500Y70000D01*
X192500D02*X193500D01*
X194000Y70500D01*
X195700Y74000D02*Y70500D01*
X196200Y70000D01*
X197700D02*X199200D01*
X197200Y70500D02*X197700Y70000D01*
X197200Y71500D02*Y70500D01*
Y71500D02*X197700Y72000D01*
X198700D01*
X199200Y71500D01*
X197200Y71000D02*X199200D01*
Y71500D02*Y71000D01*
X202400Y74000D02*Y70000D01*
X201900D02*X202400Y70500D01*
X200900Y70000D02*X201900D01*
X200400Y70500D02*X200900Y70000D01*
X200400Y71500D02*Y70500D01*
Y71500D02*X200900Y72000D01*
X201900D01*
X202400Y71500D01*
X205400Y72200D02*X206900D01*
X205400Y70000D02*X207400D01*
X205400Y74000D02*Y70000D01*
Y74000D02*X207400D01*
X209100Y71500D02*Y70000D01*
Y71500D02*X209600Y72000D01*
X210100D01*
X210600Y71500D01*
Y70000D01*
X208600Y72000D02*X209100Y71500D01*
X213300Y72000D02*X213800Y71500D01*
X212300Y72000D02*X213300D01*
X211800Y71500D02*X212300Y72000D01*
X211800Y71500D02*Y70500D01*
X212300Y70000D01*
X213300D01*
X213800Y70500D01*
X211800Y69000D02*X212300Y68500D01*
X213300D01*
X213800Y69000D01*
Y72000D02*Y69000D01*
X215000Y73000D02*Y72900D01*
Y71500D02*Y70000D01*
X216500Y71500D02*Y70000D01*
Y71500D02*X217000Y72000D01*
X217500D01*
X218000Y71500D01*
Y70000D01*
X216000Y72000D02*X216500Y71500D01*
X219700Y70000D02*X221200D01*
X219200Y70500D02*X219700Y70000D01*
X219200Y71500D02*Y70500D01*
Y71500D02*X219700Y72000D01*
X220700D01*
X221200Y71500D01*
X219200Y71000D02*X221200D01*
Y71500D02*Y71000D01*
X222900Y70000D02*X224400D01*
X222400Y70500D02*X222900Y70000D01*
X222400Y71500D02*Y70500D01*
Y71500D02*X222900Y72000D01*
X223900D01*
X224400Y71500D01*
X222400Y71000D02*X224400D01*
Y71500D02*Y71000D01*
X226100Y71500D02*Y70000D01*
Y71500D02*X226600Y72000D01*
X227600D01*
X225600D02*X226100Y71500D01*
X228800Y73000D02*Y72900D01*
Y71500D02*Y70000D01*
X230300Y71500D02*Y70000D01*
Y71500D02*X230800Y72000D01*
X231300D01*
X231800Y71500D01*
Y70000D01*
X229800Y72000D02*X230300Y71500D01*
X234500Y72000D02*X235000Y71500D01*
X233500Y72000D02*X234500D01*
X233000Y71500D02*X233500Y72000D01*
X233000Y71500D02*Y70500D01*
X233500Y70000D01*
X234500D01*
X235000Y70500D01*
X233000Y69000D02*X233500Y68500D01*
X234500D01*
X235000Y69000D01*
Y72000D02*Y69000D01*
X170700Y62500D02*X172000D01*
X170000Y63200D02*X170700Y62500D01*
X170000Y65800D02*Y63200D01*
Y65800D02*X170700Y66500D01*
X172000D01*
X173200D02*Y62500D01*
Y64500D02*X175200Y66500D01*
X173200Y64500D02*X175200Y62500D01*
X176400Y66500D02*X178400D01*
X177400D02*Y62500D01*
X179600Y64500D02*X181600D01*
X182800Y66500D02*Y62500D01*
X184800D01*
X186000Y64700D02*X187500D01*
X186000Y62500D02*X188000D01*
X186000Y66500D02*Y62500D01*
Y66500D02*X188000D01*
X189700D02*Y62500D01*
X191000Y66500D02*X191700Y65800D01*
Y63200D01*
X191000Y62500D02*X191700Y63200D01*
X189200Y62500D02*X191000D01*
X189200Y66500D02*X191000D01*
X193400D02*Y62500D01*
X192900Y66500D02*X194900D01*
X195400Y66000D01*
Y65000D01*
X194900Y64500D02*X195400Y65000D01*
X193400Y64500D02*X194900D01*
X196600Y65500D02*Y62500D01*
Y65500D02*X197300Y66500D01*
X198400D01*
X199100Y65500D01*
Y62500D01*
X196600Y64500D02*X199100D01*
X200300Y66500D02*Y62500D01*
Y66500D02*X202800Y62500D01*
Y66500D02*Y62500D01*
X204000Y64700D02*X205500D01*
X204000Y62500D02*X206000D01*
X204000Y66500D02*Y62500D01*
Y66500D02*X206000D01*
X207200D02*Y62500D01*
X209200D01*
X212200Y64500D02*X213200Y62500D01*
X214200Y64500D02*X213200Y62500D01*
X215400Y66000D02*X215900Y66500D01*
X217400D01*
X217900Y66000D01*
Y65000D01*
X215400Y62500D02*X217900Y65000D01*
X215400Y62500D02*X217900D01*
X219100D02*X219600D01*
X220800Y66000D02*X221300Y66500D01*
X222800D01*
X223300Y66000D01*
Y65000D01*
X220800Y62500D02*X223300Y65000D01*
X220800Y62500D02*X223300D01*
X240500Y61500D02*X244500D01*
Y63500D02*Y61500D01*
X242300Y66200D02*Y64700D01*
X244500Y66700D02*Y64700D01*
X240500D02*X244500D01*
X240500Y66700D02*Y64700D01*
Y68400D02*X244500D01*
X240500Y69700D02*X241200Y70400D01*
X243800D01*
X244500Y69700D02*X243800Y70400D01*
X244500Y69700D02*Y67900D01*
X240500Y69700D02*Y67900D01*
X242500Y73600D02*Y71600D01*
X238500Y11500D02*X239000Y11000D01*
X238500Y14500D02*X239000Y15000D01*
X238500Y14500D02*Y11500D01*
X240900Y11000D02*X242200D01*
X240200Y11700D02*X240900Y11000D01*
X240200Y14300D02*Y11700D01*
Y14300D02*X240900Y15000D01*
X242200D01*
X243400D02*X243900Y14500D01*
Y11500D01*
X243400Y11000D02*X243900Y11500D01*
X245100Y14500D02*X245600Y15000D01*
X247100D01*
X247600Y14500D01*
Y13500D01*
X245100Y11000D02*X247600Y13500D01*
X245100Y11000D02*X247600D01*
X248800Y11500D02*X249300Y11000D01*
X248800Y14500D02*Y11500D01*
Y14500D02*X249300Y15000D01*
X250300D01*
X250800Y14500D01*
Y11500D01*
X250300Y11000D02*X250800Y11500D01*
X249300Y11000D02*X250300D01*
X248800Y12000D02*X250800Y14000D01*
X252000Y14200D02*X252800Y15000D01*
Y11000D01*
X252000D02*X253500D01*
X255200D02*X256700Y13000D01*
Y14500D02*Y13000D01*
X256200Y15000D02*X256700Y14500D01*
X255200Y15000D02*X256200D01*
X254700Y14500D02*X255200Y15000D01*
X254700Y14500D02*Y13500D01*
X255200Y13000D01*
X256700D01*
X239200Y4500D02*X240500D01*
X238500Y5200D02*X239200Y4500D01*
X238500Y7800D02*Y5200D01*
Y7800D02*X239200Y8500D01*
X240500D01*
X242400Y4500D02*X243700D01*
X241700Y5200D02*X242400Y4500D01*
X241700Y7800D02*Y5200D01*
Y7800D02*X242400Y8500D01*
X243700D01*
X246700Y4500D02*X248700D01*
X249200Y5000D01*
Y6200D02*Y5000D01*
X248700Y6700D02*X249200Y6200D01*
X247200Y6700D02*X248700D01*
X247200Y8500D02*Y4500D01*
X246700Y8500D02*X248700D01*
X249200Y8000D01*
Y7200D01*
X248700Y6700D02*X249200Y7200D01*
X250400Y8500D02*X251400Y6500D01*
X252400Y8500D01*
X251400Y6500D02*Y4500D01*
X253600Y6500D02*X255600D01*
X258800Y8500D02*X259300Y8000D01*
X257300Y8500D02*X258800D01*
X256800Y8000D02*X257300Y8500D01*
X256800Y8000D02*Y7000D01*
X257300Y6500D01*
X258800D01*
X259300Y6000D01*
Y5000D01*
X258800Y4500D02*X259300Y5000D01*
X257300Y4500D02*X258800D01*
X256800Y5000D02*X257300Y4500D01*
X260500Y7500D02*Y4500D01*
Y7500D02*X261200Y8500D01*
X262300D01*
X263000Y7500D01*
Y4500D01*
X260500Y6500D02*X263000D01*
G54D63*X240755Y133893D02*Y133107D01*
X235245Y133893D02*Y133107D01*
X245245Y133893D02*Y133107D01*
X250755Y133893D02*Y133107D01*
X246032Y86186D02*X249968D01*
X246032Y96814D02*X249968D01*
X268976Y98600D02*X281976D01*
X268976Y86400D02*X281976D01*
X219689Y119858D02*X243311D01*
Y102142D01*
X219689D01*
Y119858D01*
X217689Y121358D02*G75*G03X217689Y121358I500J0D01*G01*
X247607Y19745D02*X248393D01*
X247607Y25255D02*X248393D01*
X248189Y34484D02*X299370D01*
X248189Y82516D02*Y34484D01*
Y82516D02*X299370D01*
Y34484D01*
X630Y82516D02*X51811D01*
Y34484D01*
X630D02*X51811D01*
X630Y82516D02*Y34484D01*
X3000Y114750D02*X66000D01*
Y88250D01*
X3000D02*X66000D01*
X3000Y114750D02*Y88250D01*
X74649Y124004D02*Y117508D01*
Y143492D02*Y136996D01*
X55161Y143492D02*X74649D01*
X55161Y117508D02*X74649D01*
X55161Y143492D02*X48665Y136996D01*
X55161Y117508D02*X48665Y124004D01*
X55657Y124500D02*Y120500D01*
X53657Y122500D02*X57657D01*
X217591Y90468D02*Y86532D01*
X228219Y90468D02*Y86532D01*
X178500Y76500D02*X203500D01*
X178500D02*X165500Y89500D01*
Y119500D02*Y89500D01*
Y119500D02*X168500Y122500D01*
X198500D01*
X211500Y109500D01*
Y84500D01*
X203500Y76500D01*
X198500Y99500D02*G75*G03X198500Y99500I-10000J0D01*G01*
X198755Y133893D02*Y133107D01*
X193245Y133893D02*Y133107D01*
X226755Y133893D02*Y133107D01*
X221245Y133893D02*Y133107D01*
X211245Y133893D02*Y133107D01*
X216755Y133893D02*Y133107D01*
X116500Y125000D02*X130400D01*
Y136800D02*Y125000D01*
X116500Y136800D02*X130400D01*
X116500D02*Y125000D01*
X182745Y133893D02*Y133107D01*
X188255Y133893D02*Y133107D01*
X146906Y51811D02*Y630D01*
Y51811D02*X235094D01*
Y630D01*
X146906D02*X235094D01*
X123126Y43067D02*Y13933D01*
Y43067D02*X138874D01*
Y13933D01*
X123126D02*X138874D01*
X123126Y30900D02*X138874D01*
X68484Y51811D02*Y630D01*
Y51811D02*X116516D01*
Y630D01*
X68484D02*X116516D01*
X92750Y87500D02*Y68500D01*
X123750D01*
Y87500D02*Y68500D01*
X92750Y87500D02*X105750D01*
X110750D02*X123750D01*
X105750D02*G75*G03X110750Y87500I2500J0D01*G01*
X116500Y97750D02*X130400D01*
Y109550D02*Y97750D01*
X116500Y109550D02*X130400D01*
X116500D02*Y97750D01*
X84000Y114800D02*Y95100D01*
X92000Y114800D02*Y95100D01*
X84000Y114800D02*X92000D01*
X84000Y95100D02*X92000D01*
X84000Y108000D02*X92000D01*
X115607Y121755D02*X116393D01*
X115607Y116245D02*X116393D01*
X105245Y105393D02*Y104607D01*
X110755Y105393D02*Y104607D01*
X101755Y105393D02*Y104607D01*
X96245Y105393D02*Y104607D01*
X154996Y97992D02*X161492D01*
X135508D02*X142004D01*
X135508D02*Y78504D01*
X161492Y97992D02*Y78504D01*
X135508D02*X142004Y72008D01*
X161492Y78504D02*X154996Y72008D01*
X154500Y79000D02*X158500D01*
X156500Y81000D02*Y77000D01*
X91745Y130893D02*Y130107D01*
X97255Y130893D02*Y130107D01*
X87255Y130850D02*Y130064D01*
X81745Y130850D02*Y130064D01*
X107255Y130936D02*Y130150D01*
X101745Y130936D02*Y130150D01*
G54D64*X235393Y146150D02*X237393D01*
X237893Y145650D01*
Y144650D01*
X237393Y144150D02*X237893Y144650D01*
X235893Y144150D02*X237393D01*
X235893Y146150D02*Y142150D01*
X236693Y144150D02*X237893Y142150D01*
X239093Y146150D02*X241093D01*
X239093D02*Y144150D01*
X239593Y144650D01*
X240593D01*
X241093Y144150D01*
Y142650D01*
X240593Y142150D02*X241093Y142650D01*
X239593Y142150D02*X240593D01*
X239093Y142650D02*X239593Y142150D01*
X244307Y146150D02*X246307D01*
X246807Y145650D01*
Y144650D01*
X246307Y144150D02*X246807Y144650D01*
X244807Y144150D02*X246307D01*
X244807Y146150D02*Y142150D01*
X245607Y144150D02*X246807Y142150D01*
X248007Y143650D02*X250007Y146150D01*
X248007Y143650D02*X250507D01*
X250007Y146150D02*Y142150D01*
X250740Y99650D02*X252040D01*
X250040Y100350D02*X250740Y99650D01*
X250040Y102950D02*Y100350D01*
Y102950D02*X250740Y103650D01*
X252040D01*
X253240Y103150D02*X253740Y103650D01*
X255240D01*
X255740Y103150D01*
Y102150D01*
X253240Y99650D02*X255740Y102150D01*
X253240Y99650D02*X255740D01*
X283826Y105150D02*X285826D01*
X286326Y104650D01*
Y103650D01*
X285826Y103150D02*X286326Y103650D01*
X284326Y103150D02*X285826D01*
X284326Y105150D02*Y101150D01*
X285126Y103150D02*X286326Y101150D01*
X287526Y104350D02*X288326Y105150D01*
Y101150D01*
X287526D02*X289026D01*
X212500Y117500D02*Y114000D01*
X213000Y113500D01*
X214000D01*
X214500Y114000D01*
Y117500D02*Y114000D01*
X215700Y116700D02*X216500Y117500D01*
Y113500D01*
X215700D02*X217200D01*
X231050Y80745D02*X232350D01*
X230350Y81445D02*X231050Y80745D01*
X230350Y84045D02*Y81445D01*
Y84045D02*X231050Y84745D01*
X232350D01*
X233550Y83945D02*X234350Y84745D01*
Y80745D01*
X233550D02*X235050D01*
X292200Y89500D02*X293000D01*
Y86000D01*
X292500Y85500D02*X293000Y86000D01*
X292000Y85500D02*X292500D01*
X291500Y86000D02*X292000Y85500D01*
X291500Y86500D02*Y86000D01*
X294200Y87000D02*X296200Y89500D01*
X294200Y87000D02*X296700D01*
X296200Y89500D02*Y85500D01*
X193307Y146150D02*X195307D01*
X195807Y145650D01*
Y144650D01*
X195307Y144150D02*X195807Y144650D01*
X193807Y144150D02*X195307D01*
X193807Y146150D02*Y142150D01*
X194607Y144150D02*X195807Y142150D01*
X198507Y146150D02*X199007Y145650D01*
X197507Y146150D02*X198507D01*
X197007Y145650D02*X197507Y146150D01*
X197007Y145650D02*Y142650D01*
X197507Y142150D01*
X198507Y144350D02*X199007Y143850D01*
X197007Y144350D02*X198507D01*
X197507Y142150D02*X198507D01*
X199007Y142650D01*
Y143850D02*Y142650D01*
X221307Y146150D02*X223307D01*
X223807Y145650D01*
Y144650D01*
X223307Y144150D02*X223807Y144650D01*
X221807Y144150D02*X223307D01*
X221807Y146150D02*Y142150D01*
X222607Y144150D02*X223807Y142150D01*
X225007Y145650D02*X225507Y146150D01*
X226507D01*
X227007Y145650D01*
X226507Y142150D02*X227007Y142650D01*
X225507Y142150D02*X226507D01*
X225007Y142650D02*X225507Y142150D01*
Y144350D02*X226507D01*
X227007Y145650D02*Y144850D01*
Y143850D02*Y142650D01*
Y143850D02*X226507Y144350D01*
X227007Y144850D02*X226507Y144350D01*
X210807Y146107D02*X212807D01*
X213307Y145607D01*
Y144607D01*
X212807Y144107D02*X213307Y144607D01*
X211307Y144107D02*X212807D01*
X211307Y146107D02*Y142107D01*
X212107Y144107D02*X213307Y142107D01*
X214507Y145607D02*X215007Y146107D01*
X216507D01*
X217007Y145607D01*
Y144607D01*
X214507Y142107D02*X217007Y144607D01*
X214507Y142107D02*X217007D01*
X183436Y146150D02*Y142150D01*
X184736Y146150D02*X185436Y145450D01*
Y142850D01*
X184736Y142150D02*X185436Y142850D01*
X182936Y142150D02*X184736D01*
X182936Y146150D02*X184736D01*
X186636Y145350D02*X187436Y146150D01*
Y142150D01*
X186636D02*X188136D01*
X33500Y121500D02*Y117500D01*
Y121500D02*X35500D01*
X33500Y119700D02*X35000D01*
X36700Y120700D02*X37500Y121500D01*
Y117500D01*
X36700D02*X38200D01*
X39200Y139843D02*X40500D01*
X38500Y140543D02*X39200Y139843D01*
X38500Y143143D02*Y140543D01*
Y143143D02*X39200Y143843D01*
X40500D01*
X41700Y143343D02*X42200Y143843D01*
X43200D01*
X43700Y143343D01*
X43200Y139843D02*X43700Y140343D01*
X42200Y139843D02*X43200D01*
X41700Y140343D02*X42200Y139843D01*
Y142043D02*X43200D01*
X43700Y143343D02*Y142543D01*
Y141543D02*Y140343D01*
Y141543D02*X43200Y142043D01*
X43700Y142543D02*X43200Y142043D01*
X44900Y142843D02*Y139843D01*
Y142843D02*X45600Y143843D01*
X46700D01*
X47400Y142843D01*
Y139843D01*
X44900Y141843D02*X47400D01*
X242807Y31607D02*X244807D01*
X245307Y31107D01*
Y30107D01*
X244807Y29607D02*X245307Y30107D01*
X243307Y29607D02*X244807D01*
X243307Y31607D02*Y27607D01*
X244107Y29607D02*X245307Y27607D01*
X247007D02*X249007Y31607D01*
X246507D02*X249007D01*
X119700Y6500D02*X120500D01*
Y3000D01*
X120000Y2500D02*X120500Y3000D01*
X119500Y2500D02*X120000D01*
X119000Y3000D02*X119500Y2500D01*
X119000Y3500D02*Y3000D01*
X121700Y6000D02*X122200Y6500D01*
X123700D01*
X124200Y6000D01*
Y5000D01*
X121700Y2500D02*X124200Y5000D01*
X121700Y2500D02*X124200D01*
X47200Y32000D02*X48000D01*
Y28500D01*
X47500Y28000D02*X48000Y28500D01*
X47000Y28000D02*X47500D01*
X46500Y28500D02*X47000Y28000D01*
X46500Y29000D02*Y28500D01*
X49200Y31200D02*X50000Y32000D01*
Y28000D01*
X49200D02*X50700D01*
X140700Y50500D02*X141500D01*
Y47000D01*
X141000Y46500D02*X141500Y47000D01*
X140500Y46500D02*X141000D01*
X140000Y47000D02*X140500Y46500D01*
X140000Y47500D02*Y47000D01*
X142700Y50000D02*X143200Y50500D01*
X144200D01*
X144700Y50000D01*
X144200Y46500D02*X144700Y47000D01*
X143200Y46500D02*X144200D01*
X142700Y47000D02*X143200Y46500D01*
Y48700D02*X144200D01*
X144700Y50000D02*Y49200D01*
Y48200D02*Y47000D01*
Y48200D02*X144200Y48700D01*
X144700Y49200D02*X144200Y48700D01*
X127500Y51000D02*Y47000D01*
X128800Y51000D02*X129500Y50300D01*
Y47700D01*
X128800Y47000D02*X129500Y47700D01*
X127000Y47000D02*X128800D01*
X127000Y51000D02*X128800D01*
X130700Y50500D02*X131200Y51000D01*
X132700D01*
X133200Y50500D01*
Y49500D01*
X130700Y47000D02*X133200Y49500D01*
X130700Y47000D02*X133200D01*
X159000Y118500D02*Y114500D01*
X161000D01*
X162200Y117700D02*X163000Y118500D01*
Y114500D01*
X162200D02*X163700D01*
X132750Y108905D02*Y105405D01*
X133250Y104905D01*
X134250D01*
X134750Y105405D01*
Y108905D02*Y105405D01*
X135950Y108405D02*X136450Y108905D01*
X137450D01*
X137950Y108405D01*
X137450Y104905D02*X137950Y105405D01*
X136450Y104905D02*X137450D01*
X135950Y105405D02*X136450Y104905D01*
Y107105D02*X137450D01*
X137950Y108405D02*Y107605D01*
Y106605D02*Y105405D01*
Y106605D02*X137450Y107105D01*
X137950Y107605D02*X137450Y107105D01*
X132600Y136300D02*Y132800D01*
X133100Y132300D01*
X134100D01*
X134600Y132800D01*
Y136300D02*Y132800D01*
X135800Y135800D02*X136300Y136300D01*
X137800D01*
X138300Y135800D01*
Y134800D01*
X135800Y132300D02*X138300Y134800D01*
X135800Y132300D02*X138300D01*
X91902Y142650D02*X93902D01*
X94402Y142150D01*
Y141150D01*
X93902Y140650D02*X94402Y141150D01*
X92402Y140650D02*X93902D01*
X92402Y142650D02*Y138650D01*
X93202Y140650D02*X94402Y138650D01*
X96102D02*X97602Y140650D01*
Y142150D02*Y140650D01*
X97102Y142650D02*X97602Y142150D01*
X96102Y142650D02*X97102D01*
X95602Y142150D02*X96102Y142650D01*
X95602Y142150D02*Y141150D01*
X96102Y140650D01*
X97602D01*
X82550Y138607D02*X83850D01*
X81850Y139307D02*X82550Y138607D01*
X81850Y141907D02*Y139307D01*
Y141907D02*X82550Y142607D01*
X83850D01*
X85050Y140107D02*X87050Y142607D01*
X85050Y140107D02*X87550D01*
X87050Y142607D02*Y138607D01*
X101893Y142607D02*X103893D01*
X104393Y142107D01*
Y141107D01*
X103893Y140607D02*X104393Y141107D01*
X102393Y140607D02*X103893D01*
X102393Y142607D02*Y138607D01*
X103193Y140607D02*X104393Y138607D01*
X105593Y139107D02*X106093Y138607D01*
X105593Y139907D02*Y139107D01*
Y139907D02*X106293Y140607D01*
X106893D01*
X107593Y139907D01*
Y139107D01*
X107093Y138607D02*X107593Y139107D01*
X106093Y138607D02*X107093D01*
X105593Y141307D02*X106293Y140607D01*
X105593Y142107D02*Y141307D01*
Y142107D02*X106093Y142607D01*
X107093D01*
X107593Y142107D01*
Y141307D01*
X106893Y140607D02*X107593Y141307D01*
X85600Y121400D02*Y117400D01*
X86900Y121400D02*X87600Y120700D01*
Y118100D01*
X86900Y117400D02*X87600Y118100D01*
X85100Y117400D02*X86900D01*
X85100Y121400D02*X86900D01*
X88800Y120900D02*X89300Y121400D01*
X90300D01*
X90800Y120900D01*
X90300Y117400D02*X90800Y117900D01*
X89300Y117400D02*X90300D01*
X88800Y117900D02*X89300Y117400D01*
Y119600D02*X90300D01*
X90800Y120900D02*Y120100D01*
Y119100D02*Y117900D01*
Y119100D02*X90300Y119600D01*
X90800Y120100D02*X90300Y119600D01*
X124550Y117150D02*X125850D01*
X123850Y117850D02*X124550Y117150D01*
X123850Y120450D02*Y117850D01*
Y120450D02*X124550Y121150D01*
X125850D01*
X127050Y120650D02*X127550Y121150D01*
X128550D01*
X129050Y120650D01*
X128550Y117150D02*X129050Y117650D01*
X127550Y117150D02*X128550D01*
X127050Y117650D02*X127550Y117150D01*
Y119350D02*X128550D01*
X129050Y120650D02*Y119850D01*
Y118850D02*Y117650D01*
Y118850D02*X128550Y119350D01*
X129050Y119850D02*X128550Y119350D01*
X126250Y85500D02*Y82000D01*
X126750Y81500D01*
X127750D01*
X128250Y82000D01*
Y85500D02*Y82000D01*
X129450Y83000D02*X131450Y85500D01*
X129450Y83000D02*X131950D01*
X131450Y85500D02*Y81500D01*
X110055Y97245D02*Y95245D01*
X109555Y94745D01*
X108555D02*X109555D01*
X108055Y95245D02*X108555Y94745D01*
X108055Y96745D02*Y95245D01*
X106055Y96745D02*X110055D01*
X108055Y95945D02*X106055Y94745D01*
X109255Y93545D02*X110055Y92745D01*
X106055D02*X110055D01*
X106055Y93545D02*Y92045D01*
X106555Y90845D02*X106055Y90345D01*
X106555Y90845D02*X109555D01*
X110055Y90345D01*
Y89345D01*
X109555Y88845D01*
X106555D02*X109555D01*
X106055Y89345D02*X106555Y88845D01*
X106055Y90345D02*Y89345D01*
X107055Y90845D02*X109055Y88845D01*
X101150Y97107D02*Y95107D01*
X100650Y94607D01*
X99650D02*X100650D01*
X99150Y95107D02*X99650Y94607D01*
X99150Y96607D02*Y95107D01*
X97150Y96607D02*X101150D01*
X99150Y95807D02*X97150Y94607D01*
X100350Y93407D02*X101150Y92607D01*
X97150D02*X101150D01*
X97150Y93407D02*Y91907D01*
X100350Y90707D02*X101150Y89907D01*
X97150D02*X101150D01*
X97150Y90707D02*Y89207D01*
X130200Y69000D02*X131500D01*
X129500Y69700D02*X130200Y69000D01*
X129500Y72300D02*Y69700D01*
Y72300D02*X130200Y73000D01*
X131500D01*
X132700Y72200D02*X133500Y73000D01*
Y69000D01*
X132700D02*X134200D01*
X135400Y72000D02*Y69000D01*
Y72000D02*X136100Y73000D01*
X137200D01*
X137900Y72000D01*
Y69000D01*
X135400Y71000D02*X137900D01*
M02*
