M48
INCH
T36C0.012
T35C0.063
T34C0.055
T33C0.129
%
T36
X003600Y007900
X004000Y007900
X004400Y007900
X004900Y007300
X004900Y006950
X004900Y006600
X006750Y013600
X006750Y012500
X007150Y013600
X007150Y012500
X007300Y004350
X007300Y004000
X007300Y003650
X007550Y013600
X007550Y012500
X007850Y004900
X007850Y003100
X008250Y004900
X008250Y003100
X008650Y004900
X008650Y003100
X012500Y011900
X012850Y011900
X013300Y013100
X013300Y010750
X017250Y012650
X017250Y012300
X017250Y011950
X017600Y012650
X017600Y012300
X017600Y011950
X018200Y013350
X019100Y009350
X019100Y008250
X019450Y009350
X019450Y008250
X019800Y009350
X019800Y008250
X019900Y013100
X020750Y012400
X020750Y012000
X021000Y010400
X021050Y009700
X021050Y009300
X021050Y008900
X021050Y008500
X021100Y012400
X021100Y012000
X021250Y002550
X021350Y010400
X021450Y012400
X021450Y012000
X021650Y002550
X022050Y002550
X022250Y009700
X022250Y009300
X022250Y008900
X022250Y008500
X022450Y002550
X022850Y002550
X022850Y002150
X022850Y001750
X022850Y001350
X022850Y000950
X022850Y000550
X023400Y012000
X023550Y004850
X023550Y004450
X023550Y004050
X023950Y004050
X024250Y012000
X024350Y004050
X025100Y007200
X025100Y006850
X025100Y006500
X025200Y009950
X025200Y009300
X025600Y007750
X026000Y007750
X026400Y007750
X026950Y007200
X026950Y006850
X026950Y006500
X029650Y003850
T34
X004000Y006850
X004000Y004850
X008250Y004000
X010250Y004000
X016100Y004000
X018100Y004000
X020100Y004000
X022100Y004000
X026000Y006850
X026000Y004850
T35
X001500Y010820
X001500Y009480
X005400Y010820
X005400Y009480
T33
X001700Y013300
X001700Y001700
X028300Y013300
X028300Y001700
M30
