G04 start of page 6 for group -4063 idx -4063 *
G04 Title: (unknown), componentmask *
G04 Creator: pcb 4.0.2 *
G04 CreationDate: Thu Jun 24 15:44:02 2021 UTC *
G04 For: ndholmes *
G04 Format: Gerber/RS-274X *
G04 PCB-Dimensions (mil): 3000.00 1500.00 *
G04 PCB-Coordinate-Origin: lower left *
%MOIN*%
%FSLAX25Y25*%
%LNTOPMASK*%
%ADD40C,0.0890*%
%ADD39C,0.0960*%
%ADD38C,0.0001*%
%ADD37C,0.2997*%
G54D37*X17000Y17000D03*
G54D38*G36*
X156200Y44800D02*Y35200D01*
X165800D01*
Y44800D01*
X156200D01*
G37*
G36*
X77700D02*Y35200D01*
X87300D01*
Y44800D01*
X77700D01*
G37*
G54D39*X102500Y40000D03*
G54D38*G36*
X35200Y73300D02*Y63700D01*
X44800D01*
Y73300D01*
X35200D01*
G37*
G54D39*X40000Y48500D03*
G54D37*X283000Y133000D03*
Y17000D03*
G54D38*G36*
X255200Y53300D02*Y43700D01*
X264800D01*
Y53300D01*
X255200D01*
G37*
G54D39*X260000Y68500D03*
X181000Y40000D03*
X201000D03*
X221000D03*
G54D37*X17000Y133000D03*
G54D40*X15000Y108200D03*
Y94800D03*
X54000Y108200D03*
Y94800D03*
G54D38*G36*
X45215Y133950D02*Y127050D01*
X58414D01*
Y133950D01*
X45215D01*
G37*
G36*
X64900D02*Y127050D01*
X78099D01*
Y133950D01*
X64900D01*
G37*
G36*
X91248Y129816D02*Y124098D01*
X97752D01*
Y129816D01*
X91248D01*
G37*
G36*
X101248Y129859D02*Y124141D01*
X107752D01*
Y129859D01*
X101248D01*
G37*
G36*
X158454Y128114D02*X152736D01*
Y116886D01*
X158454D01*
Y128114D01*
G37*
G36*
X170264D02*X164546D01*
Y116886D01*
X170264D01*
Y128114D01*
G37*
G36*
X91248Y136902D02*Y131184D01*
X97752D01*
Y136902D01*
X91248D01*
G37*
G36*
X101248Y136945D02*Y131227D01*
X107752D01*
Y136945D01*
X101248D01*
G37*
G36*
X81248Y136859D02*Y131141D01*
X87752D01*
Y136859D01*
X81248D01*
G37*
G36*
Y129773D02*Y124055D01*
X87752D01*
Y129773D01*
X81248D01*
G37*
G36*
X117000Y109050D02*Y106050D01*
X121600D01*
Y109050D01*
X117000D01*
G37*
G36*
X104748Y111402D02*Y105684D01*
X111252D01*
Y111402D01*
X104748D01*
G37*
G36*
X125200Y101250D02*Y98250D01*
X129800D01*
Y101250D01*
X125200D01*
G37*
G36*
Y105150D02*Y102150D01*
X129800D01*
Y105150D01*
X125200D01*
G37*
G36*
Y109050D02*Y106050D01*
X129800D01*
Y109050D01*
X125200D01*
G37*
G36*
Y128500D02*Y125500D01*
X129800D01*
Y128500D01*
X125200D01*
G37*
G36*
Y132400D02*Y129400D01*
X129800D01*
Y132400D01*
X125200D01*
G37*
G36*
Y136300D02*Y133300D01*
X129800D01*
Y136300D01*
X125200D01*
G37*
G36*
X115316Y122252D02*X109598D01*
Y115748D01*
X115316D01*
Y122252D01*
G37*
G36*
X122402D02*X116684D01*
Y115748D01*
X122402D01*
Y122252D01*
G37*
G36*
X117000Y136300D02*Y133300D01*
X121600D01*
Y136300D01*
X117000D01*
G37*
G36*
Y132400D02*Y129400D01*
X121600D01*
Y132400D01*
X117000D01*
G37*
G36*
Y128500D02*Y125500D01*
X121600D01*
Y128500D01*
X117000D01*
G37*
G36*
X139814Y144328D02*Y134672D01*
X150256D01*
Y144328D01*
X139814D01*
G37*
G36*
X156744D02*Y134672D01*
X167186D01*
Y144328D01*
X156744D01*
G37*
G36*
X184748Y136402D02*Y130684D01*
X191252D01*
Y136402D01*
X184748D01*
G37*
G36*
Y129316D02*Y123598D01*
X191252D01*
Y129316D01*
X184748D01*
G37*
G36*
X209316Y134252D02*X203598D01*
Y127748D01*
X209316D01*
Y134252D01*
G37*
G36*
X200402Y119790D02*Y117990D01*
X204502D01*
Y119790D01*
X200402D01*
G37*
G36*
X201100D02*Y117990D01*
X203900D01*
Y119790D01*
X201100D01*
G37*
G36*
X200402Y117821D02*Y116020D01*
X204502D01*
Y117821D01*
X200402D01*
G37*
G36*
X201100D02*Y116020D01*
X203900D01*
Y117821D01*
X201100D01*
G37*
G36*
X200402Y115854D02*Y114053D01*
X204502D01*
Y115854D01*
X200402D01*
G37*
G36*
X201100D02*Y114053D01*
X203900D01*
Y115854D01*
X201100D01*
G37*
G36*
X200402Y113884D02*Y112084D01*
X204502D01*
Y113884D01*
X200402D01*
G37*
G36*
X201100D02*Y112084D01*
X203900D01*
Y113884D01*
X201100D01*
G37*
G36*
X186316Y120252D02*X180598D01*
Y113748D01*
X186316D01*
Y120252D01*
G37*
G36*
X193402D02*X187684D01*
Y113748D01*
X193402D01*
Y120252D01*
G37*
G36*
X244748Y110316D02*Y104598D01*
X251252D01*
Y110316D01*
X244748D01*
G37*
G36*
Y117402D02*Y111684D01*
X251252D01*
Y117402D01*
X244748D01*
G37*
G36*
X268319Y111099D02*X260632D01*
Y97900D01*
X268319D01*
Y111099D01*
G37*
G36*
X290368D02*X282681D01*
Y97900D01*
X290368D01*
Y111099D01*
G37*
G36*
X217498Y106010D02*Y104210D01*
X221598D01*
Y106010D01*
X217498D01*
G37*
G36*
Y107980D02*Y106179D01*
X221598D01*
Y107980D01*
X217498D01*
G37*
G36*
X218100Y106010D02*Y104210D01*
X220900D01*
Y106010D01*
X218100D01*
G37*
G36*
Y107980D02*Y106179D01*
X220900D01*
Y107980D01*
X218100D01*
G37*
G36*
X234748Y110316D02*Y104598D01*
X241252D01*
Y110316D01*
X234748D01*
G37*
G36*
X217498Y115854D02*Y114053D01*
X221598D01*
Y115854D01*
X217498D01*
G37*
G36*
X218100D02*Y114053D01*
X220900D01*
Y115854D01*
X218100D01*
G37*
G36*
X234748Y117402D02*Y111684D01*
X241252D01*
Y117402D01*
X234748D01*
G37*
G36*
X217498Y117821D02*Y116020D01*
X221598D01*
Y117821D01*
X217498D01*
G37*
G36*
X218100D02*Y116020D01*
X220900D01*
Y117821D01*
X218100D01*
G37*
G36*
X217498Y119790D02*Y117990D01*
X221598D01*
Y119790D01*
X217498D01*
G37*
G36*
X218100D02*Y117990D01*
X220900D01*
Y119790D01*
X218100D01*
G37*
G36*
X217498Y109947D02*Y108146D01*
X221598D01*
Y109947D01*
X217498D01*
G37*
G36*
Y111916D02*Y110116D01*
X221598D01*
Y111916D01*
X217498D01*
G37*
G36*
Y113884D02*Y112084D01*
X221598D01*
Y113884D01*
X217498D01*
G37*
G36*
X218100Y109947D02*Y108146D01*
X220900D01*
Y109947D01*
X218100D01*
G37*
G36*
Y111916D02*Y110116D01*
X220900D01*
Y111916D01*
X218100D01*
G37*
G36*
Y113884D02*Y112084D01*
X220900D01*
Y113884D01*
X218100D01*
G37*
G36*
X188886Y78954D02*Y73236D01*
X200114D01*
Y78954D01*
X188886D01*
G37*
G36*
X219950Y79257D02*X213050D01*
Y66058D01*
X219950D01*
Y79257D01*
G37*
G36*
X152763Y74580D02*Y66106D01*
X167237D01*
Y74580D01*
X152763D01*
G37*
G36*
X188886Y90764D02*Y85046D01*
X200114D01*
Y90764D01*
X188886D01*
G37*
G36*
X219950Y98942D02*X213050D01*
Y85743D01*
X219950D01*
Y98942D01*
G37*
G36*
X200402Y111916D02*Y110116D01*
X204502D01*
Y111916D01*
X200402D01*
G37*
G36*
Y109947D02*Y108146D01*
X204502D01*
Y109947D01*
X200402D01*
G37*
G36*
X201100Y111916D02*Y110116D01*
X203900D01*
Y111916D01*
X201100D01*
G37*
G36*
Y109947D02*Y108146D01*
X203900D01*
Y109947D01*
X201100D01*
G37*
G36*
X200402Y107980D02*Y106179D01*
X204502D01*
Y107980D01*
X200402D01*
G37*
G36*
Y106010D02*Y104210D01*
X204502D01*
Y106010D01*
X200402D01*
G37*
G36*
X201100Y107980D02*Y106179D01*
X203900D01*
Y107980D01*
X201100D01*
G37*
G36*
Y106010D02*Y104210D01*
X203900D01*
Y106010D01*
X201100D01*
G37*
G36*
X213268Y115253D02*X208732D01*
Y108747D01*
X213268D01*
Y115253D01*
G37*
G36*
X214550Y117900D02*X207450D01*
Y106100D01*
X214550D01*
Y117900D01*
G37*
G36*
X216402Y134252D02*X210684D01*
Y127748D01*
X216402D01*
Y134252D01*
G37*
G36*
X225248Y135902D02*Y130184D01*
X231752D01*
Y135902D01*
X225248D01*
G37*
G36*
Y128816D02*Y123098D01*
X231752D01*
Y128816D01*
X225248D01*
G37*
G36*
X234748D02*Y123098D01*
X241252D01*
Y128816D01*
X234748D01*
G37*
G36*
Y135902D02*Y130184D01*
X241252D01*
Y135902D01*
X234748D01*
G37*
G36*
X244748Y128816D02*Y123098D01*
X251252D01*
Y128816D01*
X244748D01*
G37*
G36*
Y135902D02*Y130184D01*
X251252D01*
Y135902D01*
X244748D01*
G37*
G36*
X130316Y21752D02*X124598D01*
Y15248D01*
X130316D01*
Y21752D01*
G37*
G36*
X137402D02*X131684D01*
Y15248D01*
X137402D01*
Y21752D01*
G37*
G36*
X133828Y39756D02*X124172D01*
Y29314D01*
X133828D01*
Y39756D01*
G37*
G36*
Y56686D02*X124172D01*
Y46244D01*
X133828D01*
Y56686D01*
G37*
G36*
X255902Y13752D02*X250184D01*
Y7248D01*
X255902D01*
Y13752D01*
G37*
G36*
X248816D02*X243098D01*
Y7248D01*
X248816D01*
Y13752D01*
G37*
G36*
Y22252D02*X243098D01*
Y15748D01*
X248816D01*
Y22252D01*
G37*
G36*
X255902D02*X250184D01*
Y15748D01*
X255902D01*
Y22252D01*
G37*
G36*
X117000Y105150D02*Y102150D01*
X121600D01*
Y105150D01*
X117000D01*
G37*
G36*
X104748Y104316D02*Y98598D01*
X111252D01*
Y104316D01*
X104748D01*
G37*
G36*
X152763Y107980D02*Y99506D01*
X167237D01*
Y107980D01*
X152763D01*
G37*
G36*
X117000Y101250D02*Y98250D01*
X121600D01*
Y101250D01*
X117000D01*
G37*
G36*
X113750Y72000D02*Y69000D01*
X123250D01*
Y72000D01*
X113750D01*
G37*
G36*
Y77000D02*Y74000D01*
X123250D01*
Y77000D01*
X113750D01*
G37*
G36*
Y82000D02*Y79000D01*
X123250D01*
Y82000D01*
X113750D01*
G37*
G36*
Y87000D02*Y84000D01*
X123250D01*
Y87000D01*
X113750D01*
G37*
G36*
X93250D02*Y84000D01*
X102750D01*
Y87000D01*
X93250D01*
G37*
G36*
Y82000D02*Y79000D01*
X102750D01*
Y82000D01*
X93250D01*
G37*
G36*
Y77000D02*Y74000D01*
X102750D01*
Y77000D01*
X93250D01*
G37*
G36*
Y72000D02*Y69000D01*
X102750D01*
Y72000D01*
X93250D01*
G37*
G36*
X85300Y100600D02*Y96400D01*
X90700D01*
Y100600D01*
X85300D01*
G37*
G36*
Y113500D02*Y109300D01*
X90700D01*
Y113500D01*
X85300D01*
G37*
G36*
X95748Y111402D02*Y105684D01*
X102252D01*
Y111402D01*
X95748D01*
G37*
G36*
Y104316D02*Y98598D01*
X102252D01*
Y104316D01*
X95748D01*
G37*
M02*
